<?xml version="1.0" encoding="UTF-8"?>
<svg version="1.1" xmlns="http://www.w3.org/2000/svg" width="1325" height="591">
<path d="M0 0 C4.98701249 0.11297562 9.97424117 0.12313095 14.96233582 0.14445734 C24.39505565 0.200278 33.82399431 0.34779442 43.2550531 0.52874815 C53.99701012 0.73035355 64.73915348 0.82900916 75.4825331 0.91926599 C97.57024774 1.10712253 119.65456476 1.4234626 141.73935914 1.82509089 C143.96285935 11.10458963 145.86683787 20.41825307 147.61167359 29.79823542 C147.88473085 31.25484238 148.15802828 32.71140434 148.43154359 34.16792536 C149.17026385 38.1054955 149.90563072 42.04368509 150.6403718 45.9819994 C151.42727764 50.19665587 152.21732202 54.4107241 153.00698304 58.62486506 C154.51529595 66.67680333 156.02080146 74.72926387 157.52530807 82.78191411 C159.1818444 91.64751849 160.84156732 100.51252515 162.5015626 109.37748241 C167.78002562 137.56785905 173.05203841 165.75943695 178.30399358 193.95476508 C178.80160818 196.62596631 179.29937486 199.29713914 179.79720426 201.96830034 C179.95838083 202.83311986 180.11955741 203.69793937 180.28561813 204.58896554 C180.60652945 206.3108437 180.92744853 208.03272041 181.24837559 209.75459564 C182.17651196 214.73497268 183.10347847 219.71556566 184.0295465 224.69632769 C184.59651811 227.74442612 185.1644783 230.79233973 185.73270082 233.84020519 C185.99498147 235.24825467 186.25683132 236.65638447 186.51821899 238.06459999 C186.87423112 239.98235811 187.2318848 241.89981128 187.58962464 243.81724787 C187.78879581 244.88774818 187.98796699 245.9582485 188.19317365 247.06118822 C188.64349505 249.33998276 189.14758192 251.57969377 189.73935914 253.82509089 C190.11520143 253.22374323 190.49104371 252.62239557 190.87827516 252.00282526 C211.74863648 218.61024714 232.61899781 185.21766901 253.48935914 151.82509089 C254.10835084 150.83468805 254.72734254 149.84428522 255.36509156 148.82387018 C256.61259161 146.8279026 257.86015002 144.83197149 259.10776734 142.83607721 C262.27150096 137.77468172 265.43415475 132.71261695 268.59482789 127.64930964 C274.76793661 117.7622981 280.9556167 107.88524197 287.18808961 98.0355401 C293.10177454 88.68252363 298.95639938 79.29259958 304.8160193 69.90565729 C308.57640462 63.88274005 312.34038032 57.86206526 316.10483766 51.84169245 C319.2840068 46.75668304 322.45990864 41.66968144 325.62998414 36.57899714 C326.27644898 35.54194635 326.92291383 34.50489557 327.58896852 33.43641901 C328.79456905 31.50225412 329.99912243 29.5674358 331.20224977 27.63173151 C332.33944417 25.80832151 333.51567121 24.00867159 334.72970033 22.23549128 C336.34959237 19.48652691 337.19824335 17.53572348 338.11278749 14.57228327 C340.1559916 9.0624808 342.64287219 4.94946205 347.73935914 1.82509089 C359.64792505 -1.29445497 372.60225814 -0.20534833 384.79807091 0.10139394 C389.7571006 0.2080988 394.71632456 0.21768491 399.67632508 0.23782587 C409.05573433 0.290543 418.43175134 0.42986343 427.80967051 0.6007672 C438.49122435 0.79117757 449.17294542 0.88434881 459.85577548 0.96958959 C481.81885928 1.14700486 503.77889506 1.44576804 525.73935914 1.82509089 C533.39581989 41.49113363 540.96119125 81.17369727 548.40732789 120.87977839 C548.68923852 122.38303458 548.68923852 122.38303458 548.97684431 123.91665959 C551.55070153 137.64300198 554.12115877 151.36998038 556.69075608 165.09712076 C557.94283844 171.78578084 559.19542158 178.47434708 560.44812989 185.16288996 C560.65857102 186.28649689 560.86901214 187.41010383 561.08583027 188.56775945 C561.51338369 190.85057611 561.94093935 193.13339234 562.36849725 195.41620815 C563.44828815 201.1814388 564.52804709 206.94667543 565.6077826 212.71191645 C565.93075304 214.43641043 565.93075304 214.43641043 566.26024812 216.19574267 C567.57096098 223.19445449 568.88141664 230.19321443 570.19168872 237.19200879 C575.84153824 267.3702946 581.50198892 297.54657073 587.17158359 327.72115302 C589.8370489 341.90804916 592.49935045 356.09553916 595.1612618 370.28310251 C597.29882478 381.67520113 599.43905578 393.06679227 601.58258688 404.45776945 C603.03762787 412.19140842 604.48939417 419.92565749 605.93854034 427.66040319 C606.77154973 432.10596737 607.60605952 436.55123637 608.44455171 440.99576998 C609.20943881 445.05026436 609.97019292 449.1055111 610.7276057 453.16140819 C611.00228443 454.62818387 611.27850593 456.09467164 611.55640376 457.56084085 C611.93279514 459.54785246 612.30308949 461.53601613 612.6730597 463.52423334 C612.88050781 464.62847241 613.08795592 465.73271149 613.30169034 466.87041235 C613.73935914 469.82509089 613.73935914 469.82509089 613.73935914 474.82509089 C554.99935914 474.82509089 496.25935914 474.82509089 435.73935914 474.82509089 C427.03363986 429.12006465 418.34171175 383.41335047 409.76081872 337.68482757 C409.27979047 335.12144783 408.79868644 332.55808233 408.31756043 329.99472094 C405.28400744 313.83214267 402.2516444 297.6693432 399.22558725 281.50535965 C398.01206707 275.02364283 396.79714242 268.54219025 395.581195 262.06092834 C394.73247565 257.53654218 393.88558287 253.01181932 393.04009414 248.48682839 C392.40230349 245.07639922 391.76178802 241.66648296 391.12168336 238.25648737 C390.89326879 237.03091277 390.66485421 235.80533817 390.42951798 234.54262495 C390.22004407 233.42951287 390.01057015 232.31640079 389.79474854 231.16955805 C389.61386626 230.20342805 389.43298398 229.23729805 389.24662042 228.24189138 C388.76124862 225.69973985 388.76124862 225.69973985 387.73935914 222.82509089 C387.36351686 223.42643854 386.98767457 224.0277862 386.60044312 224.64735651 C345.7300818 290.03993464 304.85972047 355.43251276 263.98935914 420.82509089 C263.36996461 421.81613825 262.75057008 422.80718561 262.11240602 423.82826471 C260.86897501 425.8177219 259.62548593 427.80714279 258.38193727 429.79652643 C255.1559415 434.95752727 251.93111701 440.11925477 248.70810914 445.28212214 C248.04359742 446.34624323 247.3790857 447.41036432 246.69443727 448.50673151 C245.43754638 450.51951481 244.18100669 452.53251748 242.92490602 454.54579401 C239.91829558 459.35973004 236.90015182 464.16621555 233.86435914 468.96180964 C233.28943727 469.87019587 232.71451539 470.7785821 232.12217164 471.71449518 C230.73935914 473.82509089 230.73935914 473.82509089 229.73935914 474.82509089 C227.4484582 474.92219603 225.15449373 474.94695676 222.86153626 474.9453454 C221.76994615 474.94662704 221.76994615 474.94662704 220.6563037 474.94793457 C218.19950801 474.94959152 215.74277948 474.94406451 213.28599 474.93861628 C211.53217023 474.93833442 209.77835035 474.9384921 208.02453065 474.93905878 C203.24787245 474.93934684 198.47123914 474.93344883 193.69458675 474.92648482 C188.7084186 474.9202526 183.72224994 474.91964759 178.7360785 474.91845942 C169.2871262 474.91534571 159.8381854 474.9071318 150.38923818 474.89710993 C139.6348867 474.88595 128.88053468 474.88043864 118.12617886 474.87541449 C95.99723252 474.86494921 73.86829655 474.84734902 51.73935914 474.82509089 C49.11290222 464.04623036 47.04757585 453.18983047 45.0215857 442.28578424 C44.65836134 440.34225793 44.29488996 438.39877777 43.93119264 436.45533991 C43.15208544 432.28924983 42.37469982 428.12284363 41.59868073 423.95617723 C40.36433765 417.32875128 39.1260365 410.70206847 37.88724732 404.07547235 C35.92092681 393.55459896 33.95717851 383.03324741 31.99455643 372.51168352 C28.49913812 353.77297445 25.00049328 335.03486817 21.49921989 316.29725224 C20.27604813 309.75062092 19.05436222 303.20371467 17.83386326 296.65658456 C13.24112009 272.02505141 8.5717014 247.41081713 3.73935914 222.82509089 C3.38987371 223.41345287 3.04038829 224.00181486 2.6803124 224.608006 C2.22057373 225.38187088 1.76083507 226.15573576 1.28716493 226.95305109 C0.83197638 227.7193037 0.37678782 228.48555632 -0.09219432 229.27502871 C-5.51683312 238.3971117 -11.11668453 247.39323051 -16.83754516 256.33192682 C-21.16568286 263.0959331 -25.44710402 269.88736874 -29.69814086 276.70009089 C-30.32051635 277.69750299 -30.94289184 278.6949151 -31.58412719 279.72255182 C-32.84615992 281.74584426 -34.10795965 283.76928204 -35.36952758 285.79286432 C-38.4960751 290.8059963 -41.62864247 295.81536331 -44.76064086 300.82509089 C-46.01067012 302.82507259 -47.26067012 304.8250726 -48.51064086 306.82509089 C-86.01064085 366.82509088 -86.01064085 366.82509088 -87.88612914 369.82582331 C-89.13456007 371.82334532 -90.38293259 373.82090384 -91.63124633 375.81849909 C-94.77977204 380.85671522 -97.92934979 385.89426817 -101.08095336 390.93055964 C-107.52824289 401.23565355 -113.95684973 411.5516431 -120.34706664 421.89222956 C-125.02040428 429.44952532 -129.72753117 436.98547091 -134.44618773 444.51454401 C-135.01401977 445.42139948 -135.5818518 446.32825495 -136.16689086 447.26259089 C-136.79033889 448.17970346 -137.41378692 449.09681604 -138.05612731 450.04171991 C-139.88325629 452.92083272 -140.98238192 455.76799505 -142.09064269 458.98761225 C-144.63796512 465.42488216 -147.51897819 470.74985098 -153.26064086 474.82509089 C-165.09829843 478.55216128 -178.27280067 477.33607304 -190.5221405 476.95436358 C-195.47560882 476.82236537 -200.42938831 476.81069661 -205.38434386 476.78583002 C-214.750385 476.72075865 -224.11122988 476.54874134 -233.47499031 476.33749074 C-244.1418241 476.10210843 -254.8089169 475.98714443 -265.47770441 475.8818866 C-287.4082418 475.66284316 -309.3341131 475.29389473 -331.26064086 474.82509089 C-329.79852783 471.05777948 -328.11766034 467.75742806 -325.98720336 464.31727839 C-325.33356811 463.25815241 -324.67993285 462.19902643 -324.00649047 461.10780573 C-323.29968925 459.97180828 -322.59273582 458.83590552 -321.88564086 457.70009089 C-321.15566181 456.52136747 -320.42592794 455.34249218 -319.69643188 454.16346979 C-314.61418703 445.95954884 -309.47597561 437.7913275 -304.30751586 429.64149714 C-300.83076072 424.15495765 -297.38868777 418.6468854 -293.94814086 413.13759089 C-293.31770873 412.12809381 -292.6872766 411.11859674 -292.03774047 410.07850885 C-290.75303936 408.02096316 -289.46845341 405.96334557 -288.1839807 403.90565729 C-285.04474862 398.87762602 -281.90256935 393.85143748 -278.76064086 388.82509089 C-277.51062622 386.82510003 -276.26062624 384.82510003 -275.01064086 382.82509089 C-207.51064086 274.82509089 -207.51064086 274.82509089 -205.63515258 271.82435846 C-204.38672165 269.82683645 -203.13834913 267.82927793 -201.89003539 265.83168268 C-198.74150968 260.79346655 -195.59193193 255.7559136 -192.44032836 250.71962214 C-186.52660589 241.26736082 -180.62287575 231.80938803 -174.76064086 222.32509089 C-168.26636309 211.81823449 -161.72021578 201.34414362 -155.16786742 190.87343073 C-152.03022523 185.85850492 -148.89556953 180.84171323 -145.76064086 175.82509089 C-144.51065549 173.82508174 -143.26065549 171.82508174 -142.01064086 169.82509089 C-141.39189086 168.83509089 -140.77314086 167.84509089 -140.13564086 166.82509089 C-74.51064086 61.82509088 -74.51064086 61.82509088 -72.6346643 58.82362604 C-71.3878024 56.82858204 -70.14105714 54.83346513 -68.89442992 52.83827448 C-65.72238139 47.76183612 -62.54816057 42.68677775 -59.37001586 37.61415339 C-58.72355102 36.58161432 -58.07708617 35.54907526 -57.41103148 34.48524714 C-56.207388 32.56288128 -55.00304765 30.64095143 -53.79775023 28.71962214 C-53.23378539 27.81856745 -52.66982055 26.91751276 -52.08876586 25.98915339 C-51.18820212 24.66603144 -51.18820212 24.66603144 -50.26944518 23.31617975 C-48.63125792 20.72625011 -47.74743178 18.2846978 -46.89490294 15.34742975 C-39.86808352 -4.82198198 -17.57940439 -0.46549831 0 0 Z " fill="#BEBEBE" transform="translate(402.2606408596039,52.17490911483765)"/>
<path d="M0 0 C4.98701249 0.11297562 9.97424117 0.12313095 14.96233582 0.14445734 C24.39505565 0.200278 33.82399431 0.34779442 43.2550531 0.52874815 C53.99701012 0.73035355 64.73915348 0.82900916 75.4825331 0.91926599 C97.57024774 1.10712253 119.65456476 1.4234626 141.73935914 1.82509089 C143.95441432 11.07340649 145.85568195 20.35497404 147.59580445 29.70302057 C147.86747855 31.1513278 148.13938799 32.59959089 148.41151071 34.04781389 C148.99439761 37.15283122 149.57555768 40.25816489 150.15535569 43.36376047 C151.0851087 48.34367839 152.01910583 53.32279546 152.95337892 58.30186701 C156.17390802 75.47331538 159.37679467 92.64803801 162.57280922 109.82406402 C163.92559394 117.09314361 165.27976637 124.36196469 166.63431716 131.63071537 C166.97024522 133.43365038 167.30607098 135.23660445 167.64179492 137.03957748 C171.54793907 158.01701171 175.50267325 178.97916704 179.72741151 199.89523554 C180.87210114 205.58042015 181.99361183 211.2702319 183.11561036 216.9599328 C183.93030095 221.07443263 184.7642496 225.18299474 185.64475465 229.28395319 C191.41388108 256.19734366 191.41388108 256.19734366 186.48154664 264.11805964 C184.96053391 266.06847926 183.3823544 267.976258 181.73935914 269.82509089 C180.56703744 271.64226906 179.42454819 273.47915416 178.31748414 275.33680964 C177.21132265 277.06413217 176.10190135 278.78937116 174.98935914 280.51259089 C173.76382654 282.42517692 172.53857074 284.33794035 171.31357789 286.25087214 C170.71078004 287.1901153 170.10798219 288.12935846 169.48691773 289.09706354 C166.90906471 293.12122248 164.35273442 297.15879228 161.80185914 301.20009089 C161.32047486 301.96257135 160.83909059 302.72505182 160.34311891 303.51063776 C154.42010149 312.90342085 148.54276827 322.32482289 142.66269898 331.74452448 C139.52346691 336.77255575 136.38128763 341.79874429 133.23935914 346.82509089 C131.9893445 348.82508174 130.73934452 350.82508175 129.48935914 352.82509089 C116.98935914 372.82509089 104.48935914 392.82509089 91.98935914 412.82509089 C91.37036744 413.81549372 90.75137574 414.80589655 90.11362672 415.82631159 C88.86612667 417.82227917 87.61856826 419.81821028 86.37095094 421.81410456 C83.20721732 426.87550005 80.04456353 431.93756482 76.88389039 437.00087214 C73.76946802 441.98987264 70.65026331 446.97586094 67.5293982 451.96083307 C65.74815531 454.81101606 63.9738754 457.66544662 62.20029664 460.52040339 C61.10934801 462.26792235 60.01821219 464.01532447 58.92685914 465.76259089 C58.42903932 466.56801325 57.93121949 467.37343561 57.41831422 468.20326471 C56.96093873 468.93311579 56.50356324 469.66296686 56.03232789 470.41493464 C55.63553834 471.05294001 55.23874879 471.69094538 54.82993531 472.34828424 C53.73935914 473.82509089 53.73935914 473.82509089 51.73935914 474.82509089 C49.11290222 464.04623036 47.04757585 453.18983047 45.0215857 442.28578424 C44.65836134 440.34225793 44.29488996 438.39877777 43.93119264 436.45533991 C43.15208544 432.28924983 42.37469982 428.12284363 41.59868073 423.95617723 C40.36433765 417.32875128 39.1260365 410.70206847 37.88724732 404.07547235 C35.92092681 393.55459896 33.95717851 383.03324741 31.99455643 372.51168352 C28.49913812 353.77297445 25.00049328 335.03486817 21.49921989 316.29725224 C20.27604813 309.75062092 19.05436222 303.20371467 17.83386326 296.65658456 C13.24112009 272.02505141 8.5717014 247.41081713 3.73935914 222.82509089 C3.38987371 223.41345287 3.04038829 224.00181486 2.6803124 224.608006 C2.22057373 225.38187088 1.76083507 226.15573576 1.28716493 226.95305109 C0.83197638 227.7193037 0.37678782 228.48555632 -0.09219432 229.27502871 C-5.51683312 238.3971117 -11.11668453 247.39323051 -16.83754516 256.33192682 C-21.16568286 263.0959331 -25.44710402 269.88736874 -29.69814086 276.70009089 C-30.32051635 277.69750299 -30.94289184 278.6949151 -31.58412719 279.72255182 C-32.84615992 281.74584426 -34.10795965 283.76928204 -35.36952758 285.79286432 C-38.4960751 290.8059963 -41.62864247 295.81536331 -44.76064086 300.82509089 C-46.01067012 302.82507259 -47.26067012 304.8250726 -48.51064086 306.82509089 C-86.01064085 366.82509088 -86.01064085 366.82509088 -87.88612914 369.82582331 C-89.13456007 371.82334532 -90.38293259 373.82090384 -91.63124633 375.81849909 C-94.77977204 380.85671522 -97.92934979 385.89426817 -101.08095336 390.93055964 C-107.52824289 401.23565355 -113.95684973 411.5516431 -120.34706664 421.89222956 C-125.02040428 429.44952532 -129.72753117 436.98547091 -134.44618773 444.51454401 C-135.01401977 445.42139948 -135.5818518 446.32825495 -136.16689086 447.26259089 C-136.79033889 448.17970346 -137.41378692 449.09681604 -138.05612731 450.04171991 C-139.88325629 452.92083272 -140.98238192 455.76799505 -142.09064269 458.98761225 C-144.63796512 465.42488216 -147.51897819 470.74985098 -153.26064086 474.82509089 C-165.09829843 478.55216128 -178.27280067 477.33607304 -190.5221405 476.95436358 C-195.47560882 476.82236537 -200.42938831 476.81069661 -205.38434386 476.78583002 C-214.750385 476.72075865 -224.11122988 476.54874134 -233.47499031 476.33749074 C-244.1418241 476.10210843 -254.8089169 475.98714443 -265.47770441 475.8818866 C-287.4082418 475.66284316 -309.3341131 475.29389473 -331.26064086 474.82509089 C-329.79852783 471.05777948 -328.11766034 467.75742806 -325.98720336 464.31727839 C-325.33356811 463.25815241 -324.67993285 462.19902643 -324.00649047 461.10780573 C-323.29968925 459.97180828 -322.59273582 458.83590552 -321.88564086 457.70009089 C-321.15566181 456.52136747 -320.42592794 455.34249218 -319.69643188 454.16346979 C-314.61418703 445.95954884 -309.47597561 437.7913275 -304.30751586 429.64149714 C-300.83076072 424.15495765 -297.38868777 418.6468854 -293.94814086 413.13759089 C-293.31770873 412.12809381 -292.6872766 411.11859674 -292.03774047 410.07850885 C-290.75303936 408.02096316 -289.46845341 405.96334557 -288.1839807 403.90565729 C-285.04474862 398.87762602 -281.90256935 393.85143748 -278.76064086 388.82509089 C-277.51062622 386.82510003 -276.26062624 384.82510003 -275.01064086 382.82509089 C-207.51064086 274.82509089 -207.51064086 274.82509089 -205.63515258 271.82435846 C-204.38672165 269.82683645 -203.13834913 267.82927793 -201.89003539 265.83168268 C-198.74150968 260.79346655 -195.59193193 255.7559136 -192.44032836 250.71962214 C-186.52660589 241.26736082 -180.62287575 231.80938803 -174.76064086 222.32509089 C-168.26636309 211.81823449 -161.72021578 201.34414362 -155.16786742 190.87343073 C-152.03022523 185.85850492 -148.89556953 180.84171323 -145.76064086 175.82509089 C-144.51065549 173.82508174 -143.26065549 171.82508174 -142.01064086 169.82509089 C-141.39189086 168.83509089 -140.77314086 167.84509089 -140.13564086 166.82509089 C-74.51064086 61.82509088 -74.51064086 61.82509088 -72.6346643 58.82362604 C-71.3878024 56.82858204 -70.14105714 54.83346513 -68.89442992 52.83827448 C-65.72238139 47.76183612 -62.54816057 42.68677775 -59.37001586 37.61415339 C-58.72355102 36.58161432 -58.07708617 35.54907526 -57.41103148 34.48524714 C-56.207388 32.56288128 -55.00304765 30.64095143 -53.79775023 28.71962214 C-53.23378539 27.81856745 -52.66982055 26.91751276 -52.08876586 25.98915339 C-51.18820212 24.66603144 -51.18820212 24.66603144 -50.26944518 23.31617975 C-48.63125792 20.72625011 -47.74743178 18.2846978 -46.89490294 15.34742975 C-39.86808352 -4.82198198 -17.57940439 -0.46549831 0 0 Z " fill="#BEBEBE" transform="translate(402.2606408596039,52.17490911483765)"/>
<path d="M0 0 C2.10956627 3.59133297 2.79519698 7.32657036 3.53218079 11.36993408 C3.74429773 12.49267885 3.74429773 12.49267885 3.96069986 13.63810533 C4.43568848 16.16036387 4.90199708 18.68415015 5.3684082 21.20800781 C5.70986836 23.03102593 6.05186267 24.85394408 6.39434624 26.67677021 C7.33694245 31.70205068 8.27199234 36.72871077 9.20590758 41.7556107 C10.21616957 47.18588496 11.23352824 52.61482972 12.25007629 58.04393005 C14.01590347 67.47993221 15.77740943 76.91673267 17.53594971 86.35409546 C20.32253149 101.30842726 23.11642003 116.26138854 25.91162109 131.21411133 C26.87210781 136.35254731 27.83254836 141.49099193 28.79296875 146.62944031 C29.15379394 148.5598737 29.15379394 148.5598737 29.52190852 150.52930576 C31.1326694 159.14751422 32.74241048 167.76591268 34.35163543 176.38440806 C41.14598913 212.77184497 47.96769026 249.1540725 54.80951875 285.5326119 C56.52114246 294.63346345 58.23195362 303.73446752 59.94239807 312.83554077 C60.20214689 314.21759719 60.46189648 315.59965347 60.72164685 316.9817096 C61.75158752 322.46174915 62.78151486 327.94179122 63.81139147 333.42184281 C64.57402685 337.47984691 65.33671567 341.53784097 66.09945679 345.5958252 C66.22456438 346.26143179 66.34967196 346.92703839 66.47857069 347.61281489 C68.49616031 358.34647638 70.51643138 369.07963166 72.53755113 379.81262892 C74.57204857 390.61709268 76.60312802 401.42219548 78.63106328 412.22789294 C79.73330095 418.10045726 80.83709095 423.97271928 81.94489479 429.84423637 C82.96015795 435.22534176 83.97129616 440.60720486 84.9791044 445.98971128 C85.34570169 447.9435038 85.71385071 449.89700589 86.0836674 451.85019159 C86.58470182 454.4976062 87.08018313 457.14600103 87.57424927 459.79472351 C87.72068715 460.56116147 87.86712503 461.32759943 88.01800042 462.11726278 C88.71161918 465.86933067 89 469.14882858 89 473 C30.26 473 -28.48 473 -89 473 C-98.23519671 424.51521729 -98.23519671 424.51521729 -101.91015625 405.1328125 C-102.25034129 403.33865088 -102.25034129 403.33865088 -102.59739876 401.50824356 C-103.98465011 394.19106027 -105.37136279 386.87377506 -106.75771266 379.55642092 C-107.61401251 375.03683249 -108.4705664 370.51729228 -109.32727516 365.99778134 C-112.99637192 346.64124325 -116.65971061 327.28363033 -120.31162453 307.92384243 C-121.90945314 299.45386848 -123.50940995 290.98430902 -125.11486816 282.51577759 C-126.49882663 275.215489 -127.87834755 267.91437902 -129.25225264 260.61219144 C-129.96266059 256.83716001 -130.67515954 253.06255381 -131.39312553 249.28895187 C-132.17942764 245.1557548 -132.95577191 241.02074876 -133.73120117 236.88549805 C-134.07921595 235.0687078 -134.07921595 235.0687078 -134.43426132 233.21521473 C-137.2490549 218.08465421 -137.2490549 218.08465421 -132.921875 211.296875 C-132.26179443 210.24419434 -131.60171387 209.19151367 -130.92163086 208.10693359 C-130.20499268 206.99914551 -129.48835449 205.89135742 -128.75 204.75 C-128.00970801 203.58115235 -127.27087142 202.41138173 -126.53344727 201.24072266 C-125.05510473 198.89937166 -123.56834091 196.56377157 -122.07275391 194.23339844 C-120.30002626 191.46802683 -118.54108224 188.69502394 -116.79296875 185.9140625 C-114.88393437 182.87744533 -112.96860442 179.84500546 -111.046875 176.81640625 C-107.57011986 171.32986676 -104.12804691 165.82179452 -100.6875 160.3125 C-100.05706787 159.30300293 -99.42663574 158.29350586 -98.77709961 157.25341797 C-97.4923985 155.19587228 -96.20781255 153.13825468 -94.92333984 151.08056641 C-91.78410777 146.05253513 -88.64192849 141.02634659 -85.5 136 C-84.24998536 134.00000915 -82.99998538 132.00000914 -81.75 130 C-64.25 102 -46.75 74 -29.25 46 C-28.6302832 45.00838867 -28.01056641 44.01677734 -27.37207031 42.99511719 C-26.13207038 41.01124667 -24.89183905 39.02752077 -23.65136719 37.04394531 C-20.37137505 31.79837601 -17.09638613 26.54976267 -13.828125 21.296875 C-12.80428711 19.65332031 -12.80428711 19.65332031 -11.75976562 17.9765625 C-10.44969283 15.87331638 -9.1410296 13.76919141 -7.83398438 11.6640625 C-6.94936523 10.24480469 -6.94936523 10.24480469 -6.046875 8.796875 C-5.52963867 7.96510742 -5.01240234 7.13333984 -4.47949219 6.27636719 C-3.07053302 4.10852308 -1.57723002 2.04769386 0 0 Z " fill="#767171" transform="translate(927,54)"/>
<path d="M0 0 C58.41 0 116.82 0 177 0 C177 97.35 177 194.7 177 295 C118.59 295 60.18 295 0 295 C0 197.65 0 100.3 0 0 Z " fill="#767171" transform="translate(1076,232)"/>
<path d="M0 0 C437.25 0 874.5 0 1325 0 C1325 195.03 1325 390.06 1325 591 C887.75 591 450.5 591 0 591 C0 395.97 0 200.94 0 0 Z M13 13 C13 199.45 13 385.9 13 578 C441.67 578 870.34 578 1312 578 C1312 391.55 1312 205.1 1312 13 C883.33 13 454.66 13 13 13 Z " fill="#F2F2F2" transform="translate(0,0)"/>
<path d="M0 0 C2.63694759 2.63694759 2.67349833 4.5266912 3.35441589 8.18727112 C3.53711445 9.15153933 3.53711445 9.15153933 3.72350389 10.1352877 C4.13199834 12.30183196 4.52918816 14.47029782 4.92651367 16.63891602 C5.21706527 18.19262063 5.50830679 19.74619637 5.80018616 21.2996521 C6.59738391 25.55354049 7.38477572 29.80919375 8.17054534 34.06520581 C9.00940252 38.59944286 9.85718154 43.13201163 10.70393372 47.66477966 C12.32501588 56.35020485 13.93798352 65.03711712 15.54815322 73.72457117 C16.79749882 80.4637452 18.0504814 87.2022328 19.30639648 93.94018555 C19.47974231 94.87026951 19.65308813 95.80035348 19.83168685 96.75862181 C20.70616028 101.44992315 21.58114741 106.14112832 22.4564991 110.83226585 C24.21088387 120.23874344 25.95565952 129.64685313 27.68209839 139.0585022 C28.37490599 142.82969248 29.06867242 146.60070512 29.76318359 150.37158203 C29.93442049 151.30171529 30.10565738 152.23184855 30.28208327 153.19016767 C32.57906017 165.64048505 34.99170642 178.06261172 37.51095486 190.46983051 C38.84627053 197.04671538 40.14905773 203.62992297 41.44451052 210.21476382 C42.48856236 215.504923 43.57638321 220.78345241 44.69902086 226.05745935 C45.378559 229.30284339 46.01470386 232.55565419 46.63941932 235.81199002 C46.93437919 237.30199968 47.24700131 238.78865137 47.57946801 240.27074313 C49.39116268 248.38901058 49.67127805 254.39295828 45.33317566 261.64967346 C43.92243438 263.78902278 42.47979555 265.90782132 41 268 C39.84999202 269.83138099 38.70749213 271.66753748 37.578125 273.51171875 C36.47196351 275.23904129 35.36254221 276.96428028 34.25 278.6875 C33.0244674 280.60008604 31.7992116 282.51284946 30.57421875 284.42578125 C29.9714209 285.36502441 29.36862305 286.30426758 28.74755859 287.27197266 C26.16970557 291.2961316 23.61337528 295.3337014 21.0625 299.375 C20.58111572 300.13748047 20.09973145 300.89996094 19.60375977 301.68554688 C13.68074234 311.07832996 7.80340913 320.49973201 1.92333984 329.91943359 C-1.21589223 334.94746487 -4.35807151 339.97365341 -7.5 345 C-8.75001464 346.99999085 -10.00001462 348.99999086 -11.25 351 C-23.75 371 -36.25 391 -48.75 411 C-49.67848755 412.48560425 -49.67848755 412.48560425 -50.62573242 414.0012207 C-51.87323247 415.99718828 -53.12079088 417.99311939 -54.3684082 419.98901367 C-57.53214182 425.05040916 -60.69479561 430.11247394 -63.85546875 435.17578125 C-66.96989112 440.16478175 -70.08909583 445.15077006 -73.20996094 450.13574219 C-74.99120383 452.98592517 -76.76548374 455.84035574 -78.5390625 458.6953125 C-79.63001113 460.44283146 -80.72114695 462.19023358 -81.8125 463.9375 C-82.31031982 464.74292236 -82.80813965 465.54834473 -83.32104492 466.37817383 C-84.00710815 467.47295044 -84.00710815 467.47295044 -84.70703125 468.58984375 C-85.1038208 469.22784912 -85.50061035 469.86585449 -85.90942383 470.52319336 C-87 472 -87 472 -89 473 C-91.63149104 462.20018899 -93.70135752 451.32203228 -95.73364258 440.3972168 C-96.09849384 438.44720118 -96.4635876 436.49723092 -96.8289032 434.54730225 C-97.81501717 429.28001805 -98.79776596 424.01211108 -99.77989793 418.74408317 C-100.81609302 413.18935285 -101.85544813 407.63521385 -102.89445496 402.08100891 C-104.86561074 391.54122322 -106.83398943 381.0009209 -108.80134457 370.4604252 C-111.01762085 358.58697306 -113.23685087 346.71407368 -115.45640337 334.84123361 C-117.97693983 321.35830492 -120.49746631 307.87537434 -123.01535124 294.39195019 C-123.40496291 292.30559588 -123.7946343 290.21925273 -124.18436772 288.13292116 C-125.11140617 283.16987754 -126.0375154 278.20666471 -126.96142292 273.24303722 C-128.57637368 264.57300806 -130.20477687 255.90621381 -131.87924194 247.24746704 C-132.3037668 245.03818085 -132.72775741 242.82879288 -133.15154588 240.61936533 C-133.53386686 238.63914625 -133.92415333 236.66047012 -134.31477833 234.68187237 C-137.46850463 218.23643698 -137.46850463 218.23643698 -133.24609375 211.8125 C-132.34697266 210.41257812 -132.34697266 210.41257812 -131.4296875 208.984375 C-130.77226562 207.99953125 -130.11484375 207.0146875 -129.4375 206 C-128.05030627 203.85447369 -126.66360096 201.70863153 -125.27734375 199.5625 C-124.56433105 198.47195312 -123.85131836 197.38140625 -123.11669922 196.2578125 C-119.84063825 191.21562593 -116.67314801 186.10731735 -113.5 181 C-112.25058613 178.99963379 -111.00058428 176.9996347 -109.75 175 C-109.13125 174.01 -108.5125 173.02 -107.875 172 C-102.25 163 -102.25 163 -100.37451172 159.99926758 C-99.12608079 158.00174557 -97.87770827 156.00418705 -96.62939453 154.0065918 C-93.48086882 148.96837566 -90.33129107 143.93082272 -87.1796875 138.89453125 C-81.26596504 129.44226993 -75.36223489 119.98429715 -69.5 110.5 C-63.00572223 99.99314361 -56.45957493 89.51905273 -49.90722656 79.04833984 C-46.76958437 74.03341404 -43.63492867 69.01662235 -40.5 64 C-39.25001463 61.99999085 -38.00001463 59.99999086 -36.75 58 C-36.13125 57.01 -35.5125 56.02 -34.875 55 C-33 52 -31.125 49 -29.25 46 C-28.6302832 45.00838867 -28.01056641 44.01677734 -27.37207031 42.99511719 C-26.13207038 41.01124667 -24.89183905 39.02752077 -23.65136719 37.04394531 C-20.37137505 31.79837601 -17.09638613 26.54976267 -13.828125 21.296875 C-12.80428711 19.65332031 -12.80428711 19.65332031 -11.75976562 17.9765625 C-10.44969283 15.87331638 -9.1410296 13.76919141 -7.83398438 11.6640625 C-6.94936523 10.24480469 -6.94936523 10.24480469 -6.046875 8.796875 C-5.52963867 7.96510742 -5.01240234 7.13333984 -4.47949219 6.27636719 C-3.07053302 4.10852308 -1.57723002 2.04769386 0 0 Z " fill="#767171" transform="translate(543,54)"/>
<path d="M0 0 C58.41 0 116.82 0 177 0 C177 38.94 177 77.88 177 118 C118.59 118 60.18 118 0 118 C0 79.06 0 40.12 0 0 Z " fill="#BFBFBF" transform="translate(1076,55)"/>
</svg>
