<?xml version="1.0" encoding="utf-8"?>
<!DOCTYPE svg PUBLIC "-//W3C//DTD SVG 20010904//EN" "http://www.w3.org/TR/2001/REC-SVG-20010904/DTD/svg10.dtd">
<svg version="1.0" xmlns="http://www.w3.org/2000/svg" width="202pt" height="202pt" viewBox="0 0 202 202" style="" preserveAspectRatio="xMidYMid meet">
<g fill="#FFFFFFFF" stroke="#FFFFFFFF">
<path d="M 1.000 101.000 L 1.000 201.000 101.000 201.000 L 201.000 201.000 201.000 101.000 L 201.000 1.000 101.000 1.000 L 1.000 1.000 1.000 101.000 M 116.740 47.250 C 117.282 47.938 119.320 53.225 121.269 59.000 C 129.105 82.210 139.289 111.948 141.989 119.500 C 145.862 130.330 152.642 149.974 153.475 152.778 L 154.152 155.056 139.953 154.778 L 125.754 154.500 122.412 143.585 C 120.575 137.582 118.684 132.284 118.210 131.810 C 117.737 131.337 109.767 131.074 100.500 131.225 L 83.650 131.500 80.000 143.000 L 76.351 154.500 62.676 154.778 C 50.800 155.020 49.000 154.850 49.000 153.487 C 49.000 152.624 51.214 145.524 53.921 137.709 C 56.628 129.894 61.611 115.400 64.995 105.500 C 75.482 74.824 84.897 47.976 85.521 46.966 C 86.457 45.452 115.532 45.717 116.740 47.250 M 70.337 9.750 C 70.588 10.163 69.783 13.200 68.549 16.500 L 66.305 22.500 45.169 23.000 L 24.033 23.500 20.767 26.769 L 17.500 30.038 17.235 99.269 C 16.983 165.208 17.059 168.666 18.836 172.000 C 19.863 173.925 21.824 176.053 23.196 176.730 C 25.036 177.638 36.145 177.976 65.603 178.022 C 87.557 178.056 106.149 178.474 106.920 178.951 C 108.103 179.681 108.016 180.731 106.363 185.659 L 104.405 191.500 63.424 191.500 L 22.443 191.500 17.481 188.945 C 11.808 186.025 6.540 179.718 5.002 174.006 C 4.298 171.393 4.040 146.251 4.224 98.211 L 4.500 26.325 8.240 20.694 C 11.954 15.101 15.288 12.600 22.000 10.372 C 25.924 9.069 69.583 8.508 70.337 9.750 M 181.205 10.554 C 187.560 12.720 193.309 17.966 195.883 23.950 C 198.049 28.985 198.050 29.025 197.775 102.244 C 197.511 172.687 197.426 175.615 195.568 178.500 C 192.341 183.511 188.704 187.073 184.500 189.342 C 180.770 191.354 178.860 191.521 156.250 191.814 C 137.594 192.056 132.000 191.846 132.000 190.902 C 132.000 190.228 132.742 187.323 133.648 184.447 C 135.277 179.281 135.353 179.211 139.998 178.595 C 142.583 178.252 151.998 178.009 160.920 178.054 C 174.394 178.123 177.567 177.859 179.654 176.491 C 185.044 172.960 185.000 173.581 185.000 100.597 C 185.000 58.502 184.628 32.151 184.010 30.527 C 183.466 29.095 181.825 26.816 180.364 25.462 L 177.708 23.000 135.854 23.000 C 112.834 23.000 94.000 22.637 94.000 22.194 C 94.000 21.751 94.941 18.601 96.092 15.194 L 98.184 9.000 137.414 9.000 C 170.270 9.000 177.385 9.253 181.205 10.554 "/></g>
<g fill="#018868FF" stroke="#018868FF">
<path d="M 84.968 48.584 C 84.428 50.005 84.283 51.650 84.647 52.238 C 85.039 52.872 84.838 53.018 84.155 52.595 C 83.458 52.165 82.932 52.600 82.829 53.691 C 82.534 56.809 82.219 58.519 82.036 58.000 C 81.939 57.725 81.221 59.239 80.442 61.365 C 79.662 63.492 79.271 65.629 79.571 66.115 C 79.872 66.602 79.593 67.000 78.952 67.000 C 78.311 67.000 78.045 67.675 78.362 68.500 C 78.678 69.325 78.453 70.000 77.862 70.000 C 77.270 70.000 77.045 70.675 77.362 71.500 C 77.678 72.325 77.453 73.000 76.862 73.000 C 76.270 73.000 76.034 73.646 76.337 74.435 C 76.640 75.225 76.538 76.012 76.110 76.185 C 74.928 76.664 68.899 94.027 69.549 95.080 C 69.862 95.586 69.593 96.000 68.952 96.000 C 68.311 96.000 68.045 96.675 68.362 97.500 C 68.678 98.325 68.453 99.000 67.862 99.000 C 67.270 99.000 67.045 99.675 67.362 100.500 C 67.678 101.325 67.537 102.000 67.048 102.000 C 66.301 102.000 65.033 105.582 64.394 109.500 C 64.304 110.050 64.147 110.275 64.045 110.000 C 63.943 109.725 63.221 111.239 62.442 113.365 C 61.662 115.492 61.247 117.591 61.519 118.030 C 61.790 118.470 61.518 118.994 60.914 119.195 C 60.310 119.397 59.745 120.785 59.658 122.280 C 59.571 123.775 59.114 124.999 58.643 124.999 C 58.172 125.000 58.045 125.675 58.362 126.500 C 58.678 127.325 58.453 128.000 57.862 128.000 C 57.270 128.000 57.045 128.675 57.362 129.500 C 57.678 130.325 57.453 131.000 56.862 131.000 C 56.270 131.000 56.034 131.646 56.337 132.435 C 56.640 133.225 56.421 134.026 55.852 134.216 C 55.282 134.406 54.745 135.785 54.658 137.280 C 54.571 138.775 54.251 139.999 53.948 139.999 C 52.864 140.001 49.843 149.938 50.569 151.112 C 51.037 151.869 50.884 152.047 50.155 151.595 C 49.425 151.144 49.000 151.639 49.000 152.941 C 49.000 154.918 49.537 155.000 62.559 155.000 C 71.344 155.000 75.900 154.648 75.500 154.000 C 75.160 153.450 75.407 153.000 76.048 153.000 C 76.689 153.000 76.955 152.325 76.638 151.500 C 76.322 150.675 76.547 150.000 77.138 150.000 C 77.730 150.000 77.955 149.325 77.638 148.500 C 77.322 147.675 77.547 147.000 78.138 147.000 C 78.730 147.000 78.955 146.325 78.638 145.500 C 78.322 144.675 78.527 144.000 79.094 144.000 C 79.662 144.000 80.046 143.213 79.948 142.250 C 79.850 141.288 79.841 140.725 79.929 141.000 C 80.016 141.275 80.738 139.700 81.533 137.500 C 82.328 135.300 82.773 132.938 82.521 132.250 C 82.165 131.279 86.163 131.000 100.452 131.000 L 118.841 131.000 119.500 134.000 C 119.862 135.650 120.559 137.000 121.048 137.000 C 121.537 137.000 121.678 137.675 121.362 138.500 C 121.045 139.325 121.270 140.000 121.862 140.000 C 122.453 140.000 122.678 140.675 122.362 141.500 C 122.045 142.325 122.270 143.000 122.862 143.000 C 123.453 143.000 123.678 143.675 123.362 144.500 C 123.045 145.325 123.311 146.000 123.952 146.000 C 124.593 146.000 124.883 146.380 124.597 146.844 C 124.310 147.308 124.529 149.333 125.084 151.344 L 126.094 155.000 139.447 155.000 L 152.801 155.000 152.580 151.810 C 152.458 150.055 151.854 148.451 151.236 148.245 C 150.618 148.039 150.360 147.225 150.663 146.435 C 150.966 145.646 150.730 145.000 150.138 145.000 C 149.547 145.000 149.322 144.325 149.638 143.500 C 149.955 142.675 149.828 142.000 149.357 141.999 C 148.886 141.999 148.431 140.815 148.348 139.369 C 148.264 137.922 147.814 136.460 147.348 136.119 C 146.881 135.779 146.374 134.375 146.221 133.000 C 146.067 131.625 145.530 130.358 145.027 130.185 C 144.524 130.012 144.389 129.151 144.726 128.271 C 145.167 127.123 144.966 126.903 144.015 127.490 C 143.117 128.046 142.929 127.924 143.431 127.111 C 144.187 125.889 139.201 110.757 137.854 110.185 C 137.446 110.012 137.360 109.225 137.663 108.435 C 137.966 107.646 137.689 107.000 137.048 107.000 C 136.407 107.000 136.135 106.590 136.445 106.090 C 137.014 105.169 131.317 87.923 130.138 87.000 C 129.787 86.725 129.374 85.375 129.221 84.000 C 129.067 82.625 128.530 81.358 128.027 81.185 C 127.524 81.012 127.360 80.225 127.663 79.435 C 127.966 78.646 127.689 78.000 127.048 78.000 C 126.407 78.000 126.124 77.609 126.419 77.131 C 127.207 75.856 122.584 62.749 121.670 63.663 C 121.243 64.090 121.191 63.665 121.554 62.720 C 121.926 61.750 121.745 61.000 121.138 61.000 C 120.547 61.000 120.322 60.325 120.638 59.500 C 120.955 58.675 120.730 58.000 120.138 58.000 C 119.547 58.000 119.322 57.325 119.638 56.500 C 119.955 55.675 119.730 55.000 119.138 55.000 C 118.547 55.000 118.322 54.325 118.638 53.500 C 118.955 52.675 118.730 52.000 118.138 52.000 C 117.547 52.000 117.300 51.383 117.589 50.629 C 117.878 49.875 117.302 48.901 116.307 48.465 C 115.242 47.998 115.047 47.637 115.833 47.586 C 116.567 47.539 116.829 47.163 116.417 46.750 C 116.004 46.338 108.981 46.000 100.809 46.000 L 85.950 46.000 84.968 48.584 M 103.000 82.500 C 103.693 84.975 104.539 87.000 104.880 87.001 C 105.221 87.001 105.571 88.225 105.658 89.720 C 105.745 91.215 106.310 92.603 106.914 92.805 C 107.518 93.006 107.806 93.506 107.553 93.915 C 106.973 94.852 109.651 103.874 110.986 105.483 C 111.534 106.144 111.687 106.980 111.325 107.342 C 110.400 108.267 94.762 108.136 93.274 107.191 C 91.919 106.330 91.992 100.005 93.357 100.002 C 93.828 100.001 93.955 99.325 93.638 98.500 C 93.322 97.675 93.427 97.000 93.873 97.000 C 94.980 97.000 97.241 89.199 96.487 87.979 C 96.154 87.441 96.407 87.000 97.048 87.000 C 97.691 87.000 97.947 86.304 97.618 85.448 C 97.277 84.558 97.445 84.157 98.011 84.507 C 98.889 85.050 99.404 82.897 99.269 79.250 C 99.243 78.563 99.789 78.000 100.481 78.000 C 101.174 78.000 102.307 80.025 103.000 82.500 "/></g>
<g fill="#018868FF" stroke="#018868FF">
<path d="M 98.583 9.750 C 98.171 10.163 98.433 10.539 99.167 10.586 C 99.953 10.637 99.758 10.998 98.693 11.465 C 97.698 11.901 97.122 12.875 97.411 13.629 C 97.700 14.383 97.453 15.000 96.862 15.000 C 96.270 15.000 96.054 15.698 96.382 16.552 C 96.765 17.551 96.573 17.854 95.843 17.403 C 95.050 16.913 94.909 17.502 95.375 19.358 C 95.847 21.238 95.670 21.941 94.771 21.764 C 94.072 21.626 94.176 21.853 95.001 22.268 C 95.827 22.683 114.727 22.905 137.001 22.762 L 177.500 22.500 180.500 25.661 C 182.150 27.400 183.950 29.425 184.500 30.161 C 185.748 31.831 185.889 170.000 184.643 170.000 C 184.172 170.000 184.054 170.698 184.382 171.552 C 184.723 172.442 184.555 172.843 183.989 172.493 C 183.445 172.157 182.944 172.359 182.875 172.941 C 182.806 173.523 182.694 174.563 182.625 175.250 C 182.556 175.938 181.938 176.556 181.250 176.625 C 180.563 176.694 179.475 176.806 178.833 176.875 C 178.192 176.944 177.970 177.303 178.340 177.673 C 179.503 178.836 174.093 179.257 154.500 179.527 C 137.762 179.757 135.517 179.980 135.639 181.394 C 135.715 182.277 135.330 183.000 134.782 183.000 C 134.234 183.000 134.034 183.646 134.337 184.435 C 134.640 185.225 134.496 186.012 134.018 186.185 C 133.539 186.358 132.853 187.850 132.493 189.500 C 131.997 191.774 132.096 192.137 132.904 191.000 C 133.627 189.982 133.974 189.902 133.985 190.750 C 133.996 191.711 138.975 192.000 155.500 192.000 C 167.686 192.000 177.000 191.607 177.000 191.094 C 177.000 190.595 177.900 190.423 179.000 190.710 C 180.162 191.014 181.000 190.741 181.000 190.058 C 181.000 189.411 181.414 189.138 181.919 189.450 C 182.425 189.763 183.534 189.323 184.384 188.473 C 185.233 187.624 186.129 187.057 186.374 187.214 C 186.619 187.371 187.872 186.261 189.159 184.746 C 190.727 182.902 191.170 182.671 190.500 184.045 C 189.950 185.174 190.977 184.188 192.782 181.854 C 194.588 179.520 195.830 177.000 195.544 176.253 C 195.222 175.415 195.461 175.167 196.169 175.604 C 196.948 176.086 197.135 175.623 196.751 174.156 C 196.441 172.970 196.604 172.000 197.113 172.000 C 198.600 172.000 197.796 26.765 196.306 26.269 C 195.650 26.050 195.356 25.235 195.655 24.457 C 195.955 23.675 194.848 21.694 193.176 20.022 C 191.514 18.360 190.405 17.000 190.712 17.000 C 191.019 17.000 190.110 16.088 188.693 14.973 C 184.849 11.950 179.123 9.826 176.801 10.563 C 175.432 10.998 174.977 10.846 175.434 10.107 C 176.225 8.826 99.862 8.471 98.583 9.750 "/></g>
<g fill="#018868FF" stroke="#018868FF">
<path d="M 27.000 10.067 C 27.000 10.666 26.154 10.866 25.073 10.523 C 22.795 9.800 16.000 12.410 16.000 14.008 C 16.000 14.619 15.621 14.884 15.158 14.598 C 14.149 13.974 8.274 19.881 7.820 21.976 C 7.644 22.788 6.912 24.084 6.192 24.855 C 5.473 25.627 5.116 26.860 5.399 27.597 C 5.681 28.333 5.482 29.202 4.956 29.527 C 3.594 30.369 3.686 168.331 5.053 173.250 C 5.625 175.313 6.549 177.000 7.106 177.000 C 7.663 177.000 7.847 177.439 7.515 177.975 C 6.757 179.202 14.916 188.170 16.116 187.428 C 16.602 187.128 17.000 187.385 17.000 188.000 C 17.000 188.615 17.412 188.864 17.915 188.553 C 18.418 188.242 18.988 188.464 19.182 189.047 C 19.959 191.376 29.118 191.953 65.643 191.976 C 99.601 191.997 103.853 191.826 104.396 190.410 C 104.732 189.535 104.753 188.410 104.444 187.910 C 104.135 187.409 104.407 187.000 105.048 187.000 C 105.689 187.000 105.966 186.354 105.663 185.565 C 105.360 184.775 105.478 183.988 105.924 183.815 C 106.370 183.642 107.015 182.600 107.356 181.500 C 107.969 179.523 107.516 179.500 68.738 179.499 C 47.157 179.498 28.390 179.273 27.032 178.999 C 23.754 178.336 21.252 176.247 18.647 172.000 L 16.500 168.500 17.000 99.500 C 17.275 61.550 17.725 29.825 18.000 29.000 C 18.275 28.175 19.738 26.668 21.250 25.652 C 22.763 24.635 24.000 23.510 23.999 23.152 C 23.999 22.793 33.562 22.500 45.249 22.500 C 63.472 22.500 66.500 22.286 66.500 21.000 C 66.500 20.175 66.826 19.255 67.225 18.956 C 67.624 18.657 68.074 17.307 68.225 15.956 C 68.376 14.605 68.903 13.208 69.396 12.851 C 69.888 12.494 70.015 11.481 69.677 10.601 C 69.141 9.203 66.393 9.000 48.031 9.000 C 33.792 9.000 27.000 9.345 27.000 10.067 "/></g>
<g fill="#FFFFFFFF" stroke="#FFFFFFFF">
<path d="M 96.513 91.221 C 94.392 97.974 92.474 104.030 92.250 104.677 C 91.962 105.509 94.507 105.949 100.923 106.177 C 105.918 106.355 110.004 106.121 110.002 105.657 C 109.997 103.573 102.627 81.365 101.562 80.221 C 100.624 79.214 99.547 81.562 96.513 91.221 "/></g>
</svg>
