<?xml version="1.0" encoding="utf-8"?>
<!DOCTYPE svg PUBLIC "-//W3C//DTD SVG 20010904//EN" "http://www.w3.org/TR/2001/REC-SVG-20010904/DTD/svg10.dtd">
<svg version="1.0" xmlns="http://www.w3.org/2000/svg" width="227pt" height="226pt" viewBox="0 0 227 226" style="" preserveAspectRatio="xMidYMid meet">
<g fill="#FFFFFFFF" stroke="#FFFFFFFF">
<path d="M 1.000 113.000 L 1.000 225.000 113.500 225.000 L 226.000 225.000 226.000 113.000 L 226.000 1.000 113.500 1.000 L 1.000 1.000 1.000 113.000 M 132.500 13.119 C 159.584 19.807 182.252 41.848 190.000 69.027 C 192.645 78.306 193.614 94.147 192.122 103.702 C 189.546 120.190 180.822 137.122 168.805 148.954 C 165.428 152.279 162.290 155.000 161.832 155.000 C 160.950 155.000 160.792 151.784 160.991 137.886 L 161.114 129.273 156.024 128.598 C 153.225 128.226 150.451 128.221 149.860 128.586 C 149.140 129.032 149.026 128.467 149.515 126.875 C 150.725 122.936 152.049 122.000 156.410 122.000 C 159.822 122.000 160.601 121.648 160.721 120.050 C 160.847 118.383 160.116 118.056 155.684 117.800 C 151.267 117.544 150.500 117.204 150.500 115.500 C 150.500 113.792 151.267 113.456 155.750 113.198 C 159.527 112.980 161.000 112.489 161.000 111.448 C 161.000 110.651 160.213 109.968 159.250 109.930 C 157.745 109.869 157.780 109.732 159.500 108.952 C 160.993 108.275 160.297 108.090 156.751 108.224 C 151.322 108.428 148.945 106.895 150.607 104.261 C 151.404 102.998 152.829 102.649 156.311 102.863 L 160.952 103.148 160.911 77.574 C 160.872 53.879 160.746 52.072 159.185 52.983 C 155.871 54.917 152.823 57.989 152.491 59.730 C 152.171 61.407 151.906 61.196 151.625 59.040 C 151.556 58.511 149.511 59.861 147.080 62.040 C 144.464 64.384 141.608 66.028 140.080 66.068 C 138.661 66.106 133.788 66.078 129.250 66.006 L 121.000 65.876 121.000 69.438 C 121.000 72.571 120.699 73.000 118.500 73.000 C 116.347 73.000 116.000 72.549 115.998 69.750 C 115.996 66.754 115.724 66.481 112.518 66.252 C 109.207 66.016 109.056 66.147 109.385 68.969 C 109.610 70.906 109.098 72.506 107.909 73.582 C 106.234 75.098 105.958 75.101 104.477 73.620 C 103.591 72.734 102.828 70.653 102.781 68.996 C 102.734 67.338 102.201 66.040 101.598 66.110 C 97.675 66.565 81.046 65.862 81.250 65.250 C 81.387 64.838 81.163 64.388 80.750 64.250 C 80.338 64.113 79.084 63.084 77.964 61.964 C 76.843 60.843 75.424 60.238 74.809 60.618 C 74.143 61.030 73.970 60.858 74.381 60.192 C 75.288 58.724 67.518 53.562 65.903 54.560 C 65.159 55.020 64.950 54.890 65.362 54.224 C 65.731 53.627 65.558 52.845 64.978 52.486 C 64.246 52.034 64.012 59.589 64.212 77.167 L 64.500 102.500 69.785 102.618 C 72.692 102.683 75.296 102.963 75.572 103.239 C 75.849 103.515 75.583 104.822 74.981 106.142 C 74.039 108.210 73.331 108.489 69.857 108.158 C 65.391 107.732 63.604 108.806 64.574 111.333 C 65.034 112.530 66.422 113.000 69.500 113.000 C 72.219 113.000 73.979 113.504 74.315 114.378 C 75.100 116.425 73.007 118.000 69.500 118.000 C 67.795 118.000 65.883 118.517 65.251 119.149 C 64.385 120.015 65.261 120.331 68.801 120.431 C 71.385 120.504 72.488 120.662 71.250 120.782 C 70.013 120.902 69.000 121.502 69.000 122.117 C 69.000 122.762 70.033 123.036 71.450 122.765 C 72.946 122.479 74.102 122.822 74.419 123.648 C 75.464 126.372 73.789 127.841 68.871 128.518 L 63.892 129.203 64.196 142.103 C 64.421 151.672 64.189 155.003 63.294 155.002 C 61.051 154.998 50.306 143.545 45.195 135.709 C 35.163 120.327 31.326 105.669 32.315 86.500 C 32.896 75.229 34.314 69.027 38.715 58.500 C 45.744 41.688 61.406 25.678 78.330 18.005 C 95.932 10.023 113.537 8.435 132.500 13.119 M 43.452 192.415 C 47.479 194.098 49.000 196.583 49.000 201.480 C 49.000 207.966 40.599 212.961 34.423 210.147 C 32.151 209.112 32.000 208.542 32.000 200.989 C 32.000 193.572 32.178 192.864 34.250 192.031 C 37.497 190.726 39.621 190.815 43.452 192.415 M 106.554 196.775 L 110.000 201.288 110.000 196.810 C 110.000 191.649 110.380 191.025 113.094 191.735 C 114.909 192.210 115.048 192.999 114.786 201.365 C 114.427 212.813 112.906 213.742 107.938 205.545 C 106.090 202.495 104.223 200.000 103.789 200.000 C 103.355 200.000 103.000 202.475 103.000 205.500 C 103.000 210.333 102.758 211.000 101.000 211.000 C 99.135 211.000 99.000 210.333 99.000 201.094 C 99.000 191.593 99.084 191.209 101.054 191.724 C 102.184 192.020 104.659 194.292 106.554 196.775 M 93.811 198.039 C 96.218 200.281 96.628 203.939 94.850 207.316 C 93.386 210.098 92.061 210.966 89.250 210.985 C 87.672 210.995 87.000 211.597 87.000 213.000 C 87.000 214.441 86.333 215.000 84.615 215.000 C 82.282 215.000 82.230 214.806 82.234 206.250 C 82.236 201.438 82.436 197.163 82.678 196.750 C 83.656 195.083 91.630 196.006 93.811 198.039 M 78.443 198.223 C 79.299 199.445 80.000 201.470 80.000 202.723 C 80.000 204.713 79.496 205.000 76.000 205.000 C 73.800 205.000 72.000 205.484 72.000 206.075 C 72.000 206.689 73.396 207.011 75.250 206.825 C 77.942 206.556 78.500 206.844 78.500 208.500 C 78.500 211.366 72.226 211.813 68.973 209.179 C 66.005 206.776 65.739 201.051 68.455 198.050 C 71.028 195.207 76.396 195.299 78.443 198.223 M 180.930 196.936 C 181.817 197.497 182.526 200.127 182.796 203.854 L 183.231 209.866 179.539 210.559 C 170.159 212.318 166.344 204.375 175.096 201.306 L 178.500 200.113 175.250 200.056 C 172.685 200.012 172.000 199.578 172.000 198.000 C 172.000 196.353 172.662 196.003 175.750 196.015 C 177.813 196.024 180.144 196.438 180.930 196.936 M 62.337 197.257 C 63.283 197.949 64.157 199.862 64.279 201.507 C 64.489 204.348 64.271 204.528 60.000 205.059 C 56.671 205.473 55.959 205.828 57.265 206.422 C 58.236 206.864 59.884 207.002 60.929 206.729 C 63.254 206.121 64.540 209.579 62.308 210.435 C 54.551 213.412 47.289 203.711 53.000 198.000 C 55.262 195.738 59.769 195.380 62.337 197.257 M 128.965 197.934 C 129.534 198.998 130.000 202.096 130.000 204.818 C 130.000 209.105 129.699 209.847 127.750 210.370 C 123.718 211.450 121.037 211.037 119.024 209.024 C 116.303 206.303 117.676 202.862 122.103 201.306 L 125.500 200.113 122.250 200.056 C 119.685 200.012 119.000 199.578 119.000 198.000 C 119.000 196.299 119.667 196.000 123.465 196.000 C 126.856 196.000 128.179 196.465 128.965 197.934 M 149.198 201.241 C 149.431 205.291 149.897 206.557 151.250 206.814 C 152.747 207.099 153.000 206.341 153.000 201.573 C 153.000 196.667 153.239 196.000 155.000 196.000 C 156.807 196.000 157.000 196.667 157.000 202.893 C 157.000 210.356 156.522 211.000 150.990 211.000 C 146.523 211.000 145.000 208.693 145.000 201.929 C 145.000 196.720 145.236 196.000 146.948 196.000 C 148.592 196.000 148.943 196.817 149.198 201.241 M 137.000 194.000 C 137.000 195.467 137.667 196.000 139.500 196.000 C 141.333 196.000 142.000 196.533 142.000 198.000 C 142.000 199.467 141.333 200.000 139.500 200.000 C 137.702 200.000 137.000 200.539 137.000 201.918 C 137.000 205.110 138.116 207.000 140.000 207.000 C 141.815 207.000 143.354 209.312 142.264 210.402 C 141.074 211.592 136.106 210.963 134.571 209.429 C 133.431 208.289 133.000 205.864 133.000 200.595 C 133.000 196.601 133.300 193.033 133.667 192.667 C 135.043 191.290 137.000 192.073 137.000 194.000 M 119.122 109.000 C 119.948 109.000 119.950 109.355 119.131 110.342 C 118.519 111.080 118.313 111.980 118.675 112.342 C 119.037 112.704 118.164 113.000 116.734 113.000 C 113.838 113.000 112.013 116.413 113.901 118.301 C 114.505 118.905 115.000 120.219 115.000 121.219 C 115.000 122.697 114.484 122.914 112.250 122.378 C 108.686 121.523 108.391 121.209 109.817 119.783 C 110.468 119.133 111.000 117.371 111.000 115.870 C 111.000 113.799 110.456 113.062 108.750 112.820 C 107.322 112.617 106.386 111.696 106.187 110.299 C 105.896 108.257 106.327 108.077 112.187 107.799 C 115.659 107.635 118.388 107.838 118.250 108.250 C 118.113 108.663 118.505 109.000 119.122 109.000 M 170.000 196.418 C 170.000 198.226 168.461 200.000 166.893 200.000 C 165.291 200.000 165.000 200.760 165.000 204.941 C 165.000 210.140 164.211 211.402 161.590 210.396 C 160.372 209.929 160.000 208.329 160.000 203.560 C 160.000 200.135 160.300 197.033 160.667 196.667 C 161.383 195.951 170.000 195.721 170.000 196.418 M 190.000 197.941 C 190.000 202.309 190.450 206.160 191.000 206.500 C 192.337 207.326 192.283 211.000 190.934 211.000 C 190.348 211.000 188.998 210.534 187.934 209.965 C 186.231 209.053 186.000 207.799 186.000 199.465 C 186.000 190.667 186.141 190.000 188.000 190.000 C 189.832 190.000 190.000 190.667 190.000 197.941 M 95.384 92.444 C 94.997 91.375 95.043 90.828 95.486 91.229 C 95.928 91.629 96.395 93.900 96.523 96.275 C 96.747 100.429 96.640 100.602 93.705 100.826 C 89.028 101.182 87.232 96.398 90.750 92.955 C 92.346 91.393 92.658 91.380 94.293 92.815 C 95.950 94.268 96.033 94.240 95.384 92.444 M 135.263 94.385 C 135.683 94.998 135.837 96.287 135.607 97.249 C 135.376 98.211 135.661 99.291 136.240 99.649 C 137.585 100.480 132.073 101.122 129.750 100.405 C 127.709 99.776 127.351 95.049 129.203 93.197 C 130.506 91.894 134.032 92.585 135.263 94.385 M 147.200 114.200 C 146.267 115.133 146.000 115.133 146.000 114.200 C 146.000 113.540 146.540 113.000 147.200 113.000 C 148.133 113.000 148.133 113.267 147.200 114.200 M 114.024 73.000 C 113.390 73.000 113.212 72.466 113.624 71.799 C 114.202 70.865 114.455 70.865 114.766 71.799 C 114.987 72.460 114.653 73.000 114.024 73.000 M 53.378 37.378 L 54.256 36.500 53.378 37.378 L 52.500 38.256 53.378 37.378 "/></g>
<g fill="#596DA8FF" stroke="#596DA8FF">
<path d="M 111.932 10.357 C 111.541 10.707 99.523 11.940 96.083 11.982 C 95.304 11.992 94.989 12.322 95.383 12.716 C 95.776 13.110 94.839 13.501 93.299 13.586 C 87.386 13.911 86.900 14.029 87.493 14.989 C 87.843 15.555 87.442 15.723 86.552 15.382 C 85.696 15.053 85.000 15.309 85.000 15.952 C 85.000 16.593 84.605 16.874 84.121 16.575 C 83.256 16.040 76.975 18.703 76.000 20.018 C 75.725 20.389 74.244 21.000 72.709 21.375 C 70.997 21.795 70.187 22.494 70.614 23.184 C 70.996 23.803 70.874 24.040 70.342 23.711 C 69.221 23.018 63.795 26.323 63.917 27.624 C 63.963 28.106 63.438 28.500 62.750 28.500 C 62.063 28.500 61.500 29.100 61.500 29.833 C 61.500 30.567 61.163 30.829 60.750 30.417 C 60.338 30.004 60.000 30.192 60.000 30.833 C 60.000 31.475 59.571 31.888 59.047 31.750 C 57.715 31.401 47.912 42.049 48.576 43.123 C 48.874 43.605 48.641 44.000 48.059 44.000 C 47.477 44.000 47.112 44.563 47.250 45.250 C 47.387 45.938 46.986 46.404 46.357 46.286 C 44.797 45.993 36.612 62.563 37.559 64.095 C 38.009 64.824 37.891 65.050 37.261 64.661 C 36.144 63.971 34.583 68.516 35.453 69.925 C 35.736 70.382 35.199 72.274 34.260 74.129 C 30.893 80.774 32.728 116.523 36.321 114.301 C 36.953 113.911 37.076 114.359 36.646 115.481 C 36.213 116.608 36.620 118.053 37.726 119.317 C 38.702 120.432 38.943 121.018 38.261 120.620 C 37.426 120.132 37.216 120.399 37.616 121.442 C 37.943 122.293 38.649 122.717 39.186 122.385 C 39.723 122.053 40.038 122.618 39.886 123.641 C 39.569 125.772 43.407 133.636 45.028 134.176 C 45.622 134.374 46.275 135.428 46.478 136.518 C 46.931 138.949 47.211 139.363 47.375 137.846 C 47.454 137.120 47.959 137.246 48.741 138.188 C 49.424 139.011 49.706 139.960 49.369 140.298 C 48.559 141.107 57.136 149.962 58.750 149.983 C 59.438 149.993 60.000 150.620 60.000 151.378 C 60.000 153.152 62.459 155.208 63.425 154.241 C 63.833 153.834 63.604 153.500 62.917 153.500 C 62.229 153.500 61.458 152.875 61.204 152.111 C 60.923 151.268 61.185 150.996 61.870 151.420 C 63.200 152.241 63.198 152.268 63.079 126.108 C 63.014 111.932 63.328 106.300 64.245 105.166 C 65.193 103.995 65.200 103.796 64.276 104.351 C 63.322 104.924 63.055 99.111 63.068 78.043 C 63.078 60.388 63.437 51.000 64.101 51.000 C 64.660 51.000 64.800 50.438 64.412 49.750 C 63.848 48.750 63.976 48.750 65.053 49.750 C 65.794 50.438 66.023 51.000 65.562 51.000 C 64.749 51.000 69.520 54.967 73.980 58.000 C 76.045 59.404 78.900 61.614 81.708 63.981 C 82.372 64.542 87.660 65.000 93.458 65.000 L 104.000 65.000 104.000 69.000 C 104.000 71.200 104.450 73.000 105.000 73.000 C 105.550 73.000 106.000 72.100 106.000 71.000 C 106.000 69.900 106.505 69.000 107.122 69.000 C 107.854 69.000 107.767 68.411 106.872 67.308 C 105.940 66.158 105.901 65.857 106.750 66.367 C 107.438 66.780 108.000 66.641 108.000 66.059 C 108.000 64.511 116.971 64.699 117.122 66.250 C 117.189 66.938 117.280 68.738 117.324 70.250 C 117.371 71.860 117.967 73.000 118.761 73.000 C 119.507 73.000 119.859 72.581 119.543 72.069 C 119.226 71.557 119.426 70.855 119.987 70.508 C 120.548 70.161 120.732 68.780 120.395 67.439 L 119.783 65.000 130.142 64.882 C 135.839 64.816 141.063 64.836 141.750 64.925 C 142.438 65.015 143.000 64.648 143.000 64.111 C 143.000 63.574 143.788 62.875 144.750 62.558 C 145.713 62.240 148.075 60.640 150.000 59.001 C 155.944 53.941 160.929 50.596 161.571 51.238 C 161.789 51.456 161.991 74.956 162.018 103.460 L 162.068 155.285 164.614 152.893 C 166.167 151.434 166.642 150.466 165.831 150.414 C 165.099 150.366 165.400 149.941 166.500 149.470 C 169.065 148.370 171.000 146.453 171.000 145.012 C 171.000 144.391 171.400 144.129 171.889 144.431 C 172.378 144.733 173.983 143.400 175.457 141.468 C 176.931 139.535 177.543 138.074 176.818 138.221 C 176.093 138.367 176.322 138.091 177.327 137.607 C 178.331 137.123 179.574 135.776 180.089 134.614 C 180.604 133.451 181.990 130.925 183.169 129.000 C 184.349 127.075 185.431 124.600 185.573 123.500 C 185.716 122.400 185.897 121.950 185.975 122.500 C 186.053 123.050 187.222 120.350 188.573 116.500 C 189.934 112.621 190.781 108.459 190.474 107.166 C 190.168 105.876 190.328 105.085 190.833 105.397 C 193.648 107.137 192.638 73.788 189.769 70.250 C 189.211 69.563 189.051 69.000 189.413 69.000 C 189.774 69.000 189.520 67.988 188.847 66.750 C 188.173 65.513 187.551 63.623 187.464 62.551 C 187.376 61.479 186.812 60.437 186.209 60.236 C 185.606 60.035 185.347 59.260 185.633 58.513 C 185.920 57.766 185.220 56.220 184.077 55.077 C 182.935 53.935 182.000 52.388 182.000 51.640 C 182.000 49.623 177.497 43.355 173.238 39.443 C 171.182 37.555 169.907 36.007 170.405 36.005 C 170.903 36.002 170.505 35.111 169.521 34.024 C 168.538 32.937 167.365 32.274 166.917 32.552 C 166.468 32.829 165.605 32.131 165.000 31.000 C 164.395 29.869 163.403 29.251 162.795 29.627 C 162.154 30.023 161.972 29.854 162.362 29.223 C 163.173 27.911 159.085 24.830 157.683 25.696 C 157.126 26.040 157.004 25.802 157.405 25.155 C 157.797 24.520 157.609 24.000 156.988 24.000 C 156.366 24.000 155.160 23.303 154.308 22.451 C 153.456 21.599 151.463 20.643 149.879 20.326 C 148.296 20.009 147.000 19.409 147.000 18.992 C 147.000 18.148 143.491 16.842 140.667 16.635 C 139.658 16.561 139.117 16.217 139.463 15.870 C 140.269 15.064 135.197 13.760 134.039 14.476 C 133.562 14.771 132.995 14.484 132.779 13.838 C 132.557 13.172 130.249 12.615 127.444 12.552 C 124.725 12.491 123.175 12.163 124.000 11.824 C 124.825 11.485 122.868 11.453 119.652 11.754 C 115.742 12.119 113.565 11.914 113.083 11.135 C 112.687 10.494 112.169 10.144 111.932 10.357 M 178.970 47.309 C 178.953 47.964 178.446 47.651 177.843 46.613 C 177.037 45.224 177.045 44.910 177.874 45.422 C 178.493 45.805 178.986 46.654 178.970 47.309 "/></g>
<g fill="#565656FF" stroke="#565656FF">
<path d="M 33.000 201.000 L 33.000 210.000 37.944 210.000 C 44.935 210.000 48.515 206.872 48.359 200.903 C 48.202 194.938 44.765 192.000 37.944 192.000 L 33.000 192.000 33.000 201.000 M 43.000 197.000 C 44.100 198.100 45.000 199.800 45.000 200.777 C 45.000 203.719 42.070 207.000 39.443 207.000 C 37.124 207.000 37.000 206.696 37.000 201.000 C 37.000 195.667 37.222 195.000 39.000 195.000 C 40.100 195.000 41.900 195.900 43.000 197.000 "/></g>
<g fill="#565656FF" stroke="#565656FF">
<path d="M 99.000 201.000 C 99.000 209.333 99.148 210.000 101.000 210.000 C 102.763 210.000 103.000 209.333 103.000 204.378 C 103.000 199.571 103.211 198.930 104.455 199.962 C 105.255 200.626 107.074 203.157 108.497 205.585 C 110.021 208.186 111.817 210.000 112.867 210.000 C 114.433 210.000 114.624 209.118 114.438 202.750 C 114.125 192.032 114.120 192.000 112.552 192.000 C 111.511 192.000 111.020 193.473 110.802 197.250 L 110.500 202.500 106.537 197.250 C 104.351 194.355 101.772 192.000 100.787 192.000 C 99.203 192.000 99.000 193.025 99.000 201.000 "/></g>
<g fill="#565656FF" stroke="#565656FF">
<path d="M 84.750 196.689 C 83.248 197.082 83.000 198.413 83.000 206.073 C 83.000 214.196 83.172 215.000 84.912 215.000 C 86.358 215.000 86.757 214.391 86.549 212.500 C 86.308 210.302 86.658 210.000 89.438 210.000 C 93.679 210.000 95.000 208.422 95.000 203.357 C 95.000 197.366 91.320 194.972 84.750 196.689 M 90.989 200.487 C 92.778 202.642 91.434 207.000 88.981 207.000 C 87.042 207.000 86.750 206.542 86.750 203.500 C 86.750 199.918 87.082 199.000 88.378 199.000 C 89.135 199.000 90.310 199.669 90.989 200.487 "/></g>
<g fill="#565656FF" stroke="#565656FF">
<path d="M 53.911 197.871 C 50.927 200.287 50.682 206.563 53.491 208.617 C 56.074 210.506 63.000 210.464 63.000 208.560 C 63.000 207.639 61.733 207.009 59.479 206.810 C 54.491 206.371 54.678 204.559 59.750 204.193 C 63.476 203.923 64.000 203.591 64.000 201.499 C 64.000 198.972 60.697 196.000 57.888 196.000 C 56.972 196.000 55.182 196.842 53.911 197.871 M 60.000 200.500 C 61.061 201.778 60.788 202.000 58.154 202.000 C 55.817 202.000 55.203 201.634 55.638 200.500 C 55.955 199.675 56.786 199.000 57.485 199.000 C 58.183 199.000 59.315 199.675 60.000 200.500 "/></g>
<g fill="#565656FF" stroke="#565656FF">
<path d="M 71.000 196.694 C 67.011 198.120 65.761 203.787 68.557 207.777 C 69.776 209.518 71.096 210.000 74.640 210.000 C 80.208 210.000 80.236 207.660 74.673 207.190 C 72.287 206.988 71.000 206.375 71.000 205.440 C 71.000 204.397 72.259 204.000 75.567 204.000 C 79.840 204.000 80.091 203.855 79.449 201.750 C 77.998 196.989 75.073 195.238 71.000 196.694 M 75.750 200.750 C 76.012 201.535 75.205 202.000 73.583 202.000 C 71.059 202.000 70.295 201.038 71.701 199.632 C 72.730 198.603 75.269 199.304 75.750 200.750 "/></g>
<g fill="#565656FF" stroke="#565656FF">
<path d="M 172.667 196.667 C 171.280 198.054 172.105 198.884 175.173 199.187 C 179.255 199.590 180.241 201.994 176.333 202.015 C 172.222 202.038 170.793 203.308 171.170 206.609 C 171.482 209.342 171.786 209.516 176.750 209.802 L 182.000 210.105 182.000 204.087 C 182.000 199.162 181.649 197.883 180.066 197.035 C 177.885 195.868 173.675 195.658 172.667 196.667 M 179.000 206.000 C 179.000 208.121 175.653 208.865 174.500 207.000 C 173.577 205.506 174.861 204.000 177.059 204.000 C 178.333 204.000 179.000 204.687 179.000 206.000 "/></g>
<g fill="#565656FF" stroke="#565656FF">
<path d="M 120.028 196.962 C 118.732 197.781 118.732 197.952 120.028 198.388 C 120.838 198.660 122.363 199.022 123.417 199.191 C 126.718 199.723 126.360 201.841 122.912 202.182 C 119.025 202.567 117.000 205.186 118.608 207.750 C 119.339 208.917 121.254 209.602 124.352 209.805 C 129.482 210.141 129.477 210.148 129.063 202.500 C 128.758 196.878 124.392 194.202 120.028 196.962 M 126.000 206.000 C 126.000 207.333 125.333 208.000 124.000 208.000 C 122.667 208.000 122.000 207.333 122.000 206.000 C 122.000 204.667 122.667 204.000 124.000 204.000 C 125.333 204.000 126.000 204.667 126.000 206.000 "/></g>
<g fill="#565656FF" stroke="#565656FF">
<path d="M 145.000 201.566 C 145.000 208.588 146.178 210.000 152.035 210.000 L 157.000 210.000 157.000 203.500 C 157.000 197.667 156.795 197.000 155.000 197.000 C 153.267 197.000 153.000 197.667 153.000 202.000 C 153.000 206.333 152.733 207.000 151.000 207.000 C 149.267 207.000 149.000 206.333 149.000 202.000 C 149.000 197.667 148.733 197.000 147.000 197.000 C 145.292 197.000 145.000 197.667 145.000 201.566 "/></g>
<g fill="#565656FF" stroke="#565656FF">
<path d="M 133.000 199.566 C 133.000 208.006 134.058 210.000 138.535 210.000 C 140.948 210.000 142.000 209.545 142.000 208.500 C 142.000 207.567 141.056 207.000 139.500 207.000 C 137.250 207.000 137.000 206.600 137.000 203.000 C 137.000 199.375 137.240 199.000 139.559 199.000 C 141.010 199.000 141.851 198.567 141.500 198.000 C 141.160 197.450 140.009 197.000 138.941 197.000 C 137.667 197.000 137.000 196.313 137.000 195.000 C 137.000 193.667 136.333 193.000 135.000 193.000 C 133.203 193.000 133.000 193.667 133.000 199.566 "/></g>
<g fill="#565656FF" stroke="#565656FF">
<path d="M 186.000 198.800 C 186.000 204.311 186.448 208.048 187.200 208.800 C 188.889 210.489 192.000 210.294 192.000 208.500 C 192.000 207.675 191.550 207.000 191.000 207.000 C 190.412 207.000 190.000 203.500 190.000 198.500 C 190.000 190.667 189.843 190.000 188.000 190.000 C 186.152 190.000 186.000 190.667 186.000 198.800 "/></g>
<g fill="#FFFFFFFF" stroke="#FFFFFFFF">
<path d="M 37.667 195.667 C 37.300 196.033 37.000 198.522 37.000 201.198 C 37.000 206.771 38.857 208.344 42.037 205.466 C 44.709 203.048 44.577 198.518 41.777 196.557 C 39.313 194.830 38.647 194.686 37.667 195.667 "/></g>
<g fill="#565656FF" stroke="#565656FF">
<path d="M 162.250 196.662 C 160.345 197.431 160.531 210.000 162.448 210.000 C 163.489 210.000 163.980 208.527 164.198 204.750 C 164.469 200.034 164.729 199.508 166.750 199.579 C 168.292 199.634 169.000 199.083 169.000 197.829 C 169.000 196.481 168.277 196.021 166.250 196.079 C 164.738 196.122 162.938 196.385 162.250 196.662 "/></g>
<g fill="#E4F0FFFF" stroke="#E4F0FFFF">
<path d="M 159.702 51.631 C 159.355 51.979 159.521 53.104 160.071 54.133 C 160.681 55.272 160.960 64.994 160.786 79.002 C 160.629 91.652 160.850 102.001 161.277 102.001 C 161.705 102.000 162.015 90.525 161.966 76.500 C 161.885 53.169 161.574 49.759 159.702 51.631 "/></g>
<g fill="#E4F0FFFF" stroke="#E4F0FFFF">
<path d="M 161.060 119.250 C 160.897 119.938 160.816 120.838 160.882 121.250 C 160.947 121.663 159.030 122.000 156.622 122.000 C 152.055 122.000 150.734 122.906 149.515 126.875 C 149.026 128.467 149.140 129.032 149.860 128.586 C 150.451 128.221 153.182 128.221 155.929 128.585 L 160.923 129.247 161.258 137.374 L 161.593 145.500 161.796 136.844 L 162.000 128.188 157.000 127.500 C 153.048 126.956 152.000 126.424 152.000 124.961 C 152.000 123.462 152.904 123.052 156.750 122.805 C 160.944 122.536 161.492 122.237 161.429 120.250 C 161.389 119.013 161.223 118.563 161.060 119.250 "/></g>
<g fill="#565656FF" stroke="#565656FF">
<path d="M 107.630 110.250 C 108.041 110.938 109.178 112.078 110.157 112.784 C 111.436 113.708 111.776 114.869 111.367 116.913 C 111.046 118.519 111.278 120.054 111.899 120.438 C 113.464 121.405 113.328 114.730 111.750 113.141 C 110.748 112.131 110.827 112.006 112.149 112.509 C 113.056 112.854 114.083 112.675 114.431 112.112 C 114.779 111.548 115.650 111.312 116.365 111.587 C 117.087 111.864 117.667 111.399 117.667 110.543 C 117.667 109.343 116.468 109.000 112.274 109.000 C 108.228 109.000 107.069 109.312 107.630 110.250 "/></g>
<g fill="#565656FF" stroke="#565656FF">
<path d="M 128.933 95.625 C 127.527 98.253 128.271 99.618 131.408 100.166 C 133.680 100.564 135.618 95.506 133.662 94.283 C 131.427 92.885 130.215 93.229 128.933 95.625 "/></g>
<g fill="#E4F0FFFF" stroke="#E4F0FFFF">
<path d="M 73.500 115.986 C 72.950 116.454 70.700 116.974 68.500 117.144 C 64.529 117.449 62.771 119.152 63.745 121.750 C 64.300 123.229 69.000 123.453 69.000 122.000 C 69.000 121.450 70.013 120.902 71.250 120.782 C 72.488 120.662 71.385 120.504 68.801 120.431 C 65.261 120.331 64.385 120.015 65.251 119.149 C 65.883 118.517 67.856 118.000 69.635 118.000 C 71.414 118.000 73.236 117.356 73.685 116.568 C 74.208 115.650 74.142 115.441 73.500 115.986 "/></g>
<g fill="#E4F0FFFF" stroke="#E4F0FFFF">
<path d="M 81.089 65.422 C 81.359 65.693 86.333 65.983 92.141 66.068 L 102.702 66.223 102.787 69.214 C 102.834 70.859 103.159 72.493 103.511 72.844 C 103.862 73.195 104.003 71.687 103.825 69.491 L 103.500 65.500 92.049 65.215 C 85.750 65.059 80.819 65.152 81.089 65.422 "/></g>
<g fill="#565656FF" stroke="#565656FF">
<path d="M 94.063 93.656 C 94.026 94.341 93.120 94.583 91.844 94.249 C 90.436 93.881 89.921 94.063 90.360 94.773 C 90.730 95.372 90.575 96.144 90.016 96.490 C 89.457 96.835 89.000 97.493 89.000 97.951 C 89.000 99.156 93.877 100.198 95.296 99.296 C 96.162 98.746 96.078 98.522 95.000 98.500 C 93.919 98.478 93.837 98.255 94.706 97.703 C 95.525 97.183 95.625 96.224 95.019 94.718 C 94.528 93.498 94.098 93.020 94.063 93.656 "/></g>
<g fill="#596DA8FF" stroke="#596DA8FF">
<path d="M 65.000 124.015 C 66.333 124.891 66.333 125.109 65.000 125.985 C 63.904 126.704 64.780 126.974 68.250 126.985 C 72.901 127.000 75.183 125.097 70.750 124.900 C 68.591 124.805 68.602 124.768 71.000 124.000 C 72.995 123.361 72.489 123.182 68.500 123.115 C 64.891 123.054 63.917 123.305 65.000 124.015 "/></g>
<g fill="#FFFFFFFF" stroke="#FFFFFFFF">
<path d="M 87.000 203.573 C 87.000 206.436 87.348 207.081 88.750 206.815 C 89.903 206.597 90.607 205.377 90.813 203.242 C 91.075 200.532 90.788 200.000 89.063 200.000 C 87.364 200.000 87.000 200.630 87.000 203.573 "/></g>
<g fill="#E4F0FFFF" stroke="#E4F0FFFF">
<path d="M 143.624 63.799 C 143.119 64.617 139.339 65.000 131.774 65.000 C 125.665 65.000 120.881 65.215 121.144 65.477 C 121.915 66.248 141.330 66.232 143.292 65.459 C 144.278 65.071 144.923 64.269 144.725 63.676 C 144.485 62.954 144.121 62.995 143.624 63.799 "/></g>
<g fill="#596DA8FF" stroke="#596DA8FF">
<path d="M 152.097 114.383 C 150.666 116.107 152.693 117.066 157.332 116.858 C 160.298 116.725 160.245 116.670 156.500 116.000 L 152.500 115.284 156.250 115.142 C 158.313 115.064 160.000 114.550 160.000 114.000 C 160.000 112.484 153.408 112.804 152.097 114.383 "/></g>
<g fill="#E4F0FFFF" stroke="#E4F0FFFF">
<path d="M 108.000 69.000 C 108.000 71.889 107.583 73.000 106.500 73.000 C 105.675 73.000 105.000 73.450 105.000 74.000 C 105.000 75.547 106.534 75.184 108.172 73.250 C 108.988 72.288 109.530 70.211 109.378 68.635 C 109.121 65.964 109.299 65.810 112.012 66.352 C 113.613 66.673 115.191 66.499 115.520 65.967 C 115.868 65.405 114.419 65.000 112.059 65.000 L 108.000 65.000 108.000 69.000 "/></g>
<g fill="#CBE0FFFF" stroke="#CBE0FFFF">
<path d="M 63.452 115.000 C 63.583 117.475 63.760 118.713 63.845 117.750 C 63.964 116.407 64.989 115.967 68.250 115.858 L 72.500 115.716 68.500 115.042 L 64.500 114.367 68.000 113.843 L 71.500 113.320 67.833 113.160 C 65.817 113.072 63.952 112.438 63.690 111.750 C 63.428 111.063 63.321 112.525 63.452 115.000 "/></g>
<g fill="#596DA8FF" stroke="#596DA8FF">
<path d="M 152.500 104.000 C 151.357 105.850 153.092 107.001 156.809 106.858 L 160.500 106.716 156.500 106.000 L 152.500 105.284 156.309 105.142 C 160.723 104.977 160.438 103.000 156.000 103.000 C 154.415 103.000 152.840 103.450 152.500 104.000 "/></g>
<g fill="#E4F0FFFF" stroke="#E4F0FFFF">
<path d="M 73.030 124.250 C 73.002 126.838 72.735 127.000 68.500 127.000 C 66.025 127.000 64.000 127.450 64.000 128.000 C 64.000 129.152 65.066 129.215 70.189 128.368 C 74.174 127.709 75.576 125.810 74.032 123.164 C 73.234 121.796 73.055 121.990 73.030 124.250 "/></g>
<g fill="#E4F0FFFF" stroke="#E4F0FFFF">
<path d="M 73.188 104.258 C 73.469 106.276 73.025 106.530 68.750 106.805 C 62.582 107.201 62.581 108.500 68.748 108.500 C 72.428 108.500 73.774 108.049 74.715 106.500 C 76.325 103.847 76.288 103.325 74.438 102.615 C 73.265 102.164 72.954 102.573 73.188 104.258 "/></g>
<g fill="#596DA8FF" stroke="#596DA8FF">
<path d="M 66.518 104.029 C 66.848 104.563 68.329 105.064 69.809 105.142 C 71.839 105.249 71.517 105.460 68.500 106.000 L 64.500 106.716 68.750 106.858 C 72.260 106.975 73.000 106.680 73.000 105.162 C 73.000 103.749 72.181 103.293 69.459 103.191 C 67.393 103.113 66.168 103.462 66.518 104.029 "/></g>
<g fill="#CBE0FFFF" stroke="#CBE0FFFF">
<path d="M 157.000 124.000 L 153.500 124.737 157.000 125.010 L 160.500 125.284 156.500 126.000 L 152.500 126.716 157.250 126.858 C 161.381 126.981 162.000 126.739 162.000 125.000 C 162.000 123.900 161.663 123.059 161.250 123.132 C 160.838 123.204 158.925 123.595 157.000 124.000 "/></g>
<g fill="#E4F0FFFF" stroke="#E4F0FFFF">
<path d="M 151.250 103.183 C 147.948 106.398 150.698 108.773 156.746 107.930 L 161.500 107.267 156.712 107.134 C 152.216 107.008 151.942 106.847 152.212 104.483 C 152.441 102.484 152.243 102.216 151.250 103.183 "/></g>
<g fill="#596DA8FF" stroke="#596DA8FF">
<path d="M 68.000 114.066 L 64.500 114.737 68.500 115.010 L 72.500 115.284 68.500 116.000 L 64.500 116.716 68.691 116.858 C 70.996 116.936 73.129 116.601 73.430 116.113 C 74.438 114.482 71.537 113.388 68.000 114.066 "/></g>
<g fill="#596DA8FF" stroke="#596DA8FF">
<path d="M 174.500 205.000 C 173.577 206.494 174.861 208.000 177.059 208.000 C 178.333 208.000 179.000 207.313 179.000 206.000 C 179.000 203.879 175.653 203.135 174.500 205.000 M 178.000 206.000 C 178.000 206.550 177.325 207.000 176.500 207.000 C 175.675 207.000 175.000 206.550 175.000 206.000 C 175.000 205.450 175.675 205.000 176.500 205.000 C 177.325 205.000 178.000 205.450 178.000 206.000 "/></g>
<g fill="#596DA8FF" stroke="#596DA8FF">
<path d="M 152.667 123.667 C 150.703 125.630 152.226 126.598 156.250 125.942 L 160.500 125.250 156.500 124.983 L 152.500 124.716 156.500 124.000 L 160.500 123.284 156.917 123.142 C 154.946 123.064 153.033 123.300 152.667 123.667 "/></g>
<g fill="#CBE0FFFF" stroke="#CBE0FFFF">
<path d="M 63.450 105.500 C 63.603 107.700 63.789 108.713 63.864 107.750 C 63.969 106.403 64.979 105.969 68.250 105.864 C 71.019 105.775 71.629 105.567 70.000 105.268 C 68.625 105.015 66.938 104.346 66.250 103.782 C 65.360 103.051 64.980 103.150 64.930 104.128 C 64.891 104.882 64.480 104.600 64.016 103.500 C 63.403 102.047 63.248 102.594 63.450 105.500 "/></g>
<g fill="#CBE0FFFF" stroke="#CBE0FFFF">
<path d="M 160.000 114.000 C 160.000 114.550 158.500 115.000 156.667 115.000 C 151.303 115.000 151.646 116.193 157.062 116.373 C 161.180 116.511 162.000 116.244 162.000 114.769 C 162.000 113.796 161.550 113.000 161.000 113.000 C 160.450 113.000 160.000 113.450 160.000 114.000 "/></g>
<g fill="#596DA8FF" stroke="#596DA8FF">
<path d="M 164.667 199.667 C 164.300 200.033 164.000 202.508 164.000 205.167 C 164.000 207.825 163.550 210.068 163.000 210.150 C 162.450 210.233 162.563 210.345 163.250 210.400 C 164.068 210.465 164.604 208.706 164.800 205.314 C 165.024 201.439 165.530 200.014 166.800 199.680 C 168.216 199.307 168.235 199.213 166.917 199.116 C 166.046 199.052 165.033 199.300 164.667 199.667 "/></g>
<g fill="#596DA8FF" stroke="#596DA8FF">
<path d="M 160.415 197.362 C 160.127 198.111 160.056 201.374 160.257 204.612 L 160.622 210.500 160.811 203.833 C 160.931 199.590 161.454 196.983 162.250 196.662 C 163.229 196.267 163.222 196.141 162.219 196.079 C 161.514 196.036 160.702 196.613 160.415 197.362 "/></g>
<g fill="#E4F0FFFF" stroke="#E4F0FFFF">
<path d="M 150.614 114.202 C 149.330 116.964 150.820 118.010 155.809 117.850 L 160.500 117.700 156.000 117.100 C 152.390 116.619 151.491 116.104 151.452 114.500 C 151.411 112.745 151.308 112.708 150.614 114.202 "/></g>
<g fill="#CBE0FFFF" stroke="#CBE0FFFF">
<path d="M 159.500 104.000 C 159.865 104.591 158.560 105.065 156.309 105.160 L 152.500 105.320 155.996 105.742 C 157.919 105.974 160.056 106.632 160.746 107.204 C 161.615 107.925 162.000 107.925 162.000 107.204 C 162.000 105.322 160.804 103.000 159.834 103.000 C 159.310 103.000 159.160 103.450 159.500 104.000 "/></g>
<g fill="#596DA8FF" stroke="#596DA8FF">
<path d="M 64.167 202.500 C 64.050 203.551 62.821 204.000 60.059 204.000 C 56.019 204.000 54.053 205.296 56.138 206.585 C 56.847 207.024 57.042 206.877 56.632 206.213 C 56.190 205.499 57.442 205.010 60.227 204.809 C 63.552 204.568 64.482 204.112 64.417 202.750 C 64.371 201.788 64.258 201.675 64.167 202.500 "/></g>
<g fill="#596DA8FF" stroke="#596DA8FF">
<path d="M 119.000 199.126 C 119.000 199.607 120.463 200.045 122.250 200.100 C 125.329 200.194 125.369 200.241 123.000 201.000 L 120.500 201.801 123.333 201.900 C 125.155 201.964 126.021 201.563 125.759 200.776 C 125.285 199.356 119.000 197.822 119.000 199.126 "/></g>
<g fill="#596DA8FF" stroke="#596DA8FF">
<path d="M 175.250 199.642 C 178.438 200.272 178.453 200.298 176.000 201.042 L 173.500 201.801 176.333 201.900 C 180.313 202.040 179.231 199.570 175.173 199.250 L 172.000 199.000 175.250 199.642 "/></g>
<g fill="#CBE0FFFF" stroke="#CBE0FFFF">
<path d="M 63.158 125.000 C 63.158 127.475 63.415 128.825 63.729 128.000 C 64.043 127.175 64.795 126.163 65.400 125.750 C 66.200 125.205 66.200 124.795 65.400 124.250 C 64.795 123.838 64.043 122.825 63.729 122.000 C 63.415 121.175 63.158 122.525 63.158 125.000 "/></g>
<g fill="#596DA8FF" stroke="#596DA8FF">
<path d="M 110.716 191.617 C 110.322 192.011 110.071 194.621 110.158 197.417 L 110.315 202.500 110.874 196.701 C 111.181 193.511 111.110 191.224 110.716 191.617 "/></g>
<g fill="#E4F0FFFF" stroke="#E4F0FFFF">
<path d="M 161.070 150.750 L 161.733 155.500 161.866 150.750 C 161.940 148.138 161.642 146.000 161.204 146.000 C 160.766 146.000 160.706 148.138 161.070 150.750 "/></g>
<g fill="#FFFFFFFF" stroke="#FFFFFFFF">
<path d="M 123.250 204.718 C 121.277 205.426 121.794 207.000 124.000 207.000 C 125.100 207.000 126.000 206.577 126.000 206.059 C 126.000 204.779 124.763 204.176 123.250 204.718 "/></g>
<g fill="#FFFFFFFF" stroke="#FFFFFFFF">
<path d="M 71.000 201.000 C 71.000 201.550 72.152 202.000 73.559 202.000 C 75.010 202.000 75.851 201.567 75.500 201.000 C 75.160 200.450 74.009 200.000 72.941 200.000 C 71.873 200.000 71.000 200.450 71.000 201.000 "/></g>
<g fill="#FFFFFFFF" stroke="#FFFFFFFF">
<path d="M 56.000 201.000 C 56.000 201.550 56.900 202.000 58.000 202.000 C 59.100 202.000 60.000 201.550 60.000 201.000 C 60.000 200.450 59.100 200.000 58.000 200.000 C 56.900 200.000 56.000 200.450 56.000 201.000 "/></g>
<g fill="#E4F0FFFF" stroke="#E4F0FFFF">
<path d="M 153.562 56.754 C 152.012 58.061 151.191 59.500 151.610 60.177 C 152.103 60.975 152.408 60.831 152.570 59.721 C 152.702 58.827 153.580 57.286 154.523 56.298 C 155.465 55.309 155.033 55.514 153.562 56.754 "/></g>
<g fill="#596DA8FF" stroke="#596DA8FF">
<path d="M 139.000 210.118 L 135.500 210.737 138.750 210.868 C 140.538 210.941 142.113 210.663 142.250 210.250 C 142.388 209.838 140.925 209.778 139.000 210.118 "/></g>
<g fill="#E4F0FFFF" stroke="#E4F0FFFF">
<path d="M 159.189 109.677 C 160.117 109.923 161.077 110.883 161.323 111.811 C 161.638 113.008 161.802 112.844 161.884 111.250 C 161.973 109.518 161.482 109.027 159.750 109.116 C 158.156 109.198 157.992 109.362 159.189 109.677 "/></g>
<g fill="#FFFFFFFF" stroke="#FFFFFFFF">
<path d="M 175.000 206.000 C 175.000 206.550 175.675 207.000 176.500 207.000 C 177.325 207.000 178.000 206.550 178.000 206.000 C 178.000 205.450 177.325 205.000 176.500 205.000 C 175.675 205.000 175.000 205.450 175.000 206.000 "/></g>
<g fill="#E4F0FFFF" stroke="#E4F0FFFF">
<path d="M 56.000 149.000 L 59.000 152.000 56.000 149.000 L 53.000 146.000 56.000 149.000 "/></g>
<g fill="#596DA8FF" stroke="#596DA8FF">
<path d="M 82.345 197.543 C 82.019 198.392 82.034 199.367 82.376 199.710 C 82.719 200.053 83.000 199.621 83.000 198.750 C 83.000 197.879 83.563 196.940 84.250 196.662 C 85.229 196.267 85.222 196.141 84.219 196.079 C 83.514 196.036 82.671 196.694 82.345 197.543 "/></g>
<g fill="#596DA8FF" stroke="#596DA8FF">
<path d="M 106.459 109.067 C 106.096 109.653 106.070 110.403 106.400 110.733 C 106.730 111.063 107.000 110.841 107.000 110.240 C 107.000 109.639 107.788 108.941 108.750 108.689 C 110.328 108.277 110.334 108.221 108.809 108.116 C 107.879 108.052 106.821 108.480 106.459 109.067 "/></g>
<g fill="#E4F0FFFF" stroke="#E4F0FFFF">
<path d="M 63.575 51.759 C 63.167 52.166 63.433 52.500 64.167 52.500 C 64.900 52.500 65.507 53.175 65.515 54.000 C 65.526 55.001 65.772 55.122 66.254 54.363 C 67.101 53.033 64.667 50.666 63.575 51.759 "/></g>
<g fill="#596DA8FF" stroke="#596DA8FF">
<path d="M 110.508 210.013 C 110.844 210.556 111.879 210.971 112.809 210.937 C 114.009 210.892 113.833 210.605 112.199 209.950 C 110.708 209.352 110.113 209.374 110.508 210.013 "/></g>
<g fill="#596DA8FF" stroke="#596DA8FF">
<path d="M 67.000 206.655 C 67.000 207.260 67.766 208.373 68.702 209.128 C 70.305 210.420 70.305 210.356 68.702 208.027 C 67.766 206.668 67.000 206.050 67.000 206.655 "/></g>
<g fill="#596DA8FF" stroke="#596DA8FF">
<path d="M 73.801 200.050 C 75.292 200.648 75.887 200.626 75.492 199.987 C 75.156 199.444 74.121 199.029 73.191 199.063 C 71.991 199.108 72.167 199.395 73.801 200.050 "/></g>
<g fill="#596DA8FF" stroke="#596DA8FF">
<path d="M 112.500 121.089 C 110.810 121.740 110.771 121.870 112.250 121.930 C 113.213 121.968 114.113 121.622 114.250 121.159 C 114.388 120.697 113.600 120.665 112.500 121.089 "/></g>
<g fill="#596DA8FF" stroke="#596DA8FF">
<path d="M 90.508 100.013 C 90.844 100.556 91.879 100.971 92.809 100.937 C 94.009 100.892 93.833 100.605 92.199 99.950 C 90.708 99.352 90.113 99.374 90.508 100.013 "/></g>
<g fill="#596DA8FF" stroke="#596DA8FF">
<path d="M 46.378 207.378 L 45.500 208.256 46.378 207.378 L 47.256 206.500 46.378 207.378 "/></g>
<g fill="#596DA8FF" stroke="#596DA8FF">
<path d="M 42.378 205.378 L 41.500 206.256 42.378 205.378 L 43.256 204.500 42.378 205.378 "/></g>
<g fill="#596DA8FF" stroke="#596DA8FF">
<path d="M 127.387 197.157 C 128.776 197.963 129.090 197.955 128.578 197.126 C 128.195 196.507 127.346 196.014 126.691 196.030 C 126.036 196.047 126.349 196.554 127.387 197.157 "/></g>
<g fill="#596DA8FF" stroke="#596DA8FF">
<path d="M 77.500 197.500 L 79.000 199.000 77.500 197.500 L 76.000 196.000 77.500 197.500 "/></g>
<g fill="#596DA8FF" stroke="#596DA8FF">
<path d="M 46.500 194.500 L 48.000 196.000 46.500 194.500 L 45.000 193.000 46.500 194.500 "/></g>
<g fill="#596DA8FF" stroke="#596DA8FF">
<path d="M 128.750 93.666 C 128.338 94.033 128.030 94.821 128.066 95.417 C 128.102 96.013 128.439 95.712 128.816 94.750 C 129.192 93.787 129.163 93.300 128.750 93.666 "/></g>
<g fill="#565656FF" stroke="#565656FF">
<path d="M 61.800 153.200 C 62.733 154.133 63.000 154.133 63.000 153.200 C 63.000 152.540 62.460 152.000 61.800 152.000 C 60.867 152.000 60.867 152.267 61.800 153.200 "/></g>
<g fill="#E4F0FFFF" stroke="#E4F0FFFF">
<path d="M 113.624 121.799 C 113.212 122.466 113.390 123.000 114.024 123.000 C 114.653 123.000 114.987 122.460 114.766 121.799 C 114.455 120.865 114.202 120.865 113.624 121.799 "/></g>
<g fill="#E4F0FFFF" stroke="#E4F0FFFF">
<path d="M 109.000 120.800 C 109.000 121.460 109.540 122.000 110.200 122.000 C 111.133 122.000 111.133 121.733 110.200 120.800 C 109.267 119.867 109.000 119.867 109.000 120.800 "/></g>
<g fill="#E4F0FFFF" stroke="#E4F0FFFF">
<path d="M 146.000 114.200 C 146.000 115.133 146.267 115.133 147.200 114.200 C 148.133 113.267 148.133 113.000 147.200 113.000 C 146.540 113.000 146.000 113.540 146.000 114.200 "/></g>
<g fill="#E4F0FFFF" stroke="#E4F0FFFF">
<path d="M 118.000 110.200 C 118.000 111.133 118.267 111.133 119.200 110.200 C 120.133 109.267 120.133 109.000 119.200 109.000 C 118.540 109.000 118.000 109.540 118.000 110.200 "/></g>
<g fill="#E4F0FFFF" stroke="#E4F0FFFF">
<path d="M 95.030 91.691 C 95.014 92.346 95.507 93.195 96.126 93.578 C 96.955 94.090 96.963 93.776 96.157 92.387 C 95.554 91.349 95.047 91.036 95.030 91.691 "/></g>
<g fill="#E4F0FFFF" stroke="#E4F0FFFF">
<path d="M 113.624 71.799 C 113.212 72.466 113.390 73.000 114.024 73.000 C 114.653 73.000 114.987 72.460 114.766 71.799 C 114.455 70.865 114.202 70.865 113.624 71.799 "/></g>
<g fill="#E4F0FFFF" stroke="#E4F0FFFF">
<path d="M 148.378 60.378 L 147.500 61.256 148.378 60.378 L 149.256 59.500 148.378 60.378 "/></g>
<g fill="#E4F0FFFF" stroke="#E4F0FFFF">
<path d="M 74.564 59.896 C 74.249 60.407 74.745 60.714 75.668 60.578 C 76.719 60.424 76.934 60.077 76.242 59.650 C 75.635 59.274 74.880 59.385 74.564 59.896 "/></g>
<g fill="#525252FF" stroke="#525252FF">
<path d="M 92.800 94.200 C 93.733 95.133 94.000 95.133 94.000 94.200 C 94.000 93.540 93.460 93.000 92.800 93.000 C 91.867 93.000 91.867 93.267 92.800 94.200 "/></g>
<g fill="#CBE0FFFF" stroke="#CBE0FFFF">
<path d="M 106.695 70.352 C 106.275 71.448 106.413 71.863 107.064 71.460 C 107.637 71.106 107.939 70.318 107.736 69.709 C 107.533 69.100 107.065 69.389 106.695 70.352 "/></g>
</svg>
