<?xml version="1.0" encoding="utf-8"?>
<!DOCTYPE svg PUBLIC "-//W3C//DTD SVG 20010904//EN" "http://www.w3.org/TR/2001/REC-SVG-20010904/DTD/svg10.dtd">
<svg version="1.0" xmlns="http://www.w3.org/2000/svg" width="260pt" height="260pt" viewBox="0 0 260 260" style="" preserveAspectRatio="xMidYMid meet">
<g fill="#FDA931FF" stroke="#FDA931FF">
<path d="M 1.000 130.000 L 1.000 259.000 130.000 259.000 L 259.000 259.000 259.000 130.000 L 259.000 1.000 130.000 1.000 L 1.000 1.000 1.000 130.000 M 155.000 7.350 C 156.375 7.566 158.175 8.012 159.000 8.341 C 159.825 8.670 161.625 9.076 163.000 9.245 C 164.375 9.413 166.063 9.903 166.750 10.334 C 167.438 10.765 168.450 10.840 169.000 10.500 C 169.550 10.160 170.000 10.359 170.000 10.941 C 170.000 11.523 170.662 12.000 171.471 12.000 C 172.281 12.000 175.396 13.085 178.394 14.411 C 181.392 15.737 184.105 16.562 184.423 16.244 C 184.740 15.926 185.000 16.154 185.000 16.751 C 185.000 17.347 187.025 18.608 189.500 19.553 C 191.975 20.498 194.000 21.687 194.000 22.195 C 194.000 22.703 194.450 22.840 195.000 22.500 C 195.550 22.160 196.000 22.359 196.000 22.941 C 196.000 23.523 196.474 24.000 197.054 24.000 C 197.634 24.000 199.547 25.348 201.304 26.995 C 203.062 28.643 204.853 29.993 205.284 29.995 C 206.370 30.002 220.000 43.724 220.000 44.811 C 220.000 45.294 220.900 46.505 222.000 47.500 C 223.100 48.495 224.000 49.878 224.000 50.572 C 224.000 51.266 224.338 51.983 224.750 52.167 C 225.474 52.488 230.502 62.500 229.939 62.500 C 229.787 62.500 230.285 63.625 231.046 65.000 C 231.807 66.375 232.501 67.838 232.590 68.250 C 232.678 68.663 232.863 69.225 233.000 69.500 C 233.138 69.775 233.363 70.450 233.500 71.000 C 233.638 71.550 233.841 72.113 233.952 72.250 C 234.166 72.516 234.635 74.233 235.387 77.500 C 235.640 78.600 235.919 79.500 236.007 79.500 C 236.095 79.500 236.304 80.400 236.473 81.500 C 236.641 82.600 237.128 85.300 237.555 87.500 C 237.982 89.700 238.345 97.125 238.361 104.000 C 238.390 116.448 237.730 122.540 235.761 128.000 C 235.464 128.825 234.419 131.750 233.440 134.500 C 230.721 142.138 226.762 150.134 223.733 154.106 C 222.230 156.077 221.000 158.016 221.000 158.416 C 221.000 158.816 220.438 159.750 219.750 160.491 C 219.063 161.233 217.600 163.009 216.500 164.438 C 215.400 165.867 211.251 170.384 207.280 174.476 C 203.308 178.568 199.772 183.060 199.421 184.458 C 199.070 185.856 198.417 187.000 197.969 187.000 C 197.521 187.000 196.582 188.688 195.882 190.750 C 194.466 194.921 194.521 194.731 192.951 201.000 C 191.853 205.384 192.155 217.470 193.514 223.500 C 193.886 225.150 194.338 227.175 194.519 228.000 C 194.699 228.825 194.881 229.613 194.923 229.750 C 194.966 229.888 194.976 230.113 194.947 230.250 C 194.917 230.388 195.574 232.130 196.407 234.123 C 197.239 236.116 197.639 238.028 197.294 238.373 C 196.949 238.718 197.117 239.000 197.667 239.000 C 198.217 239.000 198.685 239.563 198.708 240.250 C 198.730 240.938 199.063 242.673 199.447 244.106 C 199.935 245.928 199.642 247.215 198.476 248.381 C 196.952 249.906 192.166 250.027 143.366 249.775 C 102.208 249.563 89.750 249.215 89.161 248.262 C 88.741 247.581 88.275 243.128 88.126 238.368 C 87.758 226.622 87.677 226.558 73.087 226.431 C 60.034 226.318 60.074 226.325 54.264 223.041 C 48.644 219.866 43.471 212.218 42.397 205.500 C 42.222 204.400 42.073 194.613 42.068 183.750 L 42.058 164.000 35.963 164.000 C 32.611 164.000 28.886 163.489 27.684 162.864 C 25.391 161.672 21.492 158.000 22.520 158.000 C 22.849 158.000 22.776 157.447 22.359 156.772 C 21.727 155.750 21.492 152.538 21.900 150.500 C 21.955 150.225 22.060 149.663 22.133 149.250 C 22.205 148.838 23.598 146.138 25.228 143.250 C 26.858 140.363 27.891 138.000 27.524 138.000 C 27.157 138.000 27.564 137.293 28.429 136.429 C 29.293 135.564 30.000 134.265 30.000 133.541 C 30.000 132.818 32.066 128.342 34.591 123.596 C 37.116 118.849 39.297 114.411 39.437 113.733 C 39.578 113.055 40.164 111.359 40.740 109.965 C 41.316 108.571 41.866 101.146 41.964 93.465 C 42.150 78.724 42.372 75.431 43.341 73.000 C 43.670 72.175 44.140 70.150 44.387 68.500 C 44.634 66.850 44.929 65.388 45.043 65.250 C 45.157 65.113 45.352 64.663 45.476 64.250 C 45.601 63.838 46.317 61.925 47.069 60.000 C 47.820 58.075 48.337 56.163 48.218 55.750 C 48.098 55.338 48.450 55.000 49.000 55.000 C 49.550 55.000 50.000 54.100 50.000 53.000 C 50.000 51.900 50.441 51.000 50.981 51.000 C 51.520 51.000 52.244 49.875 52.589 48.500 C 52.934 47.125 53.521 46.000 53.893 46.000 C 54.265 46.000 55.419 44.538 56.459 42.750 C 57.499 40.963 61.635 36.350 65.650 32.500 C 74.767 23.759 75.670 23.000 76.958 23.000 C 77.531 23.000 78.000 22.550 78.000 22.000 C 78.000 21.450 78.606 21.000 79.347 21.000 C 80.088 21.000 81.721 20.109 82.976 19.021 C 84.231 17.932 85.650 17.284 86.129 17.580 C 86.608 17.876 87.000 17.641 87.000 17.059 C 87.000 16.477 87.618 16.000 88.373 16.000 C 89.128 16.000 91.715 15.161 94.123 14.135 C 101.984 10.785 102.945 10.444 107.000 9.561 C 108.375 9.261 110.625 8.769 112.000 8.466 C 113.375 8.163 116.254 7.718 118.397 7.478 C 120.540 7.237 122.480 6.854 122.707 6.626 C 123.191 6.142 151.325 6.773 155.000 7.350 "/></g>
<g fill="#FFFFFFFF" stroke="#FFFFFFFF">
<path d="M 129.000 6.621 C 106.762 8.573 87.342 15.246 73.964 25.531 C 66.496 31.273 57.246 41.407 53.077 48.415 C 45.495 61.159 41.147 80.061 42.365 94.980 C 43.133 104.384 41.927 109.064 35.017 123.500 C 32.121 129.550 28.175 137.875 26.248 142.000 C 19.622 156.186 22.067 162.984 33.806 163.015 C 36.938 163.024 40.022 163.363 40.659 163.768 C 41.459 164.277 41.928 171.019 42.170 185.503 C 42.494 204.855 42.701 206.892 44.814 211.500 C 50.004 222.816 54.587 225.191 72.701 225.948 C 81.547 226.318 86.330 226.929 87.201 227.800 C 88.003 228.602 88.633 232.424 88.848 237.800 C 89.091 243.860 89.669 247.031 90.753 248.250 C 92.198 249.874 96.055 250.000 144.500 250.000 C 206.123 250.000 201.578 250.951 197.452 238.922 C 193.741 228.099 191.998 218.897 192.012 210.185 C 192.035 195.470 196.028 186.493 208.650 172.787 C 223.038 157.162 231.482 142.541 235.923 125.562 C 238.550 115.522 238.811 94.669 236.441 84.312 C 229.148 52.440 215.792 34.328 188.722 19.601 C 171.436 10.197 147.508 4.996 129.000 6.621 M 161.500 17.859 C 171.271 20.553 175.374 22.151 184.529 26.826 C 210.728 40.206 225.714 62.782 229.021 93.852 C 231.367 115.894 226.038 135.651 212.932 153.500 C 210.913 156.250 205.940 162.100 201.881 166.500 C 187.337 182.265 183.627 191.023 183.666 209.500 C 183.685 218.322 184.263 223.842 185.849 230.341 C 187.035 235.203 187.753 239.591 187.444 240.091 C 186.824 241.094 101.168 241.385 98.582 240.393 C 97.363 239.925 97.000 238.288 97.000 233.261 C 97.000 228.464 96.466 225.872 94.984 223.474 C 91.793 218.311 87.809 217.000 75.311 217.000 C 61.651 217.000 56.769 215.017 53.250 208.038 C 51.126 203.826 50.999 202.369 50.985 182.038 C 50.975 166.734 50.606 159.776 49.711 158.000 C 48.559 155.714 47.752 155.457 40.304 155.000 C 35.824 154.725 31.841 154.181 31.454 153.791 C 30.549 152.881 32.158 148.990 41.329 129.900 C 45.451 121.321 49.310 112.546 49.906 110.400 C 50.502 108.255 50.999 100.425 51.012 93.000 C 51.037 77.895 52.695 69.479 57.753 58.776 C 68.422 36.202 91.456 20.370 120.500 15.646 C 127.638 14.486 154.530 15.937 161.500 17.859 "/></g>
<g fill="#FDA931FF" stroke="#FDA931FF">
<path d="M 122.158 16.111 C 120.869 16.602 119.407 16.751 118.908 16.443 C 118.408 16.134 117.458 16.217 116.795 16.627 C 116.133 17.036 114.220 17.515 112.545 17.690 C 110.870 17.866 108.825 18.306 108.000 18.669 C 107.175 19.031 106.163 19.422 105.750 19.539 C 105.338 19.655 104.888 19.840 104.750 19.949 C 104.613 20.059 103.436 20.345 102.135 20.586 C 100.835 20.826 98.585 21.642 97.135 22.399 C 95.686 23.155 93.185 24.388 91.577 25.137 C 86.556 27.479 85.000 28.448 85.000 29.237 C 85.000 29.657 84.325 30.000 83.500 30.000 C 82.675 30.000 82.000 30.450 82.000 31.000 C 82.000 31.550 81.523 32.000 80.940 32.000 C 77.629 32.000 61.000 50.054 61.000 53.649 C 61.000 54.392 60.550 55.000 60.000 55.000 C 59.450 55.000 59.000 55.810 59.000 56.800 C 59.000 57.790 58.582 59.028 58.070 59.550 C 57.087 60.554 54.149 68.122 53.431 71.500 C 53.197 72.600 52.707 74.850 52.341 76.500 C 51.976 78.150 51.531 85.800 51.352 93.500 C 51.009 108.254 50.738 110.752 49.169 113.685 C 48.634 114.683 48.244 115.725 48.301 116.000 C 48.358 116.275 45.990 121.450 43.040 127.500 C 33.659 146.735 30.970 152.480 30.985 153.250 C 30.993 153.663 33.896 154.000 37.435 154.000 C 44.997 154.000 48.451 155.105 50.013 158.025 C 50.765 159.430 51.112 167.052 51.040 180.590 C 50.937 200.179 51.868 209.000 54.039 209.000 C 54.567 209.000 55.000 209.623 55.000 210.385 C 55.000 212.246 59.739 215.250 62.674 215.250 C 63.973 215.250 65.295 215.668 65.611 216.179 C 65.926 216.690 70.756 217.035 76.342 216.946 C 87.230 216.773 90.838 217.719 94.750 221.772 C 95.988 223.054 97.030 224.867 97.066 225.802 C 97.102 226.736 97.215 230.200 97.316 233.500 L 97.500 239.500 142.750 239.760 C 180.092 239.975 188.000 239.786 188.000 238.677 C 188.000 237.938 187.687 237.020 187.304 236.638 C 186.922 236.255 186.499 235.194 186.365 234.280 C 186.231 233.366 185.797 231.466 185.402 230.059 C 185.006 228.651 184.598 227.050 184.494 226.500 C 184.390 225.950 184.189 225.275 184.048 225.000 C 183.588 224.104 183.064 216.655 182.958 209.500 C 182.844 201.821 183.421 197.427 185.387 191.000 C 186.493 187.384 190.371 179.557 191.250 179.167 C 191.663 178.983 192.000 178.389 192.000 177.845 C 192.000 177.302 192.563 176.251 193.250 175.510 C 193.938 174.769 196.918 171.538 199.874 168.331 C 202.830 165.124 206.543 161.127 208.124 159.449 C 209.706 157.771 211.000 156.064 211.000 155.656 C 211.000 155.247 212.125 153.699 213.500 152.217 C 214.875 150.734 216.000 149.198 216.000 148.805 C 216.000 148.411 217.105 146.460 218.456 144.469 C 221.433 140.082 227.276 125.256 226.514 124.023 C 226.213 123.536 226.396 122.873 226.920 122.549 C 228.123 121.806 228.147 121.460 228.215 104.000 C 228.278 88.045 228.080 83.998 227.163 82.500 C 226.826 81.950 226.413 80.375 226.245 79.000 C 226.076 77.625 225.659 75.825 225.318 75.000 C 224.977 74.175 224.581 72.940 224.438 72.256 C 223.951 69.922 215.953 54.509 213.723 51.606 C 211.269 48.412 200.783 37.852 196.355 34.116 C 194.800 32.805 192.285 31.298 190.764 30.768 C 189.244 30.238 188.000 29.372 188.000 28.843 C 188.000 28.315 187.550 28.160 187.000 28.500 C 186.450 28.840 186.000 28.672 186.000 28.126 C 186.000 27.132 182.157 25.430 180.750 25.802 C 180.338 25.911 180.000 25.640 180.000 25.201 C 180.000 24.523 173.566 21.671 172.771 21.996 C 172.622 22.057 170.700 21.355 168.500 20.436 C 166.300 19.516 164.388 18.817 164.250 18.882 C 164.113 18.947 163.888 18.966 163.750 18.923 C 161.413 18.208 154.838 16.883 151.000 16.354 C 144.088 15.402 124.453 15.236 122.158 16.111 M 134.112 29.521 C 135.549 31.619 136.527 34.092 136.285 35.016 C 135.950 36.300 136.985 37.022 140.673 38.074 C 143.328 38.832 145.838 39.519 146.250 39.601 C 146.663 39.683 147.225 39.863 147.500 40.000 C 147.775 40.138 148.450 40.363 149.000 40.500 C 149.550 40.638 150.225 40.863 150.500 41.000 C 150.775 41.138 151.450 41.363 152.000 41.500 C 152.550 41.638 153.225 41.863 153.500 42.000 C 153.775 42.138 154.338 42.345 154.750 42.461 C 155.662 42.718 158.723 43.853 161.718 45.046 C 163.396 45.713 164.249 45.495 165.218 44.148 C 168.430 39.688 177.544 39.419 181.798 43.659 C 184.015 45.869 184.781 53.152 183.107 56.104 C 181.730 58.533 181.828 59.019 184.566 63.352 C 186.180 65.906 187.838 67.997 188.250 67.998 C 188.663 67.999 189.000 68.675 189.000 69.500 C 189.000 70.325 189.450 71.000 190.000 71.000 C 190.550 71.000 191.000 71.675 191.000 72.500 C 191.000 73.325 191.450 74.000 192.000 74.000 C 192.550 74.000 193.000 74.675 193.000 75.500 C 193.000 76.325 193.398 77.000 193.883 77.000 C 194.369 77.000 195.003 77.904 195.292 79.010 C 195.729 80.680 196.228 80.864 198.245 80.097 C 201.666 78.796 208.130 81.840 209.930 85.598 C 213.765 93.605 208.920 101.595 200.272 101.526 C 197.252 101.502 196.854 101.924 194.092 108.103 C 192.468 111.734 190.036 116.331 188.688 118.318 L 186.237 121.930 188.587 126.573 C 190.794 130.932 190.846 131.437 189.449 134.857 C 185.754 143.904 177.212 145.070 169.696 137.554 C 168.510 136.367 168.199 134.456 168.457 129.945 L 168.802 123.921 159.151 113.726 C 142.100 95.714 140.046 93.905 137.933 95.036 C 136.178 95.975 130.750 95.581 128.794 94.372 C 126.936 93.224 123.057 86.016 123.573 84.671 C 123.983 83.602 119.828 81.807 106.620 77.347 C 90.491 71.901 89.029 71.573 87.894 73.147 C 84.904 77.295 75.281 77.407 71.202 73.341 C 68.945 71.091 68.221 63.845 69.948 60.799 C 72.417 56.447 78.542 53.636 82.750 54.923 C 82.888 54.966 83.338 55.080 83.750 55.179 C 84.163 55.277 85.102 55.959 85.838 56.695 C 86.954 57.811 88.242 57.287 93.635 53.516 C 97.189 51.032 100.524 49.000 101.048 49.000 C 101.572 49.000 102.000 48.550 102.000 48.000 C 102.000 47.450 102.675 47.000 103.500 47.000 C 104.325 47.000 105.000 46.550 105.000 46.000 C 105.000 45.450 105.675 45.000 106.500 45.000 C 107.325 45.000 108.000 44.550 108.000 44.000 C 108.000 43.450 108.675 43.000 109.500 43.000 C 110.325 43.000 111.000 42.550 111.000 42.000 C 111.000 41.450 111.675 41.000 112.500 41.000 C 113.854 41.000 114.537 39.051 114.055 36.560 C 113.955 36.043 114.596 33.727 115.480 31.413 C 117.101 27.168 119.474 25.508 125.000 24.750 C 128.973 24.206 131.310 25.429 134.112 29.521 "/></g>
<g fill="#FFFFFFFF" stroke="#FFFFFFFF">
<path d="M 118.010 28.143 C 115.300 30.854 114.895 31.921 115.072 35.893 C 115.200 38.753 114.833 40.599 114.104 40.762 C 113.459 40.905 107.264 44.808 100.337 49.434 L 87.743 57.845 84.483 56.290 C 79.890 54.100 74.809 55.250 71.453 59.238 C 69.179 61.941 68.861 63.073 69.295 66.921 C 69.979 72.995 73.401 76.000 79.633 76.000 C 83.281 76.000 84.710 75.444 87.034 73.120 C 88.618 71.536 90.045 70.569 90.207 70.971 C 90.368 71.373 95.675 73.405 102.000 75.488 C 123.148 82.451 124.000 82.845 124.000 85.672 C 124.000 87.227 125.344 89.544 127.492 91.692 C 130.709 94.909 131.387 95.158 136.069 94.842 L 141.154 94.500 155.436 109.490 C 168.013 122.690 169.911 124.319 171.339 123.134 C 172.780 121.937 171.388 120.135 158.774 106.866 C 150.566 98.233 144.041 92.154 143.290 92.442 C 142.373 92.794 142.457 92.233 143.576 90.525 C 144.589 88.978 145.055 86.440 144.872 83.460 L 144.586 78.809 155.508 69.380 C 163.209 62.731 166.882 60.166 167.965 60.681 C 168.809 61.083 171.429 61.448 173.787 61.492 L 178.075 61.573 185.191 72.301 C 191.680 82.083 192.206 83.252 191.154 85.561 C 189.046 90.187 189.720 94.874 192.957 98.111 C 194.583 99.737 195.249 100.940 194.436 100.784 C 193.465 100.597 191.138 103.921 187.646 110.487 C 182.416 120.318 182.267 120.484 178.060 121.203 C 172.921 122.080 171.138 123.430 169.296 127.836 C 164.967 138.191 178.773 147.065 186.563 138.934 C 190.413 134.916 190.692 128.430 187.177 124.688 C 185.899 123.328 185.254 122.054 185.744 121.858 C 186.234 121.661 189.067 116.888 192.039 111.250 C 197.325 101.224 197.521 101.000 200.972 100.978 C 209.820 100.922 214.132 90.537 208.107 83.794 C 205.664 81.059 204.490 80.543 200.551 80.469 L 195.887 80.381 188.595 69.739 C 182.694 61.126 181.049 59.325 179.968 60.298 C 179.232 60.959 179.887 59.946 181.423 58.046 C 183.816 55.085 184.142 53.948 183.705 50.079 C 183.021 44.005 179.599 41.000 173.367 41.000 C 169.704 41.000 168.292 41.554 165.923 43.923 C 164.315 45.531 163.000 46.507 163.000 46.092 C 163.000 45.677 156.925 43.419 149.500 41.073 C 136.896 37.091 136.000 36.642 136.000 34.304 C 136.000 32.790 134.656 30.456 132.600 28.400 C 127.914 23.714 122.535 23.619 118.010 28.143 M 124.885 46.015 C 127.458 46.026 128.084 46.294 127.056 46.944 C 125.815 47.730 125.964 49.725 128.120 61.150 L 130.628 74.443 127.951 76.695 L 125.274 78.947 108.888 73.462 C 99.875 70.446 91.971 68.181 91.322 68.430 C 90.552 68.725 90.068 67.431 89.926 64.691 C 89.806 62.386 90.165 60.407 90.723 60.294 C 93.109 59.808 116.474 43.840 116.217 42.870 C 116.062 42.283 117.135 42.748 118.602 43.902 C 120.180 45.143 122.747 46.006 124.885 46.015 M 148.738 45.412 C 157.760 48.438 162.041 49.459 162.367 48.662 C 162.628 48.023 162.945 49.188 163.071 51.250 C 163.197 53.313 163.345 55.449 163.400 55.997 C 163.587 57.862 141.602 76.042 140.000 75.346 C 139.175 74.988 136.988 74.484 135.139 74.225 C 132.904 73.913 132.215 73.485 133.083 72.949 C 134.135 72.298 133.897 69.563 131.852 58.821 L 129.315 45.500 131.658 44.218 C 132.946 43.513 134.000 42.500 134.000 41.968 C 134.000 40.521 134.509 40.640 148.738 45.412 M 138.777 79.557 C 143.259 82.696 140.505 91.000 134.982 91.000 C 131.610 91.000 128.000 87.639 128.000 84.500 C 128.000 81.650 131.547 78.000 134.316 78.000 C 135.548 78.000 137.555 78.701 138.777 79.557 M 129.961 31.189 C 132.549 33.966 132.564 37.436 130.000 40.000 C 125.874 44.126 119.000 41.037 119.000 35.057 C 119.000 29.538 126.092 27.035 129.961 31.189 M 204.365 86.073 C 207.532 88.563 207.791 92.209 205.000 95.000 C 201.007 98.993 194.000 96.469 194.000 91.036 C 194.000 87.148 196.651 84.360 200.615 84.079 C 201.228 84.036 202.916 84.933 204.365 86.073 M 83.811 61.039 C 88.082 65.017 85.555 72.000 79.845 72.000 C 73.579 72.000 70.827 64.855 75.635 61.073 C 78.952 58.463 81.037 58.455 83.811 61.039 M 178.443 47.223 C 180.730 50.488 180.347 53.582 177.365 55.927 C 174.014 58.563 172.204 58.541 169.314 55.826 C 164.898 51.676 167.479 45.000 173.500 45.000 C 175.866 45.000 177.356 45.670 178.443 47.223 M 183.927 127.635 C 185.067 129.084 186.000 130.823 186.000 131.500 C 186.000 133.777 181.874 138.000 179.650 138.000 C 175.817 138.000 173.000 135.246 173.000 131.500 C 173.000 125.298 180.111 122.783 183.927 127.635 "/></g>
<g fill="#FDA931FF" stroke="#FDA931FF">
<path d="M 165.324 61.288 C 164.676 61.955 162.229 64.075 159.884 66.000 C 157.539 67.925 154.667 70.400 153.501 71.500 C 152.335 72.600 149.736 74.749 147.725 76.275 C 144.441 78.767 144.170 79.316 145.064 81.669 C 145.743 83.455 145.711 85.347 144.961 87.618 C 143.874 90.911 143.955 91.045 152.181 99.656 C 167.715 115.917 174.221 121.982 175.369 121.272 C 175.990 120.888 177.740 120.704 179.257 120.863 C 181.775 121.127 182.274 120.575 184.990 114.522 C 186.626 110.876 188.577 107.280 189.326 106.531 C 190.074 105.783 191.267 103.771 191.975 102.060 C 193.085 99.381 193.035 98.696 191.617 97.129 C 189.520 94.812 188.896 87.863 190.578 85.563 C 191.284 84.596 191.580 83.069 191.235 82.170 C 190.389 79.966 181.763 67.586 180.781 67.167 C 180.351 66.983 180.000 66.196 180.000 65.417 C 180.000 64.638 179.550 64.000 179.000 64.000 C 178.450 64.000 178.000 63.309 178.000 62.465 C 178.000 61.230 177.601 61.143 175.962 62.020 C 174.824 62.630 172.948 62.778 171.712 62.357 C 170.496 61.943 169.163 61.693 168.750 61.802 C 168.338 61.911 168.000 61.550 168.000 61.000 C 168.000 59.664 166.771 59.797 165.324 61.288 "/></g>
<g fill="#FDA931FF" stroke="#FDA931FF">
<path d="M 117.079 43.750 C 117.036 44.438 116.325 45.000 115.500 45.000 C 114.675 45.000 114.000 45.450 114.000 46.000 C 114.000 46.550 113.325 47.000 112.500 47.000 C 111.675 47.000 111.000 47.450 111.000 48.000 C 111.000 48.550 110.325 49.000 109.500 49.000 C 108.675 49.000 108.000 49.340 108.000 49.756 C 108.000 50.172 106.735 51.072 105.188 51.757 C 103.641 52.441 101.410 53.901 100.230 55.001 C 99.049 56.100 97.615 57.000 97.042 57.000 C 96.469 57.000 96.000 57.340 96.000 57.756 C 96.000 58.172 94.692 59.091 93.093 59.799 C 90.837 60.797 90.248 61.652 90.463 63.613 C 90.616 65.003 91.136 66.503 91.620 66.946 C 92.335 67.601 104.419 71.960 107.250 72.585 C 107.663 72.676 108.225 72.863 108.500 73.000 C 108.775 73.138 109.450 73.363 110.000 73.500 C 110.550 73.638 111.225 73.863 111.500 74.000 C 111.775 74.138 112.450 74.363 113.000 74.500 C 113.550 74.638 114.225 74.863 114.500 75.000 C 114.775 75.138 115.450 75.363 116.000 75.500 C 116.550 75.638 117.225 75.863 117.500 76.000 C 117.775 76.138 118.450 76.363 119.000 76.500 C 119.550 76.638 120.225 76.863 120.500 77.000 C 120.775 77.138 121.338 77.313 121.750 77.390 C 122.163 77.467 123.031 77.869 123.681 78.282 C 124.363 78.715 125.961 78.014 127.464 76.621 C 129.616 74.627 129.959 73.630 129.451 70.855 C 129.113 69.010 128.656 66.150 128.436 64.500 C 128.215 62.850 127.497 59.025 126.839 56.000 C 125.621 50.393 125.421 49.368 125.152 47.361 C 125.069 46.735 123.458 45.933 121.573 45.580 C 119.688 45.226 117.923 44.388 117.652 43.718 C 117.272 42.782 117.140 42.789 117.079 43.750 "/></g>
<g fill="#FDA931FF" stroke="#FDA931FF">
<path d="M 132.271 43.704 C 130.742 45.299 130.174 46.887 130.463 48.764 C 130.695 50.269 131.147 53.300 131.469 55.500 C 131.790 57.700 132.296 60.284 132.591 61.241 C 133.207 63.235 134.092 67.571 134.480 70.500 C 134.625 71.600 134.802 72.864 134.872 73.309 C 134.943 73.754 135.343 73.906 135.763 73.647 C 136.182 73.388 137.599 73.750 138.911 74.452 C 140.986 75.563 141.623 75.454 143.810 73.615 C 148.843 69.380 154.391 64.452 156.422 62.412 C 157.565 61.263 159.734 59.526 161.241 58.552 C 162.842 57.518 163.685 56.307 163.268 55.641 C 162.875 55.013 162.497 54.050 162.429 53.500 C 162.360 52.950 162.236 51.972 162.152 51.328 C 162.029 50.378 157.438 48.242 153.750 47.418 C 153.338 47.325 152.775 47.138 152.500 47.000 C 152.225 46.863 151.550 46.638 151.000 46.500 C 150.450 46.363 149.775 46.138 149.500 46.000 C 149.225 45.863 148.550 45.638 148.000 45.500 C 147.450 45.363 146.775 45.138 146.500 45.000 C 146.225 44.863 145.550 44.638 145.000 44.500 C 144.450 44.363 143.775 44.138 143.500 44.000 C 143.225 43.863 142.550 43.638 142.000 43.500 C 141.450 43.363 140.775 43.138 140.500 43.000 C 140.225 42.863 139.550 42.638 139.000 42.500 C 138.450 42.363 137.888 42.159 137.750 42.048 C 136.521 41.058 134.110 41.786 132.271 43.704 "/></g>
<g fill="#FDA931FF" stroke="#FDA931FF">
<path d="M 75.455 61.455 C 72.693 64.216 72.396 66.619 74.478 69.368 C 76.144 71.568 81.276 72.250 83.564 70.577 C 86.240 68.620 86.022 63.162 83.178 60.925 C 79.956 58.391 78.413 58.496 75.455 61.455 "/></g>
<g fill="#FDA931FF" stroke="#FDA931FF">
<path d="M 120.876 31.124 C 116.756 35.244 120.293 42.672 125.765 41.390 C 128.468 40.757 131.956 37.439 131.956 35.500 C 131.956 34.950 131.153 33.458 130.173 32.183 C 127.863 29.181 123.335 28.665 120.876 31.124 "/></g>
<g fill="#FDA931FF" stroke="#FDA931FF">
<path d="M 175.611 126.295 C 174.623 127.018 173.687 129.229 173.495 131.292 C 173.226 134.183 173.621 135.321 175.298 136.496 C 178.106 138.463 179.999 138.351 182.750 136.056 C 185.632 133.652 185.678 129.322 182.847 126.867 C 180.321 124.676 178.069 124.498 175.611 126.295 "/></g>
<g fill="#FDA931FF" stroke="#FDA931FF">
<path d="M 197.193 86.029 C 194.746 87.517 194.279 88.400 194.509 91.101 C 195.132 98.425 204.234 99.138 206.487 92.040 C 207.237 89.679 204.631 85.398 202.031 84.718 C 200.999 84.448 198.822 85.038 197.193 86.029 "/></g>
<g fill="#FDA931FF" stroke="#FDA931FF">
<path d="M 133.091 79.090 C 130.528 80.115 128.084 82.778 128.032 84.604 C 128.014 85.211 129.114 86.910 130.475 88.378 C 132.329 90.379 133.623 90.926 135.638 90.561 C 139.115 89.930 140.025 88.948 140.618 85.186 C 140.969 82.957 140.536 81.536 139.052 80.052 C 136.766 77.766 136.506 77.724 133.091 79.090 "/></g>
<g fill="#FDA931FF" stroke="#FDA931FF">
<path d="M 170.250 46.046 C 169.013 46.535 167.963 47.288 167.917 47.718 C 167.871 48.148 167.714 49.605 167.569 50.955 C 167.228 54.117 170.162 57.250 173.465 57.250 C 176.275 57.250 180.000 53.709 180.000 51.038 C 180.000 46.809 174.910 44.203 170.250 46.046 "/></g>
<g fill="#FFEED6FF" stroke="#FFEED6FF">
<path d="M 167.746 123.005 C 169.951 125.392 170.024 125.401 171.746 123.523 C 173.419 121.697 173.419 121.671 171.731 122.943 C 170.225 124.078 169.631 124.001 167.731 122.425 L 165.500 120.574 167.746 123.005 "/></g>
<g fill="#FFEED6FF" stroke="#FFEED6FF">
<path d="M 213.000 37.000 L 216.000 40.000 213.000 37.000 L 210.000 34.000 213.000 37.000 "/></g>
<g fill="#FFEED6FF" stroke="#FFEED6FF">
<path d="M 90.030 66.809 C 90.013 68.118 90.438 68.847 91.012 68.492 C 91.681 68.079 91.692 67.295 91.043 66.183 C 90.196 64.732 90.057 64.818 90.030 66.809 "/></g>
<g fill="#FFEED6FF" stroke="#FFEED6FF">
<path d="M 63.500 34.410 L 61.500 36.567 63.500 34.410 L 65.500 32.253 63.500 34.410 "/></g>
<g fill="#FFEED6FF" stroke="#FFEED6FF">
<path d="M 159.000 107.000 L 161.000 109.000 159.000 107.000 L 157.000 105.000 159.000 107.000 "/></g>
<g fill="#FFEED6FF" stroke="#FFEED6FF">
<path d="M 151.000 105.000 L 153.000 107.000 151.000 105.000 L 149.000 103.000 151.000 105.000 "/></g>
<g fill="#FFEED6FF" stroke="#FFEED6FF">
<path d="M 133.000 73.017 C 131.735 73.820 131.788 73.972 133.333 73.985 C 134.342 73.993 135.017 73.564 134.833 73.032 C 134.621 72.416 133.955 72.410 133.000 73.017 "/></g>
<g fill="#FFEED6FF" stroke="#FFEED6FF">
<path d="M 186.378 139.378 L 185.500 140.256 186.378 139.378 L 187.256 138.500 186.378 139.378 "/></g>
<g fill="#FFEED6FF" stroke="#FFEED6FF">
<path d="M 186.500 123.500 L 188.000 125.000 186.500 123.500 L 185.000 122.000 186.500 123.500 "/></g>
<g fill="#FFEED6FF" stroke="#FFEED6FF">
<path d="M 193.422 99.874 C 193.805 100.493 194.654 100.986 195.309 100.970 C 195.964 100.953 195.651 100.446 194.613 99.843 C 193.224 99.037 192.910 99.045 193.422 99.874 "/></g>
<g fill="#FFEED6FF" stroke="#FFEED6FF">
<path d="M 127.500 92.500 L 129.000 94.000 127.500 92.500 L 126.000 91.000 127.500 92.500 "/></g>
<g fill="#FFEED6FF" stroke="#FFEED6FF">
<path d="M 180.378 59.378 L 179.500 60.256 180.378 59.378 L 181.256 58.500 180.378 59.378 "/></g>
<g fill="#FFEED6FF" stroke="#FFEED6FF">
<path d="M 132.500 27.500 L 134.000 29.000 132.500 27.500 L 131.000 26.000 132.500 27.500 "/></g>
<g fill="#FDB240FF" stroke="#FDB240FF">
<path d="M 152.500 99.500 L 154.000 101.000 152.500 99.500 L 151.000 98.000 152.500 99.500 "/></g>
</svg>
