<?xml version="1.0" encoding="utf-8"?>
<!DOCTYPE svg PUBLIC "-//W3C//DTD SVG 20010904//EN" "http://www.w3.org/TR/2001/REC-SVG-20010904/DTD/svg10.dtd">
<svg version="1.0" xmlns="http://www.w3.org/2000/svg" width="602pt" height="602pt" viewBox="0 0 602 602" style="" preserveAspectRatio="xMidYMid meet">
<g fill="#FEFEFEFE" stroke="#FEFEFEFE">
<path d="M 1.000 301.000 L 1.000 601.000 301.000 601.000 L 601.000 601.000 601.000 301.000 L 601.000 1.000 301.000 1.000 L 1.000 1.000 1.000 301.000 M 321.606 132.617 C 330.639 136.904 343.032 155.891 350.198 176.424 L 352.493 183.000 356.497 183.018 C 363.116 183.048 378.657 185.723 385.566 188.022 C 389.371 189.288 393.482 191.532 395.524 193.457 C 398.674 196.429 399.000 197.252 399.000 202.240 C 399.000 209.201 395.215 220.929 389.430 231.899 C 385.050 240.202 384.158 243.000 385.891 243.000 C 386.380 243.000 390.768 245.621 395.641 248.823 C 404.942 254.938 411.000 260.860 411.000 263.839 C 411.000 264.812 409.660 267.722 408.021 270.306 L 405.042 275.003 410.101 282.458 C 418.977 295.541 421.213 305.742 417.009 313.982 C 413.818 320.238 405.945 325.000 398.794 325.000 L 395.887 325.000 397.693 328.098 C 399.518 331.227 403.634 335.246 407.835 338.000 C 411.030 340.095 411.063 345.234 407.903 348.622 C 404.337 352.444 397.148 355.741 389.460 357.080 C 381.857 358.404 368.388 357.737 362.330 355.736 C 358.822 354.577 358.193 354.671 354.846 356.850 C 351.774 358.851 351.086 359.967 350.525 363.865 C 348.944 374.838 340.408 386.804 331.000 391.233 C 324.678 394.210 314.010 394.238 308.432 391.293 C 303.610 388.747 297.895 382.674 295.023 377.045 C 293.888 374.820 292.631 373.000 292.230 372.999 C 291.828 372.998 286.849 372.802 281.164 372.563 L 270.828 372.128 265.524 377.433 C 253.599 389.358 238.566 388.742 230.534 376.000 C 227.527 371.228 225.000 363.424 225.000 358.905 C 225.000 355.611 224.228 354.425 218.507 348.931 C 214.935 345.502 210.613 340.514 208.902 337.848 C 205.872 333.126 205.664 333.000 200.856 333.000 C 188.757 333.000 181.178 323.826 182.250 310.479 C 182.859 302.883 187.505 292.280 194.151 283.317 C 200.818 274.326 208.000 259.650 208.000 255.019 C 208.000 249.762 211.642 230.835 213.968 224.000 C 221.449 202.022 234.265 186.247 252.529 176.536 C 254.894 175.278 259.551 171.087 262.877 167.223 C 277.045 150.762 296.802 135.644 309.000 131.933 C 313.197 130.656 318.024 130.918 321.606 132.617 M 432.078 406.570 C 433.791 408.121 434.000 409.760 434.000 421.655 C 434.000 428.995 434.338 434.995 434.750 434.989 C 435.163 434.983 437.709 434.308 440.409 433.489 C 446.728 431.572 452.288 431.604 459.068 433.595 C 466.499 435.778 470.505 438.421 473.931 443.399 C 483.769 457.698 481.054 479.574 467.982 491.326 C 461.680 496.992 455.865 499.000 445.760 499.000 C 431.836 499.000 422.338 492.379 418.051 479.686 C 416.149 474.052 416.000 471.243 416.000 440.961 C 416.000 405.966 415.898 406.707 421.000 404.659 C 423.570 403.628 430.064 404.748 432.078 406.570 M 337.934 433.562 C 352.814 437.738 360.000 449.704 360.000 470.307 C 360.000 476.087 360.563 478.561 363.158 484.191 C 366.033 490.429 366.191 491.274 364.929 493.633 C 362.264 498.612 354.790 499.517 350.636 495.364 C 349.186 493.914 348.000 492.316 348.000 491.813 C 348.000 491.310 346.507 492.037 344.681 493.429 C 339.752 497.189 333.595 499.000 325.740 499.000 C 315.389 499.000 311.386 497.458 304.822 490.941 C 298.039 484.207 295.523 477.518 295.631 466.500 C 295.731 456.399 298.841 448.999 305.995 441.845 C 314.766 433.074 325.904 430.186 337.934 433.562 M 242.000 434.326 C 247.446 436.569 247.542 436.573 251.751 434.748 C 262.466 430.104 273.973 431.993 280.929 439.539 C 286.695 445.794 287.142 448.416 286.800 474.000 L 286.500 496.500 282.416 497.912 C 278.707 499.194 277.974 499.149 274.416 497.412 L 270.500 495.500 270.000 473.852 C 269.550 454.381 269.308 451.993 267.595 450.102 C 265.225 447.487 261.944 447.415 258.861 449.910 C 256.533 451.794 256.495 452.120 256.165 473.332 C 255.852 493.413 255.696 494.965 253.810 496.672 C 251.087 499.136 243.905 499.129 241.175 496.659 C 239.271 494.935 239.120 493.448 238.820 473.511 C 238.530 454.226 238.319 452.006 236.595 450.103 C 234.155 447.409 229.846 447.409 227.405 450.102 C 225.692 451.993 225.450 454.381 225.000 473.852 L 224.500 495.500 220.794 497.484 C 217.350 499.328 216.784 499.364 212.794 497.984 L 208.500 496.500 208.200 474.000 C 207.869 449.190 208.351 445.948 213.194 440.432 C 220.353 432.278 231.360 429.945 242.000 434.326 M 561.458 434.060 C 576.291 438.641 582.825 451.016 576.750 463.024 C 575.473 465.547 572.770 468.646 570.500 470.188 C 566.522 472.889 555.691 476.000 550.263 476.000 C 547.544 476.000 538.567 473.944 534.635 472.420 C 533.033 471.800 532.872 472.037 533.497 474.099 C 536.639 484.466 552.966 488.165 566.454 481.566 C 572.142 478.783 572.349 478.756 573.726 480.601 C 575.379 482.817 574.834 488.078 572.598 491.491 C 571.776 492.745 568.943 494.835 566.302 496.136 C 562.062 498.223 560.096 498.500 549.500 498.500 C 538.194 498.500 537.163 498.329 531.678 495.550 C 525.032 492.183 521.156 488.179 517.313 480.713 C 515.001 476.221 514.624 474.256 514.590 466.500 C 514.558 459.343 514.993 456.531 516.711 452.767 C 519.816 445.969 523.479 441.543 528.860 438.090 C 538.271 432.051 550.185 430.578 561.458 434.060 M 140.931 434.448 C 151.121 438.107 157.880 447.645 156.553 456.493 C 155.115 466.087 147.056 472.852 134.510 474.998 C 127.617 476.177 126.019 476.133 120.128 474.599 C 109.759 471.899 109.841 471.886 111.741 475.851 C 112.625 477.694 115.151 480.394 117.355 481.851 C 120.935 484.218 122.275 484.493 129.931 484.432 C 138.219 484.366 142.206 483.288 147.231 479.752 C 149.619 478.072 152.333 480.859 152.333 484.991 C 152.333 489.269 149.279 493.054 143.448 496.000 C 136.237 499.643 121.080 500.112 112.500 496.957 C 104.765 494.113 96.302 485.784 93.745 478.500 C 91.418 471.869 91.479 459.059 93.866 453.179 C 96.196 447.438 103.189 439.454 108.068 436.965 C 117.989 431.904 131.058 430.903 140.931 434.448 M 38.796 435.550 C 40.831 437.915 41.292 438.060 42.798 436.805 C 50.834 430.109 68.455 430.935 76.066 438.364 C 82.301 444.449 83.255 448.330 83.771 469.715 C 84.347 493.541 84.075 495.262 79.377 497.492 C 75.130 499.507 69.850 498.850 66.944 495.944 C 65.148 494.148 65.000 492.475 65.000 473.923 L 65.000 453.846 61.952 450.798 C 59.243 448.089 58.411 447.806 54.467 448.251 C 48.670 448.904 45.525 451.069 42.824 456.265 C 40.884 459.998 40.556 462.574 40.061 478.000 L 39.500 495.500 36.000 497.289 C 32.176 499.244 28.109 498.957 24.302 496.462 L 22.000 494.954 22.000 465.462 L 22.000 435.971 25.250 433.933 C 29.667 431.164 35.637 431.876 38.796 435.550 M 181.250 416.740 C 182.593 417.945 183.000 419.901 183.000 425.155 L 183.000 432.000 190.435 432.000 C 200.401 432.000 203.000 433.050 203.000 437.075 C 203.000 439.296 202.016 441.184 199.600 443.600 C 196.420 446.780 195.773 447.000 189.600 447.000 L 183.000 447.000 183.006 460.750 C 183.014 480.934 184.252 483.976 192.863 484.967 L 197.500 485.500 197.414 489.740 C 197.257 497.562 192.001 500.305 182.475 497.536 C 175.094 495.390 169.676 490.422 167.043 483.385 C 165.154 478.335 165.000 475.685 165.000 448.117 C 165.000 420.987 165.157 418.171 166.750 416.758 C 170.201 413.698 177.849 413.688 181.250 416.740 M 504.078 406.570 C 505.918 408.236 506.000 410.163 506.000 451.632 L 506.000 494.954 503.329 496.704 C 499.908 498.946 494.092 498.946 490.671 496.704 L 488.000 494.954 488.000 450.929 L 488.000 406.903 491.250 405.439 C 495.215 403.652 501.461 404.203 504.078 406.570 M 406.596 435.141 C 407.952 436.498 409.321 439.203 409.637 441.153 L 410.213 444.699 405.627 445.328 C 398.570 446.295 394.334 448.473 392.318 452.171 C 390.795 454.966 390.423 458.710 390.002 475.500 L 389.500 495.500 386.000 497.284 C 382.043 499.300 376.634 498.848 373.750 496.260 C 372.194 494.864 371.999 492.464 371.995 474.595 C 371.989 451.655 372.820 447.758 379.283 440.415 C 386.486 432.233 400.903 429.449 406.596 435.141 "/></g>
<g fill="#FEE404FE" stroke="#FEE404FE">
<path d="M 277.500 168.988 C 259.911 172.543 245.957 179.860 234.361 191.608 C 220.397 205.755 212.945 223.301 209.362 250.466 C 207.722 262.902 204.875 269.547 195.208 283.500 C 192.160 287.900 188.279 294.425 186.583 298.000 C 183.930 303.594 183.500 305.626 183.500 312.578 C 183.500 319.928 183.758 320.994 186.366 324.413 C 190.589 329.949 194.536 331.992 201.023 331.996 C 206.372 332.000 206.607 332.116 208.523 335.715 C 209.610 337.758 213.988 342.969 218.250 347.294 C 225.236 354.383 226.000 355.541 226.000 359.042 C 226.000 365.612 229.750 373.999 234.963 379.091 C 244.047 387.963 255.104 386.746 265.853 375.692 L 270.205 371.215 281.841 371.619 L 293.476 372.023 295.655 376.311 C 298.153 381.225 304.952 388.372 309.440 390.802 C 314.089 393.319 325.337 392.970 330.795 390.140 C 340.603 385.055 346.780 376.630 349.145 365.113 C 350.305 359.466 350.890 358.439 354.201 356.248 L 357.945 353.771 365.095 355.385 C 384.386 359.742 406.475 354.213 409.449 344.285 C 409.994 342.466 408.850 340.827 403.056 335.124 C 399.175 331.304 396.000 328.588 396.000 329.089 C 396.000 330.375 394.128 330.227 388.238 328.478 C 377.420 325.265 366.477 311.305 362.876 296.121 C 360.039 284.159 360.691 281.107 363.855 291.543 C 367.191 302.547 370.824 309.019 377.804 316.392 C 384.682 323.657 389.864 325.549 398.902 324.093 C 416.748 321.219 422.841 307.885 414.098 290.838 C 410.469 283.763 403.194 273.614 392.874 261.229 C 386.796 253.934 386.160 252.723 385.086 246.393 C 376.588 196.266 343.848 166.794 297.000 167.100 C 291.099 167.139 282.558 167.965 277.500 168.988 M 321.399 207.048 C 328.660 209.765 336.871 218.445 339.302 225.974 C 345.572 245.387 339.030 263.927 323.161 271.720 C 318.238 274.137 316.326 274.499 308.500 274.493 C 297.974 274.484 293.319 272.577 286.578 265.507 C 275.065 253.433 274.571 230.039 285.558 217.203 C 290.155 211.833 293.831 209.272 300.268 206.955 C 307.140 204.482 314.628 204.515 321.399 207.048 M 256.621 210.058 C 272.603 217.795 277.979 241.735 267.426 258.179 C 263.940 263.612 260.148 266.909 254.139 269.731 C 249.530 271.895 247.774 272.183 241.639 271.782 C 232.954 271.215 227.694 268.731 222.370 262.683 C 216.668 256.205 214.658 249.738 215.191 239.581 C 215.900 226.080 222.543 215.476 233.500 210.356 C 240.176 207.236 250.516 207.103 256.621 210.058 M 238.000 282.188 C 252.323 288.471 268.575 290.727 287.615 289.074 C 297.893 288.181 303.965 286.940 321.544 282.135 C 323.218 281.678 325.629 281.688 326.901 282.159 C 330.393 283.451 328.926 287.584 322.991 293.173 C 316.523 299.263 309.608 301.790 294.001 303.765 C 283.433 305.103 279.633 305.162 269.407 304.148 C 256.675 302.885 246.735 300.503 239.417 296.960 C 233.690 294.187 227.000 286.635 227.000 282.943 C 227.000 278.521 229.284 278.364 238.000 282.188 "/></g>
<g fill="#5C3822FE" stroke="#5C3822FE">
<path d="M 421.000 404.659 C 415.900 406.706 416.000 405.982 416.000 440.789 C 416.000 472.155 416.708 481.000 419.217 481.000 C 419.713 481.000 419.850 481.433 419.523 481.963 C 418.642 483.389 423.437 490.473 427.212 493.322 C 432.611 497.396 437.707 499.000 445.256 499.000 C 452.324 499.000 460.000 497.372 460.000 495.873 C 460.000 495.427 460.666 495.318 461.480 495.631 C 464.132 496.648 474.371 485.298 476.900 478.537 C 478.124 475.266 478.914 471.781 478.656 470.793 C 478.398 469.805 478.595 469.249 479.093 469.558 C 479.600 469.871 480.000 467.227 480.000 463.559 C 480.000 459.609 479.579 457.000 478.941 457.000 C 478.359 457.000 478.154 456.559 478.487 456.021 C 479.652 454.136 476.547 446.614 473.238 443.305 C 471.402 441.469 470.403 440.087 471.017 440.233 C 471.631 440.380 470.330 439.220 468.126 437.655 C 465.921 436.090 463.679 435.080 463.144 435.411 C 462.609 435.742 461.995 435.485 461.780 434.839 C 461.565 434.194 459.728 433.629 457.697 433.583 C 455.667 433.537 454.005 433.163 454.003 432.750 C 454.001 432.338 451.975 432.000 449.500 432.000 C 447.025 432.000 445.000 432.436 445.000 432.969 C 445.000 433.501 444.324 433.678 443.498 433.361 C 442.672 433.044 440.197 433.504 437.998 434.384 L 434.000 435.984 434.000 422.147 C 434.000 409.766 433.798 408.127 432.078 406.570 C 430.064 404.748 423.570 403.628 421.000 404.659 M 452.500 448.405 C 454.700 448.654 456.183 448.890 455.795 448.929 C 455.408 448.968 456.164 450.073 457.476 451.385 C 462.301 456.210 462.941 465.625 459.046 474.500 C 456.915 479.356 454.315 481.784 449.460 483.453 C 446.252 484.556 445.288 484.475 441.852 482.815 C 439.688 481.769 437.414 479.808 436.798 478.457 C 436.183 477.106 435.275 476.000 434.780 476.000 C 434.286 476.000 434.077 475.663 434.316 475.250 C 434.554 474.838 434.434 472.116 434.048 469.202 C 433.662 466.288 433.749 463.655 434.241 463.351 C 434.734 463.047 434.895 462.168 434.600 461.399 C 434.304 460.629 434.450 460.000 434.923 460.000 C 435.396 460.000 436.040 458.978 436.353 457.729 C 437.045 454.974 442.701 449.000 444.619 449.000 C 445.378 449.000 446.000 448.564 446.000 448.031 C 446.000 447.499 446.563 447.263 447.250 447.508 C 447.938 447.753 450.300 448.157 452.500 448.405 "/></g>
<g fill="#5C3822FE" stroke="#5C3822FE">
<path d="M 320.271 433.540 C 313.583 435.341 308.239 438.735 303.654 444.091 C 299.257 449.228 295.622 458.359 296.408 462.292 C 296.752 464.010 296.588 464.863 295.985 464.491 C 295.419 464.141 295.000 465.208 295.000 467.000 C 295.000 468.904 295.405 469.868 296.040 469.475 C 296.714 469.058 296.852 469.740 296.432 471.414 C 296.076 472.834 296.125 474.784 296.542 475.748 C 296.959 476.711 297.446 478.226 297.623 479.114 C 299.006 486.029 305.763 493.792 313.176 496.981 C 317.489 498.836 319.744 499.133 327.320 498.844 C 333.146 498.622 336.475 498.078 336.732 497.306 C 336.950 496.650 337.849 496.389 338.729 496.726 C 339.877 497.167 340.097 496.966 339.510 496.015 C 338.966 495.137 339.077 494.930 339.840 495.401 C 340.471 495.791 342.566 494.907 344.494 493.437 C 346.422 491.966 348.000 491.293 348.000 491.940 C 348.000 492.588 348.520 492.797 349.155 492.405 C 349.810 491.999 350.040 492.127 349.685 492.700 C 349.342 493.255 350.134 494.717 351.444 495.948 C 353.246 497.640 354.641 498.068 357.164 497.700 C 362.080 496.982 363.571 496.170 365.052 493.403 C 366.250 491.165 366.061 490.252 363.193 484.437 C 360.362 478.697 360.000 477.000 360.000 469.481 C 360.000 464.816 359.612 461.000 359.139 461.000 C 358.665 461.000 358.473 459.979 358.711 458.731 C 359.539 454.401 355.259 445.516 349.956 440.556 C 347.217 437.993 344.531 436.172 343.988 436.508 C 343.445 436.843 343.000 436.676 343.000 436.137 C 343.000 434.810 336.295 432.673 334.407 433.397 C 333.549 433.726 333.160 433.550 333.507 432.989 C 334.399 431.545 326.447 431.877 320.271 433.540 M 334.533 449.197 C 338.257 450.894 341.250 457.311 341.250 463.598 C 341.250 466.452 340.942 469.285 340.566 469.893 C 340.190 470.502 340.160 471.450 340.500 472.000 C 340.840 472.550 340.672 473.000 340.126 473.000 C 339.191 473.000 337.799 475.916 338.217 477.000 C 338.469 477.655 333.688 482.426 332.455 482.752 C 324.556 484.833 319.345 483.253 315.997 477.763 C 313.121 473.046 313.244 462.920 316.250 456.970 C 320.111 449.327 327.719 446.092 334.533 449.197 "/></g>
<g fill="#5C3822FE" stroke="#5C3822FE">
<path d="M 228.000 433.059 C 228.000 433.641 227.515 433.819 226.923 433.453 C 225.188 432.380 217.583 435.782 214.483 439.018 C 212.912 440.658 211.935 442.000 212.313 442.000 C 212.691 442.000 212.058 442.942 210.908 444.092 C 209.667 445.333 209.018 446.962 209.314 448.092 C 209.588 449.142 209.434 450.000 208.970 450.000 C 208.507 450.000 208.088 460.082 208.039 472.404 C 207.942 496.973 207.989 497.180 213.994 498.499 C 216.021 498.944 218.235 498.561 220.754 497.330 L 224.500 495.500 224.691 475.485 C 224.797 464.476 225.169 454.724 225.518 453.813 C 225.868 452.902 226.310 451.334 226.501 450.328 C 226.691 449.323 226.881 448.928 226.923 449.450 C 226.966 449.973 227.540 449.860 228.200 449.200 C 230.849 446.551 239.316 449.552 238.247 452.760 C 238.019 453.442 238.208 454.000 238.667 453.999 C 239.125 453.998 239.370 463.219 239.211 474.490 L 238.921 494.982 242.211 497.039 C 246.006 499.412 251.106 499.119 254.163 496.352 C 255.947 494.738 256.058 493.262 255.789 474.809 C 255.630 463.913 255.838 454.998 256.250 454.999 C 256.663 455.000 257.000 454.110 257.000 453.023 C 257.000 450.267 261.177 447.795 265.081 448.241 C 267.615 448.530 268.398 449.141 268.688 451.055 C 268.891 452.400 269.382 453.612 269.779 453.749 C 270.176 453.886 270.369 463.043 270.209 474.097 C 269.926 493.678 270.494 498.049 273.113 496.430 C 273.601 496.129 274.000 496.359 274.000 496.941 C 274.000 497.523 274.338 497.929 274.750 497.841 C 275.163 497.754 276.304 498.034 277.288 498.463 C 278.323 498.915 280.637 498.648 282.788 497.830 L 286.500 496.418 286.779 473.459 C 287.009 454.576 286.781 449.769 285.496 446.381 C 283.990 442.407 278.428 436.308 275.816 435.764 C 275.118 435.619 273.903 434.899 273.116 434.164 C 272.329 433.429 270.630 433.029 269.342 433.275 C 268.054 433.521 267.000 433.335 267.000 432.861 C 267.000 432.388 265.200 432.000 263.000 432.000 C 260.800 432.000 259.000 432.477 259.000 433.059 C 259.000 433.641 258.515 433.819 257.923 433.453 C 256.603 432.636 247.802 435.870 248.457 436.931 C 248.716 437.349 246.806 436.615 244.214 435.299 C 241.621 433.984 238.713 433.111 237.750 433.360 C 236.788 433.609 236.000 433.405 236.000 432.906 C 236.000 432.408 234.200 432.000 232.000 432.000 C 229.800 432.000 228.000 432.477 228.000 433.059 "/></g>
<g fill="#FEFEFEFE" stroke="#FEFEFEFE">
<path d="M 303.500 206.872 C 292.100 209.886 283.200 218.849 279.613 230.932 C 277.658 237.514 277.585 242.859 279.359 249.500 C 282.692 261.978 289.815 269.671 301.249 273.144 C 307.921 275.171 308.407 275.187 314.834 273.604 C 340.575 267.265 349.536 235.902 331.517 215.216 C 329.465 212.859 325.993 210.017 323.804 208.900 C 319.429 206.668 308.428 205.570 303.500 206.872 M 307.171 234.625 C 317.168 239.657 317.410 257.875 307.561 263.962 C 303.278 266.609 296.543 266.628 292.241 264.005 C 287.198 260.931 285.008 256.511 285.004 249.400 C 285.001 244.203 285.445 242.686 288.006 239.150 C 289.660 236.868 291.122 234.993 291.256 234.985 C 291.390 234.977 293.300 234.332 295.500 233.553 C 299.666 232.077 302.653 232.351 307.171 234.625 "/></g>
<g fill="#5C3822FE" stroke="#5C3822FE">
<path d="M 311.631 131.788 C 311.283 132.351 310.166 132.595 309.148 132.328 C 308.131 132.062 306.610 132.533 305.768 133.375 C 304.927 134.216 303.960 134.626 303.619 134.286 C 303.279 133.945 303.000 134.267 303.000 135.000 C 303.000 135.733 302.719 136.053 302.376 135.710 C 301.055 134.388 284.528 145.082 284.154 147.500 C 284.070 148.050 283.536 148.500 282.969 148.500 C 281.432 148.500 267.792 161.125 268.531 161.864 C 268.881 162.214 268.679 162.500 268.083 162.500 C 267.488 162.500 267.000 162.950 267.000 163.500 C 267.000 164.050 266.577 164.500 266.060 164.500 C 265.126 164.500 258.000 172.329 258.000 173.355 C 258.000 173.651 260.437 173.054 263.414 172.029 C 285.645 164.381 313.725 164.995 334.217 173.578 C 341.425 176.597 351.641 183.219 357.581 188.720 C 361.585 192.429 370.000 202.293 370.000 203.278 C 370.000 203.553 371.796 206.851 373.990 210.607 C 377.942 217.368 382.291 229.018 383.561 236.241 C 383.923 238.299 384.577 239.762 385.014 239.491 C 386.666 238.471 393.052 224.894 392.387 223.817 C 392.004 223.198 392.129 222.962 392.664 223.292 C 393.906 224.060 396.363 217.397 395.408 215.851 C 394.963 215.130 395.128 214.961 395.845 215.405 C 396.580 215.858 397.055 215.277 397.152 213.809 C 397.355 210.735 397.551 209.829 398.470 207.708 C 398.897 206.722 399.023 203.589 398.750 200.745 C 398.335 196.427 397.709 195.120 394.958 192.824 C 391.480 189.920 383.356 186.662 381.875 187.577 C 381.394 187.875 381.000 187.589 381.000 186.942 C 381.000 186.232 380.024 185.953 378.530 186.239 C 377.172 186.499 376.255 186.396 376.493 186.011 C 376.955 185.264 360.484 183.000 354.590 183.000 C 351.866 183.000 351.194 182.659 351.638 181.500 C 351.955 180.675 351.689 180.000 351.048 180.000 C 350.407 180.000 350.152 179.563 350.482 179.029 C 351.251 177.785 345.131 163.000 343.848 163.000 C 343.317 163.000 343.160 162.550 343.500 162.000 C 343.840 161.450 343.615 161.000 343.000 161.000 C 342.385 161.000 342.139 160.584 342.454 160.075 C 342.768 159.566 341.379 156.304 339.367 152.825 C 331.752 139.657 324.075 132.383 316.731 131.377 C 314.083 131.014 312.006 131.181 311.631 131.788 "/></g>
<g fill="#5C3822FE" stroke="#5C3822FE">
<path d="M 543.500 432.675 C 542.400 432.918 540.825 433.375 540.000 433.691 C 539.175 434.006 537.412 434.407 536.082 434.582 C 530.792 435.276 518.667 445.792 518.667 449.685 C 518.667 450.408 518.327 451.000 517.911 451.000 C 516.843 451.000 514.736 457.763 515.445 458.911 C 515.768 459.434 515.575 460.144 515.016 460.490 C 513.909 461.174 513.598 470.264 514.646 471.313 C 515.001 471.668 515.398 473.300 515.527 474.939 C 515.908 479.780 521.280 488.180 526.599 492.251 C 529.294 494.314 532.086 495.782 532.802 495.512 C 533.518 495.243 533.871 495.400 533.587 495.860 C 533.302 496.320 535.431 497.264 538.317 497.956 C 544.785 499.508 562.152 499.045 562.732 497.306 C 562.950 496.650 563.849 496.389 564.729 496.726 C 565.784 497.131 566.084 496.946 565.612 496.181 C 565.174 495.472 565.401 495.217 566.198 495.522 C 567.874 496.164 572.831 491.575 574.117 488.191 C 575.228 485.269 574.518 481.000 572.922 481.000 C 572.350 481.000 572.160 480.550 572.500 480.000 C 573.559 478.287 571.445 478.891 566.376 481.750 C 562.124 484.148 560.317 484.521 552.250 484.666 C 547.163 484.757 543.000 484.491 543.000 484.076 C 543.000 483.279 538.203 480.693 536.500 480.571 C 535.950 480.532 535.462 480.050 535.416 479.500 C 535.370 478.950 534.794 477.150 534.137 475.500 C 532.204 470.652 532.030 470.000 532.671 470.000 C 533.006 470.000 533.779 470.663 534.390 471.473 C 536.150 473.810 547.681 476.315 553.464 475.618 C 560.447 474.775 565.654 473.204 567.466 471.391 C 568.310 470.547 569.000 470.145 569.000 470.497 C 569.000 470.848 570.380 470.093 572.067 468.818 C 573.754 467.543 574.380 466.725 573.459 467.000 C 572.538 467.275 572.924 466.683 574.317 465.684 C 578.872 462.419 580.389 453.568 577.557 446.790 C 576.763 444.889 574.349 441.741 572.193 439.793 C 568.122 436.116 559.010 432.398 556.463 433.376 C 555.658 433.685 555.000 433.501 555.000 432.969 C 555.000 432.012 547.376 431.817 543.500 432.675 M 556.645 448.917 C 557.115 448.832 557.287 448.816 557.027 448.882 C 556.768 448.947 557.555 449.701 558.777 450.557 C 560.000 451.413 561.000 453.029 561.000 454.149 C 561.000 456.464 557.594 461.261 556.633 460.299 C 556.285 459.951 556.000 460.218 556.000 460.892 C 556.000 461.566 555.614 461.880 555.142 461.588 C 554.671 461.296 552.877 461.462 551.156 461.955 C 549.435 462.449 547.805 462.494 547.534 462.055 C 547.060 461.288 541.913 459.761 539.174 459.575 C 538.445 459.525 538.183 459.151 538.591 458.742 C 538.999 458.334 538.808 458.000 538.167 458.000 C 537.525 458.000 536.667 457.996 536.261 457.991 C 534.553 457.972 535.688 454.344 538.000 452.433 C 542.481 448.728 551.928 446.364 554.645 448.268 C 555.274 448.709 556.174 449.001 556.645 448.917 "/></g>
<g fill="#5C3822FE" stroke="#5C3822FE">
<path d="M 122.000 432.969 C 122.000 433.501 121.342 433.685 120.537 433.376 C 118.688 432.666 109.000 435.827 109.000 437.139 C 109.000 437.678 108.561 437.847 108.025 437.515 C 106.798 436.757 97.830 444.916 98.572 446.116 C 98.872 446.602 98.617 447.000 98.004 447.000 C 97.391 447.000 95.797 449.386 94.462 452.302 C 92.345 456.926 92.066 458.848 92.275 467.342 C 92.406 472.699 92.961 477.401 93.507 477.791 C 94.053 478.181 94.644 479.400 94.819 480.500 C 94.995 481.600 95.775 482.994 96.554 483.599 C 97.332 484.203 97.744 484.923 97.469 485.198 C 97.194 485.473 99.256 487.836 102.050 490.450 C 104.844 493.064 107.380 494.953 107.684 494.649 C 107.989 494.344 108.918 494.775 109.748 495.605 C 110.578 496.436 111.846 496.889 112.564 496.614 C 113.283 496.338 114.049 496.650 114.268 497.306 C 114.953 499.367 133.973 499.502 140.035 497.489 C 142.844 496.555 145.383 495.166 145.676 494.402 C 145.970 493.637 146.561 493.229 146.991 493.495 C 147.422 493.761 148.329 493.308 149.009 492.489 C 149.689 491.670 149.852 490.993 149.372 490.985 C 148.893 490.976 149.175 490.543 150.000 490.022 C 152.012 488.751 152.236 481.441 150.312 479.844 C 149.159 478.887 148.681 478.899 148.062 479.900 C 147.630 480.599 146.877 481.129 146.388 481.077 C 145.900 481.026 144.813 481.550 143.974 482.242 C 142.114 483.775 140.587 484.059 131.000 484.655 C 124.553 485.056 122.877 484.797 119.059 482.811 C 114.515 480.447 111.675 477.263 110.507 473.225 C 109.803 470.791 111.364 470.496 113.675 472.627 C 116.797 475.506 133.428 476.604 137.458 474.197 C 137.984 473.883 139.459 473.514 140.734 473.378 C 143.882 473.042 149.377 469.529 152.431 465.899 C 156.939 460.542 158.140 450.458 154.711 446.758 C 154.045 446.040 153.372 444.788 153.216 443.976 C 152.799 441.811 145.718 435.939 144.198 436.498 C 143.482 436.762 143.136 436.588 143.430 436.113 C 144.092 435.042 135.538 432.549 134.148 433.408 C 133.593 433.752 132.856 433.575 132.510 433.016 C 131.709 431.719 122.000 431.675 122.000 432.969 M 138.000 453.868 C 138.000 456.917 136.252 458.863 131.422 461.191 C 128.816 462.448 127.674 462.477 123.962 461.381 C 121.552 460.669 119.401 460.265 119.183 460.483 C 118.965 460.701 118.272 460.441 117.643 459.906 C 117.015 459.370 115.600 458.308 114.500 457.546 C 112.523 456.177 112.529 456.130 115.000 453.489 C 118.330 449.929 120.359 448.928 125.872 448.126 C 132.351 447.182 138.000 449.857 138.000 453.868 "/></g>
<g fill="#FEFEFEFE" stroke="#FEFEFEFE">
<path d="M 237.981 209.300 C 217.117 216.415 208.970 245.177 223.000 262.186 C 227.385 267.502 235.761 271.333 243.000 271.333 C 254.535 271.333 265.480 263.085 270.007 250.981 C 272.829 243.436 272.496 232.100 269.238 224.777 C 266.822 219.346 260.870 213.115 255.803 210.711 C 251.163 208.509 242.346 207.811 237.981 209.300 M 257.382 233.931 C 262.156 236.887 264.457 241.550 264.384 248.122 C 264.275 257.920 258.578 264.305 249.832 264.432 C 244.020 264.516 240.381 262.073 237.186 255.941 C 230.172 242.482 245.035 226.285 257.382 233.931 "/></g>
<g fill="#5C3822FE" stroke="#5C3822FE">
<path d="M 26.571 433.571 C 25.707 434.436 25.000 434.831 25.000 434.449 C 25.000 434.067 24.318 434.321 23.485 435.012 C 22.184 436.093 22.008 440.432 22.235 465.885 L 22.500 495.500 26.348 497.379 C 29.605 498.970 30.776 499.084 33.979 498.124 C 36.060 497.501 38.230 496.428 38.800 495.740 C 39.403 495.014 39.947 487.365 40.097 477.495 C 40.345 461.210 40.465 460.312 42.973 456.000 C 47.674 447.917 56.678 445.524 62.077 450.923 L 65.000 453.846 65.000 473.489 C 65.000 484.570 65.433 493.940 65.992 494.986 C 67.280 497.391 73.358 499.377 76.803 498.517 C 80.000 497.719 83.174 495.090 82.417 493.866 C 82.123 493.390 82.359 493.000 82.941 493.000 C 83.645 493.000 84.000 487.298 84.000 476.000 C 84.000 464.842 83.641 459.000 82.955 459.000 C 82.305 459.000 82.154 457.698 82.555 455.559 C 83.515 450.441 80.684 443.074 75.999 438.499 C 73.820 436.371 71.750 434.917 71.399 435.267 C 71.049 435.618 70.069 435.212 69.223 434.366 C 68.369 433.512 66.655 433.024 65.372 433.269 C 63.973 433.537 63.308 433.311 63.687 432.697 C 64.100 432.028 61.910 431.885 57.246 432.276 C 49.971 432.886 42.009 436.014 41.989 438.270 C 41.983 438.947 40.797 438.001 39.353 436.169 C 37.566 433.901 36.133 432.993 34.863 433.326 C 33.837 433.594 33.249 433.405 33.558 432.907 C 34.534 431.328 28.214 431.929 26.571 433.571 "/></g>
<g fill="#5C3822FE" stroke="#5C3822FE">
<path d="M 171.509 414.986 C 171.153 415.561 170.415 415.756 169.868 415.418 C 169.321 415.081 167.987 415.607 166.902 416.588 C 165.018 418.294 164.936 419.697 165.062 448.408 C 165.213 482.781 165.766 485.846 173.001 492.382 C 178.140 497.025 186.605 499.616 191.431 498.023 C 195.281 496.752 197.487 494.597 196.527 493.044 C 196.172 492.470 196.353 492.000 196.929 492.000 C 197.505 492.000 197.858 490.538 197.715 488.750 C 197.466 485.653 197.224 485.474 192.589 484.939 C 187.691 484.374 184.000 481.559 184.000 478.389 C 184.000 477.625 183.663 477.001 183.250 477.001 C 182.838 477.002 182.635 470.302 182.799 462.112 L 183.098 447.220 190.000 446.830 C 195.552 446.516 197.395 445.977 199.420 444.075 C 200.805 442.774 201.701 441.325 201.410 440.855 C 201.120 440.385 201.387 440.000 202.004 440.000 C 202.668 440.000 202.999 438.672 202.813 436.750 C 202.560 434.122 202.058 433.495 200.193 433.474 C 198.924 433.460 198.211 433.122 198.609 432.724 C 199.008 432.326 195.658 432.000 191.167 432.000 L 183.000 432.000 183.000 425.155 C 183.000 419.885 182.597 417.958 181.250 416.782 C 178.996 414.813 172.370 413.592 171.509 414.986 "/></g>
<g fill="#5C3822FE" stroke="#5C3822FE">
<path d="M 493.000 404.659 C 492.175 404.990 490.713 405.947 489.750 406.785 C 488.134 408.193 488.000 411.616 488.000 451.533 C 488.000 488.733 488.209 494.929 489.500 496.000 C 490.325 496.685 491.007 496.852 491.015 496.372 C 491.024 495.893 491.451 496.165 491.965 496.977 C 493.259 499.025 500.036 498.862 503.329 496.704 L 506.000 494.954 506.000 451.632 C 506.000 410.163 505.918 408.236 504.078 406.570 C 502.064 404.748 495.570 403.628 493.000 404.659 "/></g>
<g fill="#5C3822FE" stroke="#5C3822FE">
<path d="M 394.000 432.841 C 394.000 433.444 393.404 433.709 392.675 433.429 C 388.641 431.881 374.063 443.116 375.442 446.711 C 375.715 447.420 375.475 448.000 374.910 448.000 C 374.344 448.000 374.160 448.450 374.500 449.000 C 374.840 449.550 374.589 450.000 373.942 450.000 C 373.259 450.000 372.986 450.838 373.290 452.000 C 373.577 453.100 373.505 454.000 373.128 454.000 C 372.336 454.000 372.741 494.772 373.547 496.076 C 373.842 496.554 375.774 497.451 377.840 498.070 C 380.958 499.004 382.268 498.897 385.548 497.438 C 387.722 496.472 388.825 495.601 388.000 495.504 C 386.837 495.367 386.902 495.151 388.289 494.542 C 389.918 493.826 390.067 492.164 389.954 475.919 C 389.886 466.109 390.121 457.614 390.474 457.041 C 390.828 456.469 390.840 455.550 390.500 455.000 C 390.160 454.450 390.328 454.000 390.874 454.000 C 391.419 454.000 392.155 453.088 392.508 451.973 C 393.434 449.058 397.271 446.871 403.803 445.537 C 409.410 444.392 409.497 444.321 409.337 441.047 C 409.094 436.072 405.329 432.834 399.089 432.235 C 395.769 431.916 394.000 432.126 394.000 432.841 "/></g>
<g fill="#5C3822FE" stroke="#5C3822FE">
<path d="M 227.554 280.913 C 226.581 282.487 227.826 285.959 230.775 289.892 C 233.115 293.013 233.421 293.144 234.601 291.531 C 236.285 289.228 242.000 288.773 244.250 290.763 C 246.256 292.536 246.628 297.969 244.750 298.063 C 244.063 298.097 246.650 299.171 250.500 300.449 C 260.450 303.752 279.099 305.429 290.000 304.001 C 294.675 303.389 299.359 302.891 300.409 302.894 C 303.789 302.904 305.579 301.289 305.450 298.345 C 305.198 292.584 313.047 290.438 317.004 295.186 C 318.065 296.459 318.948 296.938 318.967 296.250 C 318.985 295.563 319.592 295.000 320.316 295.000 C 322.678 295.000 328.000 288.007 328.000 284.904 C 328.000 281.321 326.064 281.147 316.855 283.901 C 311.111 285.618 306.259 286.760 297.500 288.453 C 290.704 289.768 269.090 290.144 261.526 289.080 C 257.140 288.463 249.040 286.343 243.526 284.370 C 231.638 280.115 228.471 279.429 227.554 280.913 "/></g>
<g fill="#5C3822FE" stroke="#5C3822FE">
<path d="M 292.280 234.976 C 287.548 237.854 285.662 241.741 285.335 249.294 C 285.153 253.496 285.410 255.864 286.009 255.495 C 286.552 255.159 286.717 255.575 286.383 256.443 C 285.674 258.292 292.427 265.472 293.975 264.516 C 294.539 264.167 295.000 264.359 295.000 264.941 C 295.000 265.523 296.920 266.000 299.266 266.000 C 303.781 266.000 310.671 262.919 310.250 261.088 C 310.113 260.490 310.473 260.000 311.051 260.000 C 313.042 260.000 314.869 253.498 314.519 247.656 C 314.073 240.207 309.961 234.217 305.750 234.882 C 305.338 234.947 305.000 234.636 305.000 234.191 C 305.000 232.601 295.190 233.207 292.280 234.976 "/></g>
<g fill="#FEFEFEFE" stroke="#FEFEFEFE">
<path d="M 321.898 450.259 C 311.590 457.112 311.184 477.424 321.251 482.630 C 330.642 487.486 340.967 477.590 340.990 463.710 C 341.012 450.562 331.511 443.868 321.898 450.259 "/></g>
<g fill="#FEFEFEFE" stroke="#FEFEFEFE">
<path d="M 444.500 448.959 C 438.939 451.275 434.000 460.377 434.000 468.310 C 434.000 485.250 453.216 489.415 459.452 473.827 C 461.593 468.478 461.641 458.141 459.546 454.088 C 456.921 449.013 450.021 446.661 444.500 448.959 "/></g>
<g fill="#5C3822FE" stroke="#5C3822FE">
<path d="M 246.595 233.155 C 247.031 233.859 246.870 234.038 246.183 233.613 C 244.176 232.373 239.774 236.291 237.367 241.458 C 234.877 246.807 234.202 251.611 236.107 250.434 C 236.849 249.975 236.996 250.438 236.552 251.837 C 235.228 256.006 240.408 262.494 246.334 264.090 C 257.346 267.055 267.293 255.230 264.018 243.067 C 262.801 238.547 257.443 232.616 255.315 233.433 C 254.530 233.734 254.169 233.535 254.507 232.989 C 254.876 232.392 253.288 232.000 250.500 232.000 C 247.264 232.000 246.095 232.345 246.595 233.155 "/></g>
<g fill="#5C3822FE" stroke="#5C3822FE">
<path d="M 385.393 244.582 C 385.727 245.452 386.000 247.436 386.000 248.991 C 386.000 250.984 387.778 253.947 392.021 259.025 C 395.333 262.989 399.485 268.240 401.248 270.695 L 404.453 275.159 406.221 272.975 C 407.194 271.774 407.697 270.319 407.340 269.741 C 406.978 269.156 407.166 268.985 407.765 269.355 C 409.429 270.383 411.361 263.542 410.081 261.151 C 408.575 258.338 399.914 250.935 398.878 251.575 C 398.395 251.874 398.000 251.663 398.000 251.107 C 398.000 250.210 386.740 243.000 385.339 243.000 C 385.035 243.000 385.059 243.712 385.393 244.582 "/></g>
<g fill="#FEFEFEFE" stroke="#FEFEFEFE">
<path d="M 542.331 449.937 C 538.779 451.549 536.000 454.393 536.000 456.414 C 536.000 456.714 537.913 457.952 540.250 459.165 C 545.934 462.114 553.904 462.205 557.725 459.365 C 567.020 452.456 554.148 444.572 542.331 449.937 "/></g>
<g fill="#FEFEFEFE" stroke="#FEFEFEFE">
<path d="M 120.500 449.356 C 118.850 450.120 116.375 451.964 115.000 453.453 C 112.525 456.134 112.520 456.176 114.500 457.625 C 117.671 459.945 126.730 462.218 129.970 461.507 C 136.984 459.966 140.117 454.226 135.985 450.486 C 133.373 448.123 124.555 447.479 120.500 449.356 "/></g>
<g fill="#FCD000FE" stroke="#FCD000FE">
<path d="M 361.091 285.500 C 361.048 291.257 364.711 303.791 368.327 310.257 C 373.104 318.800 381.491 326.474 388.238 328.478 C 394.137 330.230 396.000 330.375 396.000 329.082 C 396.000 327.049 394.709 325.000 393.428 325.000 C 388.966 325.000 382.658 321.519 377.778 316.365 C 370.824 309.019 367.187 302.537 363.855 291.543 C 362.109 285.786 361.105 283.590 361.091 285.500 "/></g>
<g fill="#FEFEFEFE" stroke="#FEFEFEFE">
<path d="M 235.979 290.816 L 233.584 292.755 238.759 295.378 C 245.284 298.684 246.000 298.659 246.000 295.122 C 246.000 290.054 240.068 287.505 235.979 290.816 "/></g>
<g fill="#FEFEFEFE" stroke="#FEFEFEFE">
<path d="M 309.315 293.007 C 306.649 294.081 304.793 297.298 305.611 299.428 C 306.384 301.443 306.813 301.413 312.373 298.953 C 317.581 296.649 317.964 295.789 314.777 293.557 C 312.270 291.801 312.302 291.804 309.315 293.007 "/></g>
</svg>
