<?xml version="1.0" encoding="UTF-8"?>
<svg version="1.1" xmlns="http://www.w3.org/2000/svg" width="780" height="780">
<path d="M0 0 C257.4 0 514.8 0 780 0 C780 257.4 780 514.8 780 780 C522.6 780 265.2 780 0 780 C0 522.6 0 265.2 0 0 Z " fill="#FEFEFE" transform="translate(0,0)"/>
<path d="M0 0 C18.61222176 12.03925696 31.36206324 40.51345892 37.3125 61.125 C37.3125 62.445 37.3125 63.765 37.3125 65.125 C37.91618408 65.11049805 38.51986816 65.09599609 39.1418457 65.08105469 C45.37326209 64.99700051 51.34011914 65.45861589 57.5 66.375 C58.40983643 66.50922363 59.31967285 66.64344727 60.25708008 66.78173828 C89.82289001 71.3559435 89.82289001 71.3559435 97.3125 81.125 C101.79772517 94.58067551 95.07207693 110.02088911 89.3125 122.125 C87.59118042 125.40350147 85.82840252 128.65967059 83.99121094 131.87475586 C81.89662199 135.62967732 80.75742636 138.84585533 80.3125 143.125 C81.37210937 143.52138672 81.37210937 143.52138672 82.453125 143.92578125 C93.91899576 148.73455491 106.2976788 156.6027682 113.3125 167.125 C114.125 170.0625 114.125 170.0625 113.3125 173.125 C111.81686983 175.4728887 110.24794854 177.69010968 108.52734375 179.87890625 C107.09249739 182.06745599 107.09249739 182.06745599 107.4375 184.62890625 C108.4015692 187.3790858 109.59867962 189.19361591 111.375 191.5 C114.51164025 195.81856267 117.1693802 200.24289468 119.6875 204.9375 C120.03304932 205.57155762 120.37859863 206.20561523 120.73461914 206.85888672 C124.65503723 214.28013326 125.34301145 221.82312272 124.3125 230.125 C121.68171133 236.55200815 117.67758475 242.49304387 111.32421875 245.57421875 C100.21248195 249.71337335 100.21248195 249.71337335 94.3125 250.125 C98.47341736 255.90479518 102.86604198 260.78412832 108.296875 265.3984375 C113.22227444 269.6174812 113.22227444 269.6174812 113.8125 272.9375 C113.16959763 277.0360026 111.20337506 279.30736548 108.3125 282.125 C93.02038377 292.18303302 74.92184852 294.3301365 57.1875 290.6875 C54.0018855 289.97844387 50.8289857 289.26023368 47.671875 288.43359375 C43.86361511 287.93549353 41.57082257 289.10522672 38.32421875 291.015625 C34.78836579 294.72312131 34.61537032 299.50118289 33.90625 304.39453125 C32.59811377 312.61341347 28.62007219 318.85591111 23.3125 325.125 C22.54292969 326.05505859 22.54292969 326.05505859 21.7578125 327.00390625 C15.36692673 334.08280604 6.67746352 337.62786457 -2.73828125 338.36328125 C-14.42297599 338.62916053 -19.90043185 335.45846211 -28.3515625 327.56640625 C-33.07146801 322.63339464 -36.20860581 317.44748486 -38.6875 311.125 C-42.79187342 310.73125646 -46.89546188 310.40888889 -51.01049805 310.1484375 C-52.40551102 310.05050794 -53.79936148 309.93402206 -55.19116211 309.79785156 C-63.8022476 308.87444076 -63.8022476 308.87444076 -71.49267578 312.22363281 C-73.86461385 314.81401319 -73.86461385 314.81401319 -75.77758789 317.55126953 C-80.7325434 324.22839352 -88.01114126 327.18675889 -96.05078125 328.515625 C-102.88343968 328.8554375 -109.40602634 326.83301224 -114.69921875 322.46484375 C-119.48404951 317.41015269 -122.13157426 311.52917349 -124.6875 305.125 C-125.0484375 304.32320313 -125.409375 303.52140625 -125.78125 302.6953125 C-126.84848408 299.66841583 -127.08544444 296.88013207 -127.375 293.6875 C-128.19191916 287.97763987 -128.19191916 287.97763987 -131.875 283.8125 C-132.49890625 283.37679688 -133.1228125 282.94109375 -133.765625 282.4921875 C-140.95453482 277.37812564 -147.78794901 267.92410197 -151.6875 260.125 C-153.86875193 259.91782546 -156.05976382 259.81038827 -158.25 259.75 C-166.04659949 259.29044434 -170.59108544 257.73975007 -176.5 252.75 C-183.30850751 244.57979099 -183.45479308 235.34836981 -182.6875 225.125 C-180.89737524 216.75744541 -177.0097464 209.4440039 -172.6875 202.125 C-172.0275 202.125 -171.3675 202.125 -170.6875 202.125 C-170.44128906 201.42890625 -170.19507813 200.7328125 -169.94140625 200.015625 C-168.49435822 196.67975103 -166.65302368 193.89378657 -164.625 190.875 C-163.39022456 188.95569925 -162.16729302 187.02929177 -160.94726562 185.10058594 C-160.12735197 183.81478336 -159.29584328 182.53627747 -158.45117188 181.26660156 C-150.21566637 168.72827577 -148.80069404 156.09347428 -147.10693359 141.40332031 C-144.62646555 122.01582041 -137.83018747 99.19304933 -124.6875 84.125 C-124.0275 84.125 -123.3675 84.125 -122.6875 84.125 C-122.460625 83.3825 -122.23375 82.64 -122 81.875 C-120.41470952 78.553439 -118.59082025 77.35312949 -115.6875 75.125 C-114.94371094 74.19558594 -114.19992187 73.26617187 -113.43359375 72.30859375 C-110.69308225 68.96111309 -107.60362851 66.57722782 -104.0625 64.125 C-103.44640869 63.68696045 -102.83031738 63.2489209 -102.19555664 62.79760742 C-98.62390628 60.30452246 -95.08264973 58.27975399 -91.125 56.4375 C-84.58870332 53.05434351 -80.55629751 47.59010161 -75.94921875 42.015625 C-68.20157973 32.64938561 -59.28198634 24.56783144 -49.6875 17.125 C-48.74261719 16.37476563 -47.79773438 15.62453125 -46.82421875 14.8515625 C-34.28175993 5.11662095 -16.45001996 -8.15298712 0 0 Z " fill="#FDE404" transform="translate(418.6875,171.875)"/>
<path d="M0 0 C3.07365786 1.80803404 4.43019732 2.86039464 6 6 C6.08658569 8.55362604 6.11562516 11.0795442 6.09765625 13.6328125 C6.0962413 14.38464813 6.09482635 15.13648376 6.09336853 15.91110229 C6.08776465 18.3157751 6.07521157 20.72035527 6.0625 23.125 C6.0574855 24.75390491 6.0529225 26.38281127 6.04882812 28.01171875 C6.03779397 32.00784827 6.02052679 36.00390842 6 40 C7.30324219 39.57448853 7.30324219 39.57448853 8.6328125 39.14038086 C10.36144531 38.58942749 10.36144531 38.58942749 12.125 38.02734375 C13.83042969 37.47808228 13.83042969 37.47808228 15.5703125 36.91772461 C25.61028093 34.23120401 37.25231599 35.71319186 46.57421875 40.25390625 C56.1105085 46.19587287 61.8500414 54.00389498 64.60009766 64.96826172 C67.22076783 78.28280215 64.94755175 91.45518781 58.16796875 103.1640625 C54.23634602 108.91803502 50.04172239 113.49878985 44 117 C43.20851563 117.4846875 42.41703125 117.969375 41.6015625 118.46875 C31.18878635 123.83923627 17.32744834 124.11698406 6.16015625 120.890625 C3.16819718 119.48708304 0.64102092 117.97966342 -2 116 C-2.67933594 115.49339844 -3.35867188 114.98679687 -4.05859375 114.46484375 C-11.65663365 107.81451636 -16.26311361 96.877592 -17.19383049 86.92787933 C-17.27814493 84.73413026 -17.3044759 82.54790092 -17.30639648 80.35253906 C-17.31472 79.52874252 -17.32304352 78.70494598 -17.33161926 77.85618591 C-17.3555289 75.15928303 -17.36446378 72.46262228 -17.37109375 69.765625 C-17.38006804 67.88091971 -17.38919002 65.99621512 -17.39845276 64.11151123 C-17.41488873 60.1744209 -17.42263417 56.23741513 -17.42553711 52.30029297 C-17.430944 47.25382312 -17.46874157 42.20814492 -17.51428127 37.16189957 C-17.54399006 33.27572702 -17.55125917 29.38974764 -17.55226326 25.50347137 C-17.55647066 23.64229418 -17.56892575 21.78111668 -17.58978081 19.92005157 C-17.61659389 17.32272741 -17.61190312 14.72727399 -17.59936523 12.12988281 C-17.61419952 11.3620195 -17.62903381 10.59415619 -17.64431763 9.80302429 C-17.59161564 5.97524024 -17.32692688 4.34373915 -14.64613342 1.52508545 C-9.98432051 -1.16172656 -5.21238191 -0.73535678 0 0 Z " fill="#5E3B25" transform="translate(557,525)"/>
<path d="M0 0 C7.71071333 6.91987094 11.77307796 16.78221201 12.8125 26.875 C12.90717507 29.48540219 12.95569991 32.09461105 13.00195312 34.70629883 C13.05945552 49.32360309 13.05945552 49.32360309 19.8125 61.875 C20.24586933 64.92715831 20.30324939 67.82915324 19.8125 70.875 C16.67415316 74.17852299 14.0678012 75.73015755 9.5625 76.25 C4.80424856 75.77417486 3.15115662 74.21365662 -0.1875 70.875 C-1.20414371 69.55431331 -2.20789922 68.22339167 -3.1875 66.875 C-3.64898437 67.26171875 -4.11046875 67.6484375 -4.5859375 68.046875 C-15.53648007 76.78999594 -25.98037334 78.20307014 -39.74121094 77.20605469 C-47.85685589 76.1077698 -55.74226213 71.09819481 -60.8828125 64.796875 C-64.06161716 59.96787119 -66.45682114 55.38795716 -68.1875 49.875 C-68.579375 48.823125 -68.97125 47.77125 -69.375 46.6875 C-72.2637938 33.13239065 -69.46189497 20.28440703 -62.19921875 8.63671875 C-55.48962408 -0.57431705 -45.76866234 -6.7644266 -34.5390625 -8.84765625 C-21.26642962 -10.41303322 -11.05905932 -7.37270621 0 0 Z " fill="#5F3B26" transform="translate(453.1875,570.125)"/>
<path d="M0 0 C11.20299888 8.28047744 16.48739806 18.21354983 18.875 31.8125 C20.364864 46.02660785 15.64025205 58.16462193 7.875 69.8125 C7.215 69.8125 6.555 69.8125 5.875 69.8125 C5.875 70.4725 5.875 71.1325 5.875 71.8125 C0.95522148 76.50438687 -4.87176015 79.34263866 -11.125 81.8125 C-11.88296875 82.16957031 -12.6409375 82.52664063 -13.421875 82.89453125 C-22.48058892 85.97082861 -33.06254352 84.42179049 -41.50390625 80.3671875 C-45.55061367 77.96690501 -48.87057231 75.19649506 -52.125 71.8125 C-53.424375 70.4821875 -53.424375 70.4821875 -54.75 69.125 C-63.77892462 57.73135703 -64.67576837 45.70880969 -64.125 31.8125 C-63.7552629 28.8546032 -63.11399919 26.68059764 -62.125 23.8125 C-61.77501953 22.65234375 -61.77501953 22.65234375 -61.41796875 21.46875 C-57.84227483 10.88861457 -49.86631071 3.0285919 -40.125 -2.1875 C-26.61486688 -8.27185073 -12.46975578 -8.20083038 0 0 Z " fill="#FDFDFA" transform="translate(424.125,272.1875)"/>
<path d="M0 0 C2.74171394 1.12832074 4.21775078 0.67261755 7.03125 -0.1640625 C8.56365786 -0.82536156 10.08446892 -1.51405925 11.59375 -2.2265625 C20.68976998 -5.92984552 30.08959396 -4.88174028 39.03125 -1.1640625 C47.10787689 3.18489044 51.24596568 9.22333195 54.20852661 17.72268677 C55.62113616 23.06811364 55.58183911 28.30109751 55.52734375 33.80078125 C55.52879898 34.9965126 55.53025421 36.19224396 55.53175354 37.42420959 C55.53010426 39.93102476 55.51865308 42.43785108 55.49780273 44.94458008 C55.46864668 48.78705442 55.47725531 52.62816381 55.49023438 56.47070312 C55.48400214 58.91406921 55.47561525 61.35743096 55.46484375 63.80078125 C55.46777939 64.94868637 55.47071503 66.09659149 55.47373962 67.27928162 C55.46105545 68.34461624 55.44837128 69.40995087 55.43530273 70.50756836 C55.42989975 71.44257675 55.42449677 72.37758514 55.41893005 73.34092712 C54.95667481 76.31588449 54.10558839 77.67770167 52.03125 79.8359375 C49.12038331 80.8062264 47.12901315 81.00061597 44.09375 81.0234375 C43.23910156 81.03761719 42.38445312 81.05179688 41.50390625 81.06640625 C38.82472492 80.81668793 37.27927744 80.2973981 35.03125 78.8359375 C32.81753381 75.51536322 32.7810697 74.48365364 32.77587891 70.61767578 C32.76891998 69.55292023 32.76196106 68.48816467 32.75479126 67.3911438 C32.75578827 66.24112885 32.75678528 65.09111389 32.7578125 63.90625 C32.7375237 61.47785997 32.71667291 59.04947459 32.6953125 56.62109375 C32.67269965 52.78723233 32.65623874 48.95355398 32.65039062 45.11962891 C32.64087959 41.42316472 32.60711594 37.72752903 32.5703125 34.03125 C32.57788071 32.31230026 32.57788071 32.31230026 32.58560181 30.55862427 C32.54704356 24.28753004 32.54704356 24.28753004 30.13842773 18.61303711 C27.03975702 15.99975659 24.99002035 16.18850615 21.08984375 16.40625 C18.85060093 16.6924902 18.85060093 16.6924902 17.03125 18.6484375 C15.37656829 22.26805374 14.90725144 25.03807791 14.90527344 28.97827148 C14.90146667 30.02623398 14.89765991 31.07419647 14.89373779 32.15391541 C14.89271057 33.28519363 14.89168335 34.41647186 14.890625 35.58203125 C14.87230325 37.96941063 14.85273354 40.3567807 14.83203125 42.74414062 C14.80300718 46.51456463 14.78124859 50.28438847 14.78076172 54.05493164 C14.77743661 57.6895089 14.74294611 61.32269467 14.703125 64.95703125 C14.7101947 66.08628525 14.7172644 67.21553925 14.72454834 68.37901306 C14.60266769 76.1833004 14.60266769 76.1833004 11.65917969 79.54516602 C8.72277347 80.98745324 6.79396576 81.37259723 3.53125 81.3359375 C2.15453125 81.35140625 2.15453125 81.35140625 0.75 81.3671875 C-3.0554253 80.62359865 -4.38200671 79.78863375 -6.96875 76.8359375 C-7.71914886 72.92050193 -7.61768521 69.03812497 -7.5703125 65.0625 C-7.57831879 63.90599945 -7.58632507 62.7494989 -7.59457397 61.55795288 C-7.61768036 57.85859276 -7.60816695 54.1603277 -7.59375 50.4609375 C-7.58990212 46.76889299 -7.59335465 43.07733532 -7.61434937 39.38534546 C-7.62643154 37.08819478 -7.62378125 34.79090768 -7.60464478 32.49380493 C-7.62415718 26.90148651 -7.66047494 22.60045783 -10.96875 17.8359375 C-13.49350462 16.57356019 -15.28075466 16.73737346 -18.09375 16.7734375 C-19.00382812 16.78246094 -19.91390625 16.79148437 -20.8515625 16.80078125 C-21.89957031 16.81818359 -21.89957031 16.81818359 -22.96875 16.8359375 C-24.62696958 20.47355546 -25.21875823 23.30905517 -25.22412109 27.29711914 C-25.23455948 28.89886742 -25.23455948 28.89886742 -25.24520874 30.53297424 C-25.24421173 31.67580368 -25.24321472 32.81863312 -25.2421875 33.99609375 C-25.26246785 36.42253073 -25.28331846 38.84896299 -25.3046875 41.27539062 C-25.32733488 45.09615061 -25.34377791 48.91672468 -25.34960938 52.73754883 C-25.35910494 56.42823748 -25.39283802 60.11809127 -25.4296875 63.80859375 C-25.42464203 64.95344742 -25.41959656 66.09830109 -25.41439819 67.27784729 C-25.42766144 68.34252731 -25.44092468 69.40720734 -25.45458984 70.50415039 C-25.4588649 71.90716148 -25.4588649 71.90716148 -25.46322632 73.33851624 C-26.119156 76.57898309 -27.45576031 77.75953941 -29.96875 79.8359375 C-32.5048028 81.1039639 -34.44886164 81.11128649 -37.28125 81.2109375 C-38.22613281 81.25992188 -39.17101562 81.30890625 -40.14453125 81.359375 C-44.31106968 80.58715349 -45.45641589 79.26567074 -47.96875 75.8359375 C-48.71640357 71.79505791 -48.64521869 67.80259914 -48.59765625 63.703125 C-48.60006821 62.51550568 -48.60248016 61.32788635 -48.60496521 60.10427856 C-48.60398623 57.59096948 -48.59058072 55.07763898 -48.56567383 52.56445312 C-48.53155727 48.74533392 -48.54496752 44.92855425 -48.56445312 41.109375 C-48.55754884 38.66144859 -48.54787121 36.21352812 -48.53515625 33.765625 C-48.54011612 32.63502655 -48.54507599 31.5044281 -48.55018616 30.33956909 C-48.39488064 19.70719017 -45.87680103 10.53924198 -38.359375 2.78515625 C-27.60976618 -5.97963918 -12.00487188 -7.09811869 0 0 Z " fill="#5E3A25" transform="translate(316.96875,565.1640625)"/>
<path d="M0 0 C18.61222176 12.03925696 31.36206324 40.51345892 37.3125 61.125 C37.3125 62.445 37.3125 63.765 37.3125 65.125 C37.91618408 65.11049805 38.51986816 65.09599609 39.1418457 65.08105469 C45.37326209 64.99700051 51.34011914 65.45861589 57.5 66.375 C58.40983643 66.50922363 59.31967285 66.64344727 60.25708008 66.78173828 C89.82289001 71.3559435 89.82289001 71.3559435 97.3125 81.125 C101.80129044 94.59137132 95.06372878 110.00736126 89.3125 122.125 C86.41314341 127.8453869 83.37627267 133.49139623 80.3125 139.125 C78.0887989 135.78944835 77.45997918 132.7726426 76.625 128.9375 C74.56670459 120.15510491 71.2525341 112.21582454 67.3125 104.125 C66.8278125 103.12597656 66.343125 102.12695312 65.84375 101.09765625 C61.00796087 91.73503118 54.75293614 83.55273915 47.3125 76.125 C46.961875 75.403125 46.61125 74.68125 46.25 73.9375 C45.46581094 71.98380269 45.46581094 71.98380269 43.54296875 71.24609375 C40.91757988 69.92650249 38.93624425 68.26482416 36.6875 66.375 C28.85451709 60.03510767 20.79558132 55.4912319 11.3125 52.125 C10.13171875 51.70089844 8.9509375 51.27679688 7.734375 50.83984375 C-5.96300509 46.06160735 -18.56467198 44.68838231 -33 44.6875 C-33.8401062 44.68543549 -34.6802124 44.68337097 -35.54577637 44.6812439 C-49.15430998 44.68724013 -61.65032877 46.02080897 -74.6875 50.125 C-76.54635613 50.68272188 -78.40573173 51.23871534 -80.265625 51.79296875 C-81.73970622 52.23657102 -83.21371071 52.6804288 -84.6875 53.125 C-81.81196234 48.56521885 -78.63151226 44.66730572 -74.9375 40.75 C-74.40455322 40.18055664 -73.87160645 39.61111328 -73.32250977 39.02441406 C-71.78320241 37.38577405 -70.23666249 35.75431868 -68.6875 34.125 C-67.96949219 33.36445313 -67.25148438 32.60390625 -66.51171875 31.8203125 C-61.29315446 26.439681 -55.5737286 21.7549731 -49.6875 17.125 C-48.73746094 16.36960938 -47.78742188 15.61421875 -46.80859375 14.8359375 C-34.26137388 5.11225978 -16.44803654 -8.1520041 0 0 Z " fill="#5D3B2E" transform="translate(418.6875,171.875)"/>
<path d="M0 0 C5.5743267 4.54204398 9.48774317 9.18767175 10.27734375 16.60546875 C10.55567928 24.67719911 9.13821649 31.49030339 3.5703125 37.625 C-5.21128034 45.31435492 -17.55147227 48.33050972 -28.953125 48.22265625 C-36.35455101 47.68178281 -43.5786534 45.74578552 -50 42 C-47.84542358 48.52709915 -46.06486111 53.22376572 -40 57 C-30.76200923 61.51798356 -19.64056403 61.24942661 -10 58 C-7.88627578 57.04675182 -5.85087292 56.02826273 -3.82421875 54.90234375 C-1.90322753 53.95213182 -0.09027097 53.44758562 2 53 C4.1367793 55.31484424 4.95843145 56.72683526 5.4375 59.875 C4.6946986 65.18072426 1.95857256 68.10394304 -1.875 71.6875 C-12.95429227 79.88617628 -26.76816554 78.89744654 -40 78 C-44.10768661 77.22787846 -47.37832527 76.06038739 -51 74 C-52.18722656 73.34644531 -52.18722656 73.34644531 -53.3984375 72.6796875 C-63.30157121 66.65884541 -69.59450198 57.94351827 -72.609375 46.734375 C-74.65469714 32.41712004 -73.3023718 20.19805324 -64.8125 8.1875 C-49.34441897 -10.38093714 -19.69172315 -13.98452508 0 0 Z " fill="#5E3B26" transform="translate(741,569)"/>
<path d="M0 0 C6.02399339 5.58866575 10.02263599 11.47400388 10.4375 19.875 C10.14849389 27.81062614 6.91193472 34.0508508 1.1328125 39.4296875 C-7.50317644 45.78805298 -16.24661681 47.20912965 -26.625 47.3125 C-27.57246094 47.34150391 -28.51992187 47.37050781 -29.49609375 47.40039062 C-37.27529881 47.46956276 -43.1084384 45.4457808 -50 42 C-48.37562348 48.96161364 -46.11819769 53.15145629 -40 57 C-31.96019184 61.57437361 -21.97921234 60.96355308 -13.234375 58.77734375 C-9.69444765 57.5457956 -6.44417705 55.82489724 -3.1640625 54.0234375 C-1 53 -1 53 2 53 C4.47866812 56.71800218 4.64719062 59.69085739 4 64 C0.8438256 70.43859579 -4.35951946 74.21397989 -10.99609375 76.6171875 C-16.60791299 78.41221386 -22.02437648 78.47818069 -27.875 78.4375 C-28.88691406 78.45748047 -29.89882812 78.47746094 -30.94140625 78.49804688 C-43.05440379 78.49029208 -53.23327271 74.15490746 -62.16015625 66.03515625 C-71.55080971 56.32855557 -74.42353912 44.6353389 -74.2734375 31.44140625 C-73.34906332 19.80749696 -67.59948738 10.12635685 -59.25 2.1875 C-43.32508309 -10.89809064 -16.71472616 -12.63398247 0 0 Z " fill="#5E3A25" transform="translate(192,569)"/>
<path d="M0 0 C9.90283654 5.73746432 16.81622866 12.52334697 20.3125 23.5625 C23.49872085 36.59703983 21.88361982 49.98663135 15.25390625 61.625 C9.24021082 71.27298832 1.6112154 77.4875048 -9.5 80.4375 C-20.90256114 81.92479058 -30.95213019 79.84807891 -40.25 72.9375 C-47.85112614 65.74825754 -52.35254689 56.55852061 -52.66796875 46.1953125 C-52.67980704 44.65107332 -52.68621095 43.10678402 -52.6875 41.5625 C-52.69974609 40.79808594 -52.71199219 40.03367187 -52.72460938 39.24609375 C-52.75602627 26.90972481 -48.14845769 16.46745472 -39.75 7.48046875 C-28.7978685 -2.46391454 -13.73040874 -6.55911246 0 0 Z " fill="#FDFDFA" transform="translate(331.5,271.5625)"/>
<path d="M0 0 C1.68156088 0.96723929 3.30778346 2.02940772 4.921875 3.10546875 C4.921875 4.42546875 4.921875 5.74546875 4.921875 7.10546875 C5.52515625 6.76773438 6.1284375 6.43 6.75 6.08203125 C7.54921875 5.63601563 8.3484375 5.19 9.171875 4.73046875 C10.35523438 4.06917969 10.35523438 4.06917969 11.5625 3.39453125 C20.78890658 -1.64638625 31.09428874 -2.48029541 41.296875 0.35546875 C49.00623866 3.02788395 53.69260908 7.22352716 57.921875 14.10546875 C63.34298837 25.3259127 62.24431937 37.92467247 62.3269043 50.07299805 C62.34856892 52.47158124 62.38277006 54.87008364 62.42944336 57.26831055 C62.49624489 60.73652218 62.52386183 64.20311204 62.54296875 67.671875 C62.57079941 68.74280899 62.59863007 69.81374298 62.62730408 70.91712952 C62.60729635 78.13788671 62.60729635 78.13788671 60.65068054 80.89996338 C57.2274054 83.89080635 54.33995191 84.78828265 49.859375 84.73046875 C48.85777344 84.74335937 47.85617188 84.75625 46.82421875 84.76953125 C42.69720395 83.82526138 41.45608219 82.51828513 38.921875 79.10546875 C38.19640788 75.29618703 38.27212211 71.53949021 38.3203125 67.671875 C38.31230621 66.56118149 38.30429993 65.45048798 38.29605103 64.30613708 C38.27297972 60.7597095 38.28244579 57.21442728 38.296875 53.66796875 C38.30072442 50.12529517 38.29726335 46.58312877 38.27627563 43.04051208 C38.26420367 40.83795694 38.26682702 38.63525947 38.28598022 36.43275452 C38.26599063 30.94027055 38.16463391 26.77958316 34.921875 22.10546875 C30.02881404 18.84342811 24.63972236 19.55554015 18.921875 20.10546875 C13.37068512 22.48455013 10.52107707 26.80351075 7.921875 32.10546875 C7.08985745 34.90782558 6.79408762 37.4178903 6.7800293 40.33569336 C6.77299484 41.16012436 6.76596039 41.98455536 6.75871277 42.83396912 C6.75454849 43.71633743 6.75038422 44.59870575 6.74609375 45.5078125 C6.72290196 47.38607899 6.69878488 49.26433425 6.67382812 51.14257812 C6.63868465 54.09635016 6.60934444 57.04970616 6.59594727 60.00366211 C6.58046792 62.85971978 6.54026932 65.71457333 6.49609375 68.5703125 C6.49800217 69.45065659 6.49991058 70.33100067 6.50187683 71.23802185 C6.41938788 75.37765736 6.26423994 77.56198026 4.01098633 81.13891602 C0.72110133 84.23579853 -1.44339087 84.33789404 -5.890625 84.48046875 C-6.92832031 84.52945313 -7.96601562 84.5784375 -9.03515625 84.62890625 C-13.19550665 83.91326189 -14.45827857 82.37193454 -17.078125 79.10546875 C-17.70631409 75.68382263 -17.70631409 75.68382263 -17.70922852 71.71655273 C-17.71638382 70.99072998 -17.72353912 70.26490723 -17.73091125 69.51708984 C-17.74776287 67.1279323 -17.72842103 64.74066054 -17.70703125 62.3515625 C-17.7078602 60.68677109 -17.71032056 59.02197976 -17.71434021 57.35719299 C-17.71719564 53.87272427 -17.70252106 50.38889926 -17.67504883 46.90454102 C-17.64093932 42.43975968 -17.64699511 37.97612715 -17.6657114 33.51129055 C-17.67628211 30.07540826 -17.66734351 26.63979308 -17.65232658 23.20393562 C-17.64714657 21.55771745 -17.6476244 19.91147136 -17.65387154 18.26525688 C-17.65932594 15.96455804 -17.6389456 13.66550183 -17.61157227 11.36499023 C-17.60537369 10.05658676 -17.59917511 8.74818329 -17.5927887 7.40013123 C-16.99357464 3.56421262 -16.1503432 2.39987768 -13.078125 0.10546875 C-8.65134873 -1.37012334 -4.33539568 -1.86617596 0 0 Z " fill="#5E3B25" transform="translate(45.078125,561.89453125)"/>
<path d="M0 0 C3.02286884 1.38548155 4.66871425 2.66871425 7 5 C7.22705078 6.87939453 7.22705078 6.87939453 7.1953125 9.1328125 C7.18886719 9.93847656 7.18242187 10.74414062 7.17578125 11.57421875 C7.15902344 12.41597656 7.14226562 13.25773438 7.125 14.125 C7.11597656 14.97449219 7.10695312 15.82398438 7.09765625 16.69921875 C7.07405647 18.79959884 7.03818483 20.89983444 7 23 C7.64549805 22.98952637 8.29099609 22.97905273 8.95605469 22.96826172 C11.88733002 22.92662728 14.81854304 22.90065025 17.75 22.875 C18.76578125 22.85824219 19.7815625 22.84148438 20.828125 22.82421875 C21.8078125 22.81777344 22.7875 22.81132813 23.796875 22.8046875 C24.69760742 22.79421387 25.59833984 22.78374023 26.52636719 22.77294922 C29.13926856 23.01278324 30.75664666 23.67687936 33 25 C33.66964286 32.76785714 33.66964286 32.76785714 30.75 36.375 C25.67598183 41.21838098 22.00751731 41.27068445 15.25 41.125 C14.45722656 41.11597656 13.66445312 41.10695313 12.84765625 41.09765625 C10.89830719 41.07417012 8.94911425 41.03830137 7 41 C7.06912457 46.42646953 7.15721073 51.85218667 7.26245117 57.27807617 C7.29559026 59.12174088 7.32365613 60.96550436 7.34643555 62.80932617 C7.38018512 65.46836208 7.43250966 68.12650187 7.48828125 70.78515625 C7.49467117 71.60210464 7.5010611 72.41905304 7.50764465 73.26075745 C7.6587427 79.21700315 8.63077752 84.15693302 12.5625 88.875 C15.4898116 91.16593951 17.98187654 91.2659667 21.625 91.5625 C23.12933594 91.68818359 23.12933594 91.68818359 24.6640625 91.81640625 C25.43492187 91.87699219 26.20578125 91.93757812 27 92 C27.31464883 97.24414718 26.83856733 100.53939419 24 105 C20.75077769 108.08749631 18.30138445 108.45733605 13.875 108.5 C4.85043318 108.24735255 -1.14538038 105.28304414 -7.375 98.8125 C-14.26529118 90.4606319 -16.0758313 81.31553066 -16.20874023 70.69702148 C-16.21852402 69.99216614 -16.2283078 69.28731079 -16.23838806 68.56109619 C-16.26810467 66.24778077 -16.28965077 63.93452156 -16.30859375 61.62109375 C-16.31845149 60.43064296 -16.31845149 60.43064296 -16.32850838 59.21614265 C-16.36098445 55.02179875 -16.38547355 50.82747916 -16.4050293 46.63305664 C-16.42289123 43.16718856 -16.45780446 39.70212662 -16.50756836 36.23657227 C-16.56772665 32.04094859 -16.59849585 27.84607597 -16.60820198 23.65004158 C-16.6167569 22.05479222 -16.63557637 20.45956301 -16.6649456 18.86456108 C-16.70384679 16.6333411 -16.70490019 14.40506231 -16.69702148 12.17358398 C-16.70732895 10.90594711 -16.71763641 9.63831024 -16.72825623 8.33226013 C-14.89816988 -0.041611 -7.4823763 -1.17419595 0 0 Z " fill="#5E3B26" transform="translate(229,538)"/>
<path d="M0 0 C2.54878922 1.17244304 4.06297378 2.06297378 6 4 C6.10425326 5.44550628 6.13961645 6.89604993 6.14717102 8.34529114 C6.15432632 9.28327042 6.16148163 10.22124969 6.16885376 11.18765259 C6.17288712 12.74375748 6.17288712 12.74375748 6.17700195 14.33129883 C6.18357315 15.41741959 6.19014435 16.50354034 6.19691467 17.62257385 C6.21670312 21.23406026 6.22832227 24.84550499 6.23828125 28.45703125 C6.24235678 29.68676855 6.2464323 30.91650585 6.25063133 32.18350792 C6.26935878 38.01943034 6.28391944 43.85533626 6.2922433 49.69128305 C6.30201533 56.43171158 6.32833027 63.17181167 6.36874419 69.91212445 C6.40252712 75.74643833 6.41438708 81.58064186 6.41844749 87.41504478 C6.42333126 89.89861974 6.43499567 92.38219074 6.45348549 94.86570168 C6.47772782 98.33757557 6.47693888 101.80858569 6.4699707 105.28051758 C6.48278076 106.31184814 6.49559082 107.34317871 6.50878906 108.40576172 C6.4576693 115.37335921 6.4576693 115.37335921 4.09562683 118.60746765 C0.79421875 120.80123492 -1.2928962 121.23444713 -5.25 121.375 C-6.18328125 121.42398438 -7.1165625 121.47296875 -8.078125 121.5234375 C-12.04841205 120.81218287 -14.63853832 119.22272266 -17 116 C-17.88701032 112.44033956 -17.79972147 108.95943641 -17.74462891 105.30639648 C-17.7555809 103.69096954 -17.7555809 103.69096954 -17.76675415 102.04290771 C-17.7829595 98.48499365 -17.75575554 94.92890309 -17.7265625 91.37109375 C-17.72552527 88.89917502 -17.72656077 86.42725462 -17.72958374 83.95533752 C-17.72940433 78.77604529 -17.70855168 73.59737591 -17.67236328 68.41821289 C-17.6269644 61.77430075 -17.62590499 55.13129781 -17.63939857 48.48727322 C-17.64607607 43.38377275 -17.6328225 38.28048018 -17.61314011 33.17701912 C-17.60543398 30.72697093 -17.60314056 28.27689961 -17.6063118 25.82684135 C-17.60705223 22.40551419 -17.58184112 18.98536016 -17.54931641 15.56420898 C-17.55427124 14.54851334 -17.55922607 13.53281769 -17.56433105 12.48634338 C-17.46005646 5.62593489 -17.46005646 5.62593489 -15.09066772 2.40223694 C-10.312196 -0.80274369 -5.62878147 -0.47921805 0 0 Z " fill="#5F3B26" transform="translate(650,525)"/>
<path d="M0 0 C2.99123659 3.46353711 3.95335558 5.27701149 4.25 9.875 C4.1675 10.90625 4.085 11.9375 4 13 C3.29875 13.02578125 2.5975 13.0515625 1.875 13.078125 C-4.38386316 13.45229617 -9.96539698 13.99286698 -15 18 C-19.26068965 23.17445351 -21.11330457 28.02802323 -21.1418457 34.70507812 C-21.14888016 35.63284058 -21.15591461 36.56060303 -21.16316223 37.51647949 C-21.16732651 38.51135376 -21.17149078 39.50622803 -21.17578125 40.53125 C-21.19896937 42.64193717 -21.22308628 44.7526143 -21.24804688 46.86328125 C-21.28322839 50.18805772 -21.31255014 53.51246192 -21.32592773 56.83740234 C-21.34137163 60.04830692 -21.38154575 63.2581301 -21.42578125 66.46875 C-21.42387283 67.46362427 -21.42196442 68.45849854 -21.41999817 69.48352051 C-21.5425583 76.3786227 -21.5425583 76.3786227 -23.91088867 79.59570312 C-27.2045811 81.80971724 -29.29014035 82.23434925 -33.25 82.375 C-34.18328125 82.42398438 -35.1165625 82.47296875 -36.078125 82.5234375 C-40.02654183 81.81610079 -42.61994268 80.17769324 -45 77 C-45.84519367 73.69019284 -45.74740715 70.48925811 -45.65625 67.08984375 C-45.65250366 66.12655655 -45.64875732 65.16326935 -45.64489746 64.17079163 C-45.63146888 62.13235634 -45.60366326 60.09397207 -45.5625 58.0559082 C-45.50069784 54.97231825 -45.48059976 51.89078624 -45.46875 48.80664062 C-45.22341172 17.5805732 -45.22341172 17.5805732 -34.8125 6.1875 C-26.16152449 -1.81985807 -10.54027956 -7.52877112 0 0 Z " fill="#5E3B26" transform="translate(527,564)"/>
<path d="M0 0 C6.09426099 0.21765218 11.15736388 1.65706364 16.8125 3.875 C23.45933796 6.47533201 29.99951851 8.53184347 37 10 C37.845625 10.20496094 38.69125 10.40992188 39.5625 10.62109375 C63.9231501 15.75524239 94.16926923 12.42549169 117.30078125 3.35546875 C121.70750919 1.74075429 124.39306723 1.67670647 129 2 C130 3 130 3 130 6.5625 C129.25192362 12.02542621 126.03672644 15.44768073 122 19 C119.0625 20.5 119.0625 20.5 117 21 C116.484375 20.175 115.96875 19.35 115.4375 18.5 C113.17410038 15.65995457 113.17410038 15.65995457 109.5625 15.5625 C106.31913534 15.96080794 103.92259432 16.58298457 101 18 C100.67 21.3 100.34 24.6 100 28 C91.9003423 30.48389503 84.45777335 31.70464918 76 32 C75.30374512 32.02723145 74.60749023 32.05446289 73.89013672 32.08251953 C57.49087247 32.65146629 40.69810182 31.04039633 25 26 C23.37137854 24.37137854 23.84093891 22.36599469 23.75 20.125 C23.4398418 15.98945261 23.4398418 15.98945261 20.8125 12.875 C17.55599243 11.86186431 15.38830652 11.50587197 12 12 C9.15079947 13.87769142 9.15079947 13.87769142 7 16 C0.03624733 9.49040512 0.03624733 9.49040512 -1 5 C-0.625 2.1875 -0.625 2.1875 0 0 Z " fill="#E3504F" transform="translate(295,363)"/>
<path d="M0 0 C0.99 0.495 0.99 0.495 2 1 C1.74134768 12.94503432 -2.11725805 23.00783511 -10 32 C-10.76763672 32.92425781 -10.76763672 32.92425781 -11.55078125 33.8671875 C-17.92840865 40.96020508 -26.63679105 44.50300161 -36.05078125 45.23828125 C-47.72813497 45.50399349 -53.2235032 42.34117497 -61.66015625 34.4375 C-66.52075478 29.37403842 -70.62846313 24.24496905 -71 17 C-68.15512642 16.05170881 -65.98892778 15.76915241 -63.01953125 15.5703125 C-61.53247681 15.46323975 -61.53247681 15.46323975 -60.01538086 15.35400391 C-58.95843018 15.27843262 -57.90147949 15.20286133 -56.8125 15.125 C-37.98219025 13.65464786 -17.93631508 10.85992283 -1 2 C-0.67 1.34 -0.34 0.68 0 0 Z " fill="#FCD102" transform="translate(452,465)"/>
<path d="M0 0 C1.01964844 -0.01675781 2.03929687 -0.03351562 3.08984375 -0.05078125 C7.70681342 0.51344763 10.24643915 2.40576572 13.3125 5.8125 C17.79655783 12.2182969 16.70169055 21.75781168 16.0625 29.3125 C14.36292962 36.96056671 10.87689801 41.73999902 4.375 46.125 C-1.37441063 48.18610947 -6.58738696 48.28801862 -12.25 45.9375 C-18.05803446 40.26453611 -20.24439993 34.40356425 -20.5 26.3125 C-20.13493189 17.22526419 -17.51012173 10.48155066 -11.5 3.6875 C-7.86581931 0.48942099 -4.78585378 0.01810537 0 0 Z " fill="#FCFCFB" transform="translate(425.9375,580.6875)"/>
<path d="M0 0 C4.59437056 4.24979276 6.26190525 8.24849383 6.73828125 14.37890625 C6.93785656 23.77995352 5.94839806 32.12335305 0.125 39.8125 C-4.16115123 43.8945488 -7.6199131 45.4767126 -13.5 45.75 C-19.12498685 45.53916841 -21.93424748 43.77616688 -25.97265625 39.8984375 C-31.12276821 33.61501399 -30.43908069 25.0790633 -29.78662109 17.39746094 C-28.77203786 10.0171025 -24.83258437 4.91069521 -19.1484375 0.37109375 C-13.57840942 -3.20586741 -5.73404036 -2.7646266 0 0 Z " fill="#FCFCFB" transform="translate(592.5,582.6875)"/>
<path d="M0 0 C5.09871833 3.67582019 8.71777768 7.91990797 10.6875 13.9375 C11.64139165 21.25806386 10.76143458 27.70751388 6.6875 33.9375 C3.02754157 38.0386589 -1.12036069 40.58342311 -6.6015625 41.19140625 C-12.78949533 41.4811735 -16.33569417 40.64570826 -21.3125 36.9375 C-26.41031619 32.11084424 -28.33973659 27.09719955 -28.75 20.1875 C-28.6016875 13.17443736 -25.7388648 7.30468517 -20.75 2.4375 C-14.01619671 -1.70637895 -7.6656023 -2.4587781 0 0 Z " fill="#5D3C30" transform="translate(397.3125,303.0625)"/>
<path d="M0 0 C4.41854291 3.11306432 8.02390999 6.75922996 9.75 11.9375 C10.41190632 19.37921815 10.91182947 26.14868599 6.25 32.3203125 C1.5783834 37.35689915 -2.42803889 40.0420438 -9.4375 40.4375 C-13.84918399 40.39081551 -16.27466725 39.76014363 -19.6875 36.9375 C-24.56447159 31.94035662 -27.38239857 27.10954643 -27.8125 20.0625 C-27.51354823 13.1439019 -24.61181555 7.24171029 -19.6875 2.4375 C-13.17734718 -1.56874789 -7.41333865 -2.42359148 0 0 Z " fill="#5D3C30" transform="translate(332.25,302.0625)"/>
<path d="M0 0 C2.475 0.99 2.475 0.99 5 2 C5 2.66 5 3.32 5 4 C7.31 4.66 9.62 5.32 12 6 C12 6.66 12 7.32 12 8 C14.64 8.66 17.28 9.32 20 10 C20 10.66 20 11.32 20 12 C21.98 12 23.96 12 26 12 C26 12.66 26 13.32 26 14 C26.50402344 14.12503906 27.00804687 14.25007813 27.52734375 14.37890625 C29.5212931 14.87975609 31.51297478 15.38962896 33.50390625 15.90234375 C41.29598687 17.89647089 49.05161894 19.72017593 57 21 C54.62247552 28.50867901 47.9232837 33.8907654 41.14453125 37.53515625 C33.39732434 40.58377505 26.7846877 41.17235301 18.875 38.5 C9.45238316 34.30730072 5.65982705 26.17012845 2 17 C1.62746094 16.195625 1.25492187 15.39125 0.87109375 14.5625 C-0.17771513 11.47721469 -0.19643231 8.93767032 -0.125 5.6875 C-0.10695313 4.61886719 -0.08890625 3.55023438 -0.0703125 2.44921875 C-0.04710937 1.64097656 -0.02390625 0.83273437 0 0 Z " fill="#FCD104" transform="translate(292,460)"/>
<path d="M0 0 C11.67305773 4.36674605 26.52328569 12.85838534 33 24 C33.70826365 29.06786711 32.33352239 31.72591364 29.5 35.875 C28.8503125 36.84179688 28.200625 37.80859375 27.53125 38.8046875 C26.77328125 39.89136719 26.77328125 39.89136719 26 41 C21.62168396 36.81240606 17.81965199 32.25952932 14 27.5625 C12.79180299 26.08452396 11.58347205 24.6066574 10.375 23.12890625 C9.80225342 22.42024414 9.22950684 21.71158203 8.6394043 20.98144531 C7.62195927 19.75172323 6.57798883 18.54286118 5.49536133 17.37011719 C2.18072063 13.74935298 1.23127368 10.96952915 0.6875 6.125 C0.54699219 4.97257812 0.40648437 3.82015625 0.26171875 2.6328125 C0.17535156 1.76398438 0.08898437 0.89515625 0 0 Z " fill="#5E3D30" transform="translate(499,315)"/>
<path d="M0 0 C-0.33 0.66 -0.66 1.32 -1 2 C-21.094893 8.69829767 -48.17907443 3.68038721 -68 -2 C-68 -2.66 -68 -3.32 -68 -4 C-46.52258797 -11.0749122 -20.30544846 -10.72740673 0 0 Z " fill="#ED7E78" transform="translate(388,391)"/>
<path d="M0 0 C0.33 0 0.66 0 1 0 C1.08451416 0.7842334 1.16902832 1.5684668 1.25610352 2.37646484 C3.54245282 22.82633965 6.51119969 40.68350739 19.1796875 57.49609375 C21 60 21 60 22 63 C23.32796291 63.35412344 24.66216607 63.68521554 26 64 C26.43957031 64.45246094 26.87914062 64.90492188 27.33203125 65.37109375 C31.29932231 69.24547402 37.21033317 71.44683025 42.4375 73.0625 C45.4543209 74.16621496 46.53550806 75.1571627 48 78 C47.505 79.485 47.505 79.485 47 81 C39.17346333 81.9100624 31.39268826 78.7809825 24.828125 74.625 C23.1875 73.3125 23.1875 73.3125 21 71 C21 70.34 21 69.68 21 69 C20.236875 68.773125 19.47375 68.54625 18.6875 68.3125 C15.36587024 66.69030872 14.78392881 65.18624398 13 62 C12.51660156 61.24460937 12.03320312 60.48921875 11.53515625 59.7109375 C7.75341829 53.71231866 5.11454929 47.76247164 3 41 C2.78472656 40.31164062 2.56945312 39.62328125 2.34765625 38.9140625 C-1.15945163 26.37039196 -0.11083567 12.88592547 0 0 Z " fill="#F6C001" transform="translate(467,347)"/>
<path d="M0 0 C1.20269531 -0.02578125 2.40539062 -0.0515625 3.64453125 -0.078125 C8.44260883 0.36623941 11.77839516 1.84089516 15.1875 5.25 C15.68611288 8.98959661 15.48932253 10.75814107 13.5 14 C8.638466 18.73014119 3.20461026 18.77812429 -3.296875 18.71875 C-9.12755755 17.94132566 -13.83364076 15.2642283 -18.8125 12.25 C-18.26373677 8.48348872 -16.80486151 6.98347739 -13.9375 4.5625 C-13.23882812 3.96050781 -12.54015625 3.35851562 -11.8203125 2.73828125 C-8.05041031 -0.05614041 -4.55565953 0.05821929 0 0 Z " fill="#FBFAF9" transform="translate(163.8125,580.75)"/>
<path d="M0 0 C1.28648437 -0.01675781 2.57296875 -0.03351562 3.8984375 -0.05078125 C7.85005256 0.33443909 10.2695492 1.22928206 13.625 3.3125 C15.21439347 6.49128694 15.04076711 8.8081772 14.625 12.3125 C11.75683556 15.7807727 8.2710516 18.13338419 3.7890625 18.62109375 C-5.44232978 18.95733652 -11.52865907 17.14101749 -19.375 12.3125 C-17.46442801 6.88101677 -14.45414773 4.30978501 -9.640625 1.1875 C-6.39208286 -0.06710938 -3.47128 0.01039305 0 0 Z " fill="#FAF9F8" transform="translate(713.375,580.6875)"/>
<path d="M0 0 C0.33 0 0.66 0 1 0 C1.33 1.65 1.66 3.3 2 5 C3.65 5.33 5.3 5.66 7 6 C6.35726809 9.74193236 4.65323224 12.30357496 2.5625 15.4375 C-2.8474751 23.5581098 -4.03541097 30.81827103 -4.5625 40.375 C-4.60568359 41.11105469 -4.64886719 41.84710938 -4.69335938 42.60546875 C-4.79843799 44.40348068 -4.89962093 46.20171958 -5 48 C-5.33 48 -5.66 48 -6 48 C-6.06058594 47.03578125 -6.12117188 46.0715625 -6.18359375 45.078125 C-6.26738281 43.81484375 -6.35117187 42.5515625 -6.4375 41.25 C-6.51871094 39.99703125 -6.59992188 38.7440625 -6.68359375 37.453125 C-6.92515522 34.81682447 -7.24283934 32.51962706 -8 30 C-8.66 30 -9.32 30 -10 30 C-7.796544 19.79451958 -4.68845015 9.37690029 0 0 Z M0 7 C-0.66 8.32 -1.32 9.64 -2 11 C-0.68 10.34 0.64 9.68 2 9 C2 8.34 2 7.68 2 7 C1.34 7 0.68 7 0 7 Z " fill="#FCE60A" transform="translate(284,272)"/>
<path d="M0 0 C0.33 0.66 0.66 1.32 1 2 C1.61875 1.79375 2.2375 1.5875 2.875 1.375 C3.926875 1.189375 3.926875 1.189375 5 1 C5.66 1.66 6.32 2.32 7 3 C0.85560578 13.26393126 -5.55613831 19.22446366 -17 23 C-17 22.34 -17 21.68 -17 21 C-17.66 20.67 -18.32 20.34 -19 20 C-17.02 19.34 -15.04 18.68 -13 18 C-13.33 17.34 -13.66 16.68 -14 16 C-16.32156597 15.59270772 -18.6568787 15.25561323 -21 15 C-21 14.67 -21 14.34 -21 14 C-20.28714844 13.92523438 -19.57429688 13.85046875 -18.83984375 13.7734375 C-12.01075999 12.83593206 -7.4597706 11.41271304 -3 6 C-1.07086655 2.81689154 -1.07086655 2.81689154 0 0 Z " fill="#F8F6EF" transform="translate(341,328)"/>
<path d="M0 0 C2.4375 2.375 2.4375 2.375 4 5 C4 5.66 4 6.32 4 7 C2.10667466 7.81832722 0.21022267 8.62942268 -1.6875 9.4375 C-3.27111328 10.11619141 -3.27111328 10.11619141 -4.88671875 10.80859375 C-7.61972529 11.85447455 -10.12042337 12.53520748 -13 13 C-13.49079755 5.63803681 -13.49079755 5.63803681 -11.125 2.5625 C-7.31575145 -0.23841805 -4.74389422 -0.49074768 0 0 Z " fill="#FBF3F1" transform="translate(408,378)"/>
<path d="M0 0 C4.1182638 0.65892221 6.12444348 1.5708853 9.125 4.5 C9.6309803 7.56223493 9.47967815 10.42612269 9.125 13.5 C4.21489494 12.86643806 -0.66698497 11.10417433 -4.875 8.5 C-6.14453125 6.36328125 -6.14453125 6.36328125 -6.875 4.5 C-4.670151 1.78633969 -3.49888303 0.6085014 0 0 Z " fill="#FBF5F1" transform="translate(309.875,373.5)"/>
<path d="M0 0 C2.47251438 3.00385701 3.87685277 5.84424833 5.1875 9.5 C5.53167969 10.4384375 5.87585938 11.376875 6.23046875 12.34375 C7 15 7 15 7 19 C7.60585938 18.98839844 8.21171875 18.97679687 8.8359375 18.96484375 C14.95924948 18.89890039 20.92093331 19.27568567 27 20 C23.24464902 22.50356732 22.13110586 21.9608592 17.8125 21.125 C16.72582031 20.92132813 15.63914062 20.71765625 14.51953125 20.5078125 C13.68808594 20.34023437 12.85664063 20.17265625 12 20 C12 20.66 12 21.32 12 22 C12.66 22 13.32 22 14 22 C13.67 23.32 13.34 24.64 13 26 C12.46632813 25.49210937 11.93265625 24.98421875 11.3828125 24.4609375 C5.97368176 19.4635745 0.44516251 15.55223988 -6 12 C-4.68 11.34 -3.36 10.68 -2 10 C-2.99 8.68 -3.98 7.36 -5 6 C-3.68 6 -2.36 6 -1 6 C-0.67 4.02 -0.34 2.04 0 0 Z " fill="#634332" transform="translate(449,218)"/>
<path d="M0 0 C1.8871875 0.0309375 1.8871875 0.0309375 3.8125 0.0625 C3.8125 0.3925 3.8125 0.7225 3.8125 1.0625 C1.5025 1.0625 -0.8075 1.0625 -3.1875 1.0625 C-3.5175 2.3825 -3.8475 3.7025 -4.1875 5.0625 C-5.8375 5.0625 -7.4875 5.0625 -9.1875 5.0625 C-9.1875 30.4725 -9.1875 55.8825 -9.1875 82.0625 C-12.08127437 79.16872563 -11.45455137 77.06619989 -11.47802734 73.01416016 C-11.48474457 72.28877548 -11.49146179 71.56339081 -11.49838257 70.81602478 C-11.51742504 68.41113488 -11.52128999 66.00652317 -11.5234375 63.6015625 C-11.52986159 61.93248376 -11.53658966 60.26340617 -11.54360962 58.59432983 C-11.55559836 55.09215687 -11.55928886 51.59008267 -11.55810547 48.08789062 C-11.5579023 43.59958537 -11.58519469 39.11191347 -11.61964989 34.62375832 C-11.6418867 31.1750701 -11.64594399 27.72653501 -11.64488602 24.27778244 C-11.64724722 22.62316074 -11.6560999 20.96853516 -11.67155075 19.31398392 C-11.69114464 16.99874812 -11.68539973 14.68488677 -11.67333984 12.36962891 C-11.67618988 11.05217682 -11.67903992 9.73472473 -11.68197632 8.37734985 C-11.10621819 4.51760638 -10.27836716 3.36338901 -7.1875 1.0625 C-4.43671116 0.14557039 -2.82801087 -0.04636083 0 0 Z " fill="#583E2D" transform="translate(39.1875,560.9375)"/>
<path d="M0 0 C1.6875 0.9375 1.6875 0.9375 3.6875 3.9375 C4.06228243 7.46045483 4.09877245 9.28631863 2.1875 12.3125 C1.6925 12.84875 1.1975 13.385 0.6875 13.9375 C0.0275 12.6175 -0.6325 11.2975 -1.3125 9.9375 C-2.9625 9.9375 -4.6125 9.9375 -6.3125 9.9375 C-6.6425 8.9475 -6.9725 7.9575 -7.3125 6.9375 C-6.9825 6.2775 -6.6525 5.6175 -6.3125 4.9375 C-7.3025 4.6075 -8.2925 4.2775 -9.3125 3.9375 C-2.98099961 -0.08056756 -2.98099961 -0.08056756 0 0 Z " fill="#64412D" transform="translate(742.3125,622.0625)"/>
<path d="M0 0 C0.33 0 0.66 0 1 0 C2.2494389 7.74652116 2.49920877 15.25118684 -2 22 C-2.66 22 -3.32 22 -4 22 C-5.87898271 18.24203457 -5.53262198 14.09099009 -5 10 C-3.63407057 6.47532895 -1.93290273 3.24451529 0 0 Z " fill="#624539" transform="translate(374,308)"/>
<path d="M0 0 C2.71232939 4.06849409 2.30699887 6.16476784 2 11 C1.34 11.66 0.68 12.32 0 13 C-0.33 12.01 -0.66 11.02 -1 10 C-0.34 10 0.32 10 1 10 C0.34 9.34 -0.32 8.68 -1 8 C-1.33 8.33 -1.66 8.66 -2 9 C-3.66617115 9.04063832 -5.33388095 9.042721 -7 9 C-7 8.34 -7 7.68 -7 7 C-9.97 6.505 -9.97 6.505 -13 6 C-4 0 -4 0 0 0 Z " fill="#62402E" transform="translate(194,622)"/>
<path d="M0 0 C1.13308594 -0.07347656 1.13308594 -0.07347656 2.2890625 -0.1484375 C4.375 0.375 4.375 0.375 6.1484375 2.8984375 C6.75558594 4.12433594 6.75558594 4.12433594 7.375 5.375 C5.10423158 5.40199725 2.83337179 5.42139453 0.5625 5.4375 C-1.33435547 5.45490234 -1.33435547 5.45490234 -3.26953125 5.47265625 C-6.625 5.375 -6.625 5.375 -9.625 4.375 C-9.625 3.385 -9.625 2.395 -9.625 1.375 C-6.43980263 0.55301358 -3.27667035 0.18174028 0 0 Z " fill="#FCCF01" transform="translate(259.625,425.625)"/>
<path d="M0 0 C0.33 2.31 0.66 4.62 1 7 C1.60585938 6.98839844 2.21171875 6.97679687 2.8359375 6.96484375 C8.95924948 6.89890039 14.92093331 7.27568567 21 8 C17.24464902 10.50356732 16.13110586 9.9608592 11.8125 9.125 C10.72582031 8.92132813 9.63914062 8.71765625 8.51953125 8.5078125 C7.27236328 8.25644531 7.27236328 8.25644531 6 8 C6 8.66 6 9.32 6 10 C6.66 10 7.32 10 8 10 C7.67 11.32 7.34 12.64 7 14 C6.40832031 13.46890625 5.81664062 12.9378125 5.20703125 12.390625 C1.21496312 8.82185937 -2.76346545 5.27989772 -7 2 C-2.25 0 -2.25 0 0 0 Z " fill="#6B4E37" transform="translate(455,230)"/>
<path d="M0 0 C2 2 2 2 3 5 C3.66 5 4.32 5 5 5 C5 7.97 5 10.94 5 14 C3.35 14.66 1.7 15.32 0 16 C-0.98275588 13.05173237 -1.13414725 11.07347496 -1.125 8 C-1.12757813 7.13375 -1.13015625 6.2675 -1.1328125 5.375 C-1 3 -1 3 0 0 Z " fill="#694C42" transform="translate(306,314)"/>
<path d="M0 0 C2 3 2 3 1.75 5.3125 C0.72780209 8.97537583 -0.29555458 12.59110916 -2 16 C-3.32 16 -4.64 16 -6 16 C-5.59683075 9.68368172 -3.28767869 5.35006016 0 0 Z " fill="#FAD10F" transform="translate(245,376)"/>
<path d="M0 0 C0.99 1.32 1.98 2.64 3 4 C3.33 4.33 3.66 4.66 4 5 C4.01670061 6.71003031 3.96290858 8.42085878 3.87890625 10.12890625 C3.83056641 11.16337891 3.78222656 12.19785156 3.73242188 13.26367188 C3.67634766 14.35228516 3.62027344 15.44089844 3.5625 16.5625 C3.51029297 17.65498047 3.45808594 18.74746094 3.40429688 19.87304688 C3.27415852 22.58229076 3.13917946 25.29120794 3 28 C2.67 28 2.34 28 2 28 C1.93941406 27.03578125 1.87882812 26.0715625 1.81640625 25.078125 C1.73261719 23.81484375 1.64882813 22.5515625 1.5625 21.25 C1.48128906 19.99703125 1.40007812 18.7440625 1.31640625 17.453125 C1.07484478 14.81682447 0.75716066 12.51962706 0 10 C-0.66 10 -1.32 10 -2 10 C-1.34 6.7 -0.68 3.4 0 0 Z " fill="#FCEA2F" transform="translate(276,292)"/>
<path d="M0 0 C1.14926266 0.95421808 2.29430541 1.91352045 3.4375 2.875 C4.39462891 3.67550781 4.39462891 3.67550781 5.37109375 4.4921875 C7 6 7 6 8 8 C6.35 9.32 4.7 10.64 3 12 C0.69 9.69 -1.62 7.38 -4 5 C-2.68 3.35 -1.36 1.7 0 0 Z " fill="#FBFBF1" transform="translate(372,335)"/>
<path d="M0 0 C2 4 2 4 1.125 7.75 C0.75375 8.8225 0.3825 9.895 0 11 C-1.32 11 -2.64 11 -4 11 C-4.66 12.32 -5.32 13.64 -6 15 C-6.66 14.67 -7.32 14.34 -8 14 C-5.36 9.38 -2.72 4.76 0 0 Z " fill="#FAD51C" transform="translate(263,348)"/>
<path d="M0 0 C1.8871875 0.0309375 1.8871875 0.0309375 3.8125 0.0625 C3.1525 0.7225 2.4925 1.3825 1.8125 2.0625 C6.1025 2.3925 10.3925 2.7225 14.8125 3.0625 C14.8125 3.3925 14.8125 3.7225 14.8125 4.0625 C7.2225 4.0625 -0.3675 4.0625 -8.1875 4.0625 C-7.8575 3.0725 -7.5275 2.0825 -7.1875 1.0625 C-4.43671116 0.14557039 -2.82801087 -0.04636083 0 0 Z " fill="#7A5D25" transform="translate(380.1875,211.9375)"/>
<path d="M0 0 C2.22889496 -0.05428973 4.45817471 -0.09292338 6.6875 -0.125 C8.54955078 -0.15980469 8.54955078 -0.15980469 10.44921875 -0.1953125 C13.81237857 -0.01032021 15.9985587 0.54232105 19 2 C19 2.66 19 3.32 19 4 C18.01 4 17.02 4 16 4 C15.67 3.67 15.34 3.34 15 3 C14.01 3.33 13.02 3.66 12 4 C9.76213183 3.75754106 7.53224066 3.43611971 5.3125 3.0625 C4.13300781 2.86785156 2.95351562 2.67320312 1.73828125 2.47265625 C0.83464844 2.31667969 -0.06898438 2.16070313 -1 2 C-0.67 1.34 -0.34 0.68 0 0 Z " fill="#6D4D3B" transform="translate(156,561)"/>
<path d="M0 0 C2.97 0.495 2.97 0.495 6 1 C5.01 1.33 4.02 1.66 3 2 C3.33 3.65 3.66 5.3 4 7 C4.99 7.33 5.98 7.66 7 8 C4.36 8.66 1.72 9.32 -1 10 C-1.125 2.25 -1.125 2.25 0 0 Z " fill="#F9ECE8" transform="translate(396,381)"/>
<path d="M0 0 C-0.33 1.65 -0.66 3.3 -1 5 C-4.875 4.125 -4.875 4.125 -6 3 C-8.32817964 2.63239269 -10.6618385 2.29758419 -13 2 C-12 0 -12 0 -10.29296875 -0.703125 C-3.34405145 -2.50803859 -3.34405145 -2.50803859 0 0 Z " fill="#674632" transform="translate(351,579)"/>
<path d="M0 0 C3.63 0.33 7.26 0.66 11 1 C10.67 1.66 10.34 2.32 10 3 C9.01 3 8.02 3 7 3 C7 5.64 7 8.28 7 11 C4.5 8.75 4.5 8.75 2 6 C2 4.68 2 3.36 2 2 C1.34 2 0.68 2 0 2 C0 1.34 0 0.68 0 0 Z " fill="#654428" transform="translate(461,238)"/>
<path d="M0 0 C0.33 0.99 0.66 1.98 1 3 C0.01 3.99 -0.98 4.98 -2 6 C-1.67 6.66 -1.34 7.32 -1 8 C-4.17320782 11.53586014 -6.16743695 13.58578031 -11 14 C-7.80173015 8.88276824 -4.04165813 4.47307108 0 0 Z " fill="#684B3F" transform="translate(345,211)"/>
<path d="M0 0 C0.33 0.66 0.66 1.32 1 2 C1.66 1.67 2.32 1.34 3 1 C5.0374763 0.77141886 7.08040303 0.58975722 9.125 0.4375 C10.22070312 0.35371094 11.31640625 0.26992188 12.4453125 0.18359375 C13.70988281 0.09271484 13.70988281 0.09271484 15 0 C15 1.32 15 2.64 15 4 C11.04 4 7.08 4 3 4 C2.67 4.66 2.34 5.32 2 6 C2 5.34 2 4.68 2 4 C1.01 4.33 0.02 4.66 -1 5 C-0.67 3.35 -0.34 1.7 0 0 Z " fill="#694735" transform="translate(291,578)"/>
<path d="M0 0 C2 1 2 1 3.375 4.25 C4 8 4 8 2.125 10.9375 C1.42375 11.618125 0.7225 12.29875 0 13 C-0.39036513 11.39950296 -0.76178619 9.79437629 -1.125 8.1875 C-1.33382813 7.29417969 -1.54265625 6.40085937 -1.7578125 5.48046875 C-2 3 -2 3 0 0 Z " fill="#6E4D32" transform="translate(498,298)"/>
<path d="M0 0 C0.99 0.33 1.98 0.66 3 1 C3 1.99 3 2.98 3 4 C2.01 4 1.02 4 0 4 C-0.0825 4.78375 -0.165 5.5675 -0.25 6.375 C-1 9 -1 9 -3.046875 10.1640625 C-4.01367188 10.57785156 -4.01367188 10.57785156 -5 11 C-4.54917531 9.53932801 -4.08906463 8.08151968 -3.625 6.625 C-3.36976563 5.81289063 -3.11453125 5.00078125 -2.8515625 4.1640625 C-2 2 -2 2 0 0 Z " fill="#654332" transform="translate(275,573)"/>
<path d="M0 0 C0 0.66 0 1.32 0 2 C-1.299375 1.979375 -2.59875 1.95875 -3.9375 1.9375 C-5.29165633 1.91600546 -6.64756083 1.92851801 -8 2 C-8.33 2.33 -8.66 2.66 -9 3 C-11.35313555 3.07271741 -13.70833668 3.08370868 -16.0625 3.0625 C-17.35285156 3.05347656 -18.64320313 3.04445313 -19.97265625 3.03515625 C-20.97167969 3.02355469 -21.97070312 3.01195312 -23 3 C-23 2.67 -23 2.34 -23 2 C-21.67935547 1.80083984 -21.67935547 1.80083984 -20.33203125 1.59765625 C-19.17058594 1.42105469 -18.00914062 1.24445313 -16.8125 1.0625 C-15.08966797 0.80146484 -15.08966797 0.80146484 -13.33203125 0.53515625 C-11.29615091 0.2081743 -9.26552781 -0.15857922 -7.25 -0.59375 C-4.58340805 -1.07521799 -2.60480043 -0.66980582 0 0 Z " fill="#E15C47" transform="translate(402,372)"/>
<path d="M0 0 C0.66 0.33 1.32 0.66 2 1 C1.34 1.66 0.68 2.32 0 3 C-0.309375 3.804375 -0.61875 4.60875 -0.9375 5.4375 C-1.9878314 7.97065221 -2.95221448 9.23145796 -5 11 C-5.99 10.67 -6.98 10.34 -8 10 C-5.61820737 6.25718301 -3.25524265 3.02272532 0 0 Z " fill="#6A4B39" transform="translate(398,571)"/>
<path d="M0 0 C7.76343271 -0.36015925 14.77840795 -0.13606985 22 3 C22.66 3.66 23.32 4.32 24 5 C22.02 5 20.04 5 18 5 C18 4.34 18 3.68 18 3 C12.06 2.34 6.12 1.68 0 1 C0 0.67 0 0.34 0 0 Z " fill="#765C50" transform="translate(334,561)"/>
<path d="M0 0 C2.64 0 5.28 0 8 0 C8 0.99 8 1.98 8 3 C7.01 3.495 7.01 3.495 6 4 C5.34786708 6.02463255 5.34786708 6.02463255 5 8 C4.16382818 6.8562364 3.33113541 5.70992861 2.5 4.5625 C2.0359375 3.92441406 1.571875 3.28632813 1.09375 2.62890625 C0 1 0 1 0 0 Z " fill="#FCF7E7" transform="translate(512,421)"/>
<path d="M0 0 C1.625 0.9375 1.625 0.9375 2.625 3.9375 C0.954375 4.1540625 0.954375 4.1540625 -0.75 4.375 C-4.19642047 4.72122035 -4.19642047 4.72122035 -6.375 5.9375 C-7.365 5.2775 -8.355 4.6175 -9.375 3.9375 C-3.04421899 -0.08011103 -3.04421899 -0.08011103 0 0 Z " fill="#694937" transform="translate(742.375,622.0625)"/>
<path d="M0 0 C0.33 0 0.66 0 1 0 C1 2.31 1 4.62 1 7 C0.01 7.33 -0.98 7.66 -2 8 C-2 8.66 -2 9.32 -2 10 C-3.65 10.66 -5.3 11.32 -7 12 C-7 11.34 -7 10.68 -7 10 C-6.34 10 -5.68 10 -5 10 C-4.731875 9.278125 -4.46375 8.55625 -4.1875 7.8125 C-3.00645167 5.01528026 -1.66638302 2.53580025 0 0 Z " fill="#FBE923" transform="translate(437,332)"/>
<path d="M0 0 C0.66 0.33 1.32 0.66 2 1 C2 1.66 2 2.32 2 3 C1.34 3.66 0.68 4.32 0 5 C0 5.99 0 6.98 0 8 C-1.32 8.33 -2.64 8.66 -4 9 C-4 8.34 -4 7.68 -4 7 C-4.66 6.67 -5.32 6.34 -6 6 C-4.02 4.02 -2.04 2.04 0 0 Z " fill="#65473E" transform="translate(358,198)"/>
<path d="M0 0 C1.98 0 3.96 0 6 0 C5.67 0.99 5.34 1.98 5 3 C8.96 3 12.92 3 17 3 C17 3.33 17 3.66 17 4 C14.72923158 4.02699725 12.45837179 4.04639453 10.1875 4.0625 C8.29064453 4.07990234 8.29064453 4.07990234 6.35546875 4.09765625 C3 4 3 4 0 3 C0 2.01 0 1.02 0 0 Z " fill="#F7D516" transform="translate(250,427)"/>
<path d="M0 0 C-0.5625 1.9375 -0.5625 1.9375 -2 4 C-6.50360337 5.16760087 -8.99224016 5.27753753 -13 3 C-11.2092015 2.49689942 -9.41733089 1.99761372 -7.625 1.5 C-6.62726563 1.2215625 -5.62953125 0.943125 -4.6015625 0.65625 C-2 0 -2 0 0 0 Z " fill="#E35C45" transform="translate(413,367)"/>
<path d="M0 0 C0.66 0.33 1.32 0.66 2 1 C2 1.99 2 2.98 2 4 C-1.63423209 6.32590854 -4.77088331 6.16265833 -9 6 C-8.01 5.67 -7.02 5.34 -6 5 C-5.67 4.34 -5.34 3.68 -5 3 C-2.5625 1.3125 -2.5625 1.3125 0 0 Z " fill="#63412F" transform="translate(468,640)"/>
<path d="M0 0 C0.66 0.33 1.32 0.66 2 1 C0.50958227 4.79379058 -1.69062512 6.68343758 -5 9 C-5.66 9 -6.32 9 -7 9 C-5.44499019 5.18315774 -2.96404505 2.80804268 0 0 Z " fill="#634432" transform="translate(134,570)"/>
<path d="M0 0 C1.32 0 2.64 0 4 0 C4 0.66 4 1.32 4 2 C5.98 2 7.96 2 10 2 C6.20458337 4.21399303 2.24370579 5.00980198 -2 6 C-1.34 4.02 -0.68 2.04 0 0 Z " fill="#654425" transform="translate(342,217)"/>
<path d="M0 0 C1.8871875 0.0309375 1.8871875 0.0309375 3.8125 0.0625 C3.8125 0.3925 3.8125 0.7225 3.8125 1.0625 C1.5025 1.0625 -0.8075 1.0625 -3.1875 1.0625 C-3.5175 2.3825 -3.8475 3.7025 -4.1875 5.0625 C-6.1675 5.0625 -8.1475 5.0625 -10.1875 5.0625 C-7.29994867 0.79992422 -5.07715232 -0.08323201 0 0 Z " fill="#735747" transform="translate(39.1875,560.9375)"/>
<path d="M0 0 C0.8125 1.6875 0.8125 1.6875 1 4 C-1.4375 6.75 -1.4375 6.75 -4 9 C-5.32 8.34 -6.64 7.68 -8 7 C-6.68 7 -5.36 7 -4 7 C-3.8453125 6.1028125 -3.8453125 6.1028125 -3.6875 5.1875 C-2.91123545 2.71756736 -1.92911079 1.67748765 0 0 Z " fill="#FBE614" transform="translate(537,407)"/>
<path d="M0 0 C0 3 0 3 -1.5 4.6875 C-1.995 5.120625 -2.49 5.55375 -3 6 C-2.67 6.66 -2.34 7.32 -2 8 C-4.35438733 9.42944945 -5.48032433 10.08661261 -8.25 9.625 C-8.8275 9.41875 -9.405 9.2125 -10 9 C-9.278125 8.443125 -8.55625 7.88625 -7.8125 7.3125 C-5.02542701 5.02090666 -2.51358472 2.58540143 0 0 Z " fill="#FCDA13" transform="translate(422,376)"/>
<path d="M0 0 C0.33 0 0.66 0 1 0 C1.75 3.25 1.75 3.25 2 7 C0.1875 9.4375 0.1875 9.4375 -2 11 C-2.66 11 -3.32 11 -4 11 C-3.52269162 9.5410574 -3.04308958 8.08286504 -2.5625 6.625 C-2.29566406 5.81289063 -2.02882813 5.00078125 -1.75390625 4.1640625 C-1 2 -1 2 0 0 Z " fill="#FBE92A" transform="translate(284,272)"/>
<path d="M0 0 C2.31282587 3.46923881 2.42478586 4.92205575 2 9 C0.5 10.875 0.5 10.875 -1 12 C-1 11.34 -1 10.68 -1 10 C-1.66 9.67 -2.32 9.34 -3 9 C-2.5359375 7.88625 -2.5359375 7.88625 -2.0625 6.75 C-1.1905075 4.49307824 -0.52332993 2.3549847 0 0 Z " fill="#5A351E" transform="translate(181,585)"/>
<path d="M0 0 C0.66 0 1.32 0 2 0 C2 0.66 2 1.32 2 2 C3.32 2.66 4.64 3.32 6 4 C4.02 4.99 2.04 5.98 0 7 C-0.66 5.35 -1.32 3.7 -2 2 C-1.34 2 -0.68 2 0 2 C0 1.34 0 0.68 0 0 Z " fill="#FBE514" transform="translate(458,456)"/>
<path d="M0 0 C3.25543229 0.34879632 4.01873107 1.02133261 6.25 3.5625 C6.8275 4.366875 7.405 5.17125 8 6 C7.34 6.66 6.68 7.32 6 8 C6 7.34 6 6.68 6 6 C5.01 6.33 4.02 6.66 3 7 C3 6.01 3 5.02 3 4 C2.34 4 1.68 4 1 4 C0.67 2.68 0.34 1.36 0 0 Z " fill="#F8D810" transform="translate(297,376)"/>
<path d="M0 0 C2.62187494 1.04874998 3.79371361 1.64931313 5.25 4.125 C5.4975 4.74375 5.745 5.3625 6 6 C3.50907189 7.24546405 2.58919267 6.7767578 0 6 C-0.38218767 4.34385343 -0.71395102 2.67542976 -1 1 C-0.67 0.67 -0.34 0.34 0 0 Z " fill="#F6DD09" transform="translate(514,345)"/>
<path d="M0 0 C0 1.32 0 2.64 0 4 C-6.0546875 4.1953125 -6.0546875 4.1953125 -8 4 C-8.66 3.34 -9.32 2.68 -10 2 C-8.7090864 1.66376204 -7.41723903 1.33110751 -6.125 1 C-5.40570313 0.814375 -4.68640625 0.62875 -3.9453125 0.4375 C-2 0 -2 0 0 0 Z " fill="#F6DD09" transform="translate(358,218)"/>
<path d="M0 0 C2.64 0 5.28 0 8 0 C3.5 3 3.5 3 -1 6 C-1 2 -1 2 0 0 Z " fill="#6C4C3D" transform="translate(570,581)"/>
<path d="M0 0 C-0.33 2.31 -0.66 4.62 -1 7 C-2.65 5.35 -4.3 3.7 -6 2 C-2.25 0 -2.25 0 0 0 Z " fill="#67472B" transform="translate(526,349)"/>
<path d="M0 0 C2.31 1.98 4.62 3.96 7 6 C6.34 6.66 5.68 7.32 5 8 C4.34 8 3.68 8 3 8 C2 7 1 6 0 5 C-0.66 5 -1.32 5 -2 5 C-1.34 3.35 -0.68 1.7 0 0 Z " fill="#F2EFED" transform="translate(372,335)"/>
<path d="M0 0 C0.66 0.66 1.32 1.32 2 2 C1.01 4.31 0.02 6.62 -1 9 C-1.33 7.68 -1.66 6.36 -2 5 C-2.66 5 -3.32 5 -4 5 C-4 4.34 -4 3.68 -4 3 C-2 1.375 -2 1.375 0 0 Z " fill="#654840" transform="translate(510,283)"/>
<path d="M0 0 C0.66 0.33 1.32 0.66 2 1 C-1.2870757 4.81300782 -4.39727838 6.22972246 -9 8 C-9.33 7.34 -9.66 6.68 -10 6 C-9.36191406 5.65066406 -8.72382812 5.30132813 -8.06640625 4.94140625 C-7.24011719 4.48636719 -6.41382813 4.03132812 -5.5625 3.5625 C-4.73878906 3.11003906 -3.91507813 2.65757812 -3.06640625 2.19140625 C-1.07691202 1.16337603 -1.07691202 1.16337603 0 0 Z " fill="#EDE6DF" transform="translate(605,638)"/>
<path d="M0 0 C3.0916909 2.52956528 3.90931332 5.22454612 5 9 C3.68 8.67 2.36 8.34 1 8 C0 2.25 0 2.25 0 0 Z " fill="#694C3B" transform="translate(196,574)"/>
<path d="M0 0 C1.32 1.32 2.64 2.64 4 4 C2.35 5.32 0.7 6.64 -1 8 C-1.5534764 5.92446352 -2 4.15634036 -2 2 C-1.34 2 -0.68 2 0 2 C0 1.34 0 0.68 0 0 Z " fill="#F3DB0C" transform="translate(508,336)"/>
<path d="M0 0 C2.475 0.99 2.475 0.99 5 2 C5 2.99 5 3.98 5 5 C4.34 5.66 3.68 6.32 3 7 C0.875 6.625 0.875 6.625 -1 6 C-0.34 5.34 0.32 4.68 1 4 C0.6814823 1.89179203 0.6814823 1.89179203 0 0 Z " fill="#63443A" transform="translate(508,320)"/>
<path d="M0 0 C1.98 0.66 3.96 1.32 6 2 C6 2.66 6 3.32 6 4 C4.35 4.66 2.7 5.32 1 6 C0.67 4.02 0.34 2.04 0 0 Z " fill="#F2ECE5" transform="translate(691,611)"/>
<path d="M0 0 C10.55808656 -0.3690205 10.55808656 -0.3690205 15 2 C14.34 2.66 13.68 3.32 13 4 C11.7315625 3.5359375 11.7315625 3.5359375 10.4375 3.0625 C6.9502146 1.98461179 3.61822465 1.43418696 0 1 C0 0.67 0 0.34 0 0 Z " fill="#755C4F" transform="translate(511,561)"/>
<path d="M0 0 C1.98 0 3.96 0 6 0 C5.67 1.32 5.34 2.64 5 4 C3.02 4.33 1.04 4.66 -1 5 C-0.67 3.35 -0.34 1.7 0 0 Z " fill="#DE5745" transform="translate(295,363)"/>
<path d="M0 0 C1.65 0.33 3.3 0.66 5 1 C4.34 2.98 3.68 4.96 3 7 C1.68 6.01 0.36 5.02 -1 4 C-0.67 2.68 -0.34 1.36 0 0 Z " fill="#653F2D" transform="translate(257,562)"/>
<path d="M0 0 C1.32 0 2.64 0 4 0 C4.33 1.32 4.66 2.64 5 4 C4.01 4.66 3.02 5.32 2 6 C1.34 5.67 0.68 5.34 0 5 C0 3.35 0 1.7 0 0 Z " fill="#68453C" transform="translate(402,312)"/>
<path d="M0 0 C0.33 0 0.66 0 1 0 C1.042721 1.66611905 1.04063832 3.33382885 1 5 C0 6 0 6 -2.5625 6.0625 C-3.7690625 6.0315625 -3.7690625 6.0315625 -5 6 C-3.35830472 3.97945196 -1.69088222 1.97956942 0 0 Z " fill="#644640" transform="translate(351,205)"/>
<path d="M0 0 C-0.66 1.65 -1.32 3.3 -2 5 C-4.475 4.01 -4.475 4.01 -7 3 C-3.375 0 -3.375 0 0 0 Z " fill="#62402E" transform="translate(492,641)"/>
<path d="M0 0 C1.98 0 3.96 0 6 0 C6 4 6 4 5 6 C3.2925002 4.71937515 1.62626404 3.38232443 0 2 C0 1.34 0 0.68 0 0 Z " fill="#674B39" transform="translate(394,635)"/>
<path d="M0 0 C0.66 0.33 1.32 0.66 2 1 C2 1.66 2 2.32 2 3 C1.34 3 0.68 3 0 3 C0 3.66 0 4.32 0 5 C0.66 5.33 1.32 5.66 2 6 C1.34 6 0.68 6 0 6 C-0.33 6.66 -0.66 7.32 -1 8 C-1.66 6.68 -2.32 5.36 -3 4 C-2.01 2.68 -1.02 1.36 0 0 Z " fill="#624323" transform="translate(517,338)"/>
<path d="M0 0 C0.66 0.99 1.32 1.98 2 3 C1.01 4.98 0.02 6.96 -1 9 C-1.33 9 -1.66 9 -2 9 C-2.125 5.625 -2.125 5.625 -2 2 C-1.34 1.34 -0.68 0.68 0 0 Z " fill="#614237" transform="translate(504,295)"/>
<path d="M0 0 C0.66 0.99 1.32 1.98 2 3 C1.67 3.99 1.34 4.98 1 6 C0.01 6.33 -0.98 6.66 -2 7 C-2 3 -2 3 0 0 Z " fill="#FDFAD2" transform="translate(369,282)"/>
<path d="M0 0 C2.97 0.495 2.97 0.495 6 1 C6 2.98 6 4.96 6 7 C1.125 2.25 1.125 2.25 0 0 Z " fill="#6C4726" transform="translate(470,251)"/>
<path d="M0 0 C3.465 1.485 3.465 1.485 7 3 C6.34 3.66 5.68 4.32 5 5 C4.01 4.34 3.02 3.68 2 3 C-0.15274948 3.30840599 -0.15274948 3.30840599 -2 4 C-2.33 3.34 -2.66 2.68 -3 2 C-2.01 2 -1.02 2 0 2 C0 1.34 0 0.68 0 0 Z " fill="#62453A" transform="translate(413,170)"/>
<path d="M0 0 C1.32 0.66 2.64 1.32 4 2 C3.67 3.32 3.34 4.64 3 6 C1.68 5.34 0.36 4.68 -1 4 C-0.67 2.68 -0.34 1.36 0 0 Z " fill="#ECE8E1" transform="translate(146,589)"/>
<path d="M0 0 C1.98 0.66 3.96 1.32 6 2 C6 2.99 6 3.98 6 5 C4.68 5.33 3.36 5.66 2 6 C2.66 5.67 3.32 5.34 4 5 C4 4.01 4 3.02 4 2 C2.68 2.33 1.36 2.66 0 3 C0 2.01 0 1.02 0 0 Z " fill="#603F2E" transform="translate(227,538)"/>
<path d="M0 0 C0.99 0.33 1.98 0.66 3 1 C2.01 1.495 2.01 1.495 1 2 C-0.13350534 4.01669827 -0.13350534 4.01669827 -1 6 C-1.66 6 -2.32 6 -3 6 C-2.42655063 3.13275314 -2.1385485 2.1385485 0 0 Z " fill="#684737" transform="translate(543,526)"/>
<path d="M0 0 C0.66 0.33 1.32 0.66 2 1 C0.73220443 3.53559113 -0.91062614 5.10056922 -3 7 C-3.66 7 -4.32 7 -5 7 C-3.70700306 4.11562221 -2.34058637 2.12780579 0 0 Z " fill="#F8D51A" transform="translate(254,365)"/>
<path d="M0 0 C0.66 0.33 1.32 0.66 2 1 C-2.30769231 5.92307692 -2.30769231 5.92307692 -5.8125 6.3125 C-6.8953125 6.1578125 -6.8953125 6.1578125 -8 6 C-5.33333333 4 -2.66666667 2 0 0 Z " fill="#FAEB2D" transform="translate(336,344)"/>
<path d="M0 0 C0.99 0.33 1.98 0.66 3 1 C1.25 4.875 1.25 4.875 -1 6 C-1.33 4.35 -1.66 2.7 -2 1 C-1.34 0.67 -0.68 0.34 0 0 Z " fill="#644432" transform="translate(191,634)"/>
<path d="M0 0 C-0.3125 1.875 -0.3125 1.875 -1 4 C-1.99 4.66 -2.98 5.32 -4 6 C-4.33 5.34 -4.66 4.68 -5 4 C-4.67 3.01 -4.34 2.02 -4 1 C-2 0 -2 0 0 0 Z " fill="#FAD413" transform="translate(445,491)"/>
<path d="M0 0 C0.33 0 0.66 0 1 0 C1 2.31 1 4.62 1 7 C-0.32 7.33 -1.64 7.66 -3 8 C-1.125 2.25 -1.125 2.25 0 0 Z " fill="#F9D721" transform="translate(245,376)"/>
<path d="M0 0 C2.91517292 1.07401108 4.77810176 1.77810176 7 4 C4.69 4 2.38 4 0 4 C0 2.68 0 1.36 0 0 Z " fill="#F1DD05" transform="translate(438,227)"/>
<path d="M0 0 C0 1.32 0 2.64 0 4 C-0.66 4 -1.32 4 -2 4 C-2.33 4.66 -2.66 5.32 -3 6 C-3.66 5.01 -4.32 4.02 -5 3 C-2.25 0 -2.25 0 0 0 Z " fill="#604238" transform="translate(367,192)"/>
</svg>
