<?xml version="1.0" encoding="utf-8"?>
<!DOCTYPE svg PUBLIC "-//W3C//DTD SVG 20010904//EN" "http://www.w3.org/TR/2001/REC-SVG-20010904/DTD/svg10.dtd">
<svg version="1.0" xmlns="http://www.w3.org/2000/svg" width="448pt" height="206pt" viewBox="0 0 448 206" style="" preserveAspectRatio="xMidYMid meet">
<g fill="#FFFFFFFF" stroke="#FFFFFFFF">
<path d="M 1.000 103.000 L 1.000 205.000 224.000 205.000 L 447.000 205.000 447.000 103.000 L 447.000 1.000 224.000 1.000 L 1.000 1.000 1.000 103.000 M 335.000 81.500 L 335.500 152.500 383.409 152.760 C 416.757 152.941 431.726 153.358 432.659 154.132 C 433.696 154.992 434.000 159.636 434.000 174.587 C 434.000 192.687 433.876 193.996 432.066 194.965 C 429.514 196.330 338.147 196.386 334.565 195.025 L 332.000 194.050 332.000 175.025 L 332.000 156.000 310.975 156.000 L 289.950 156.000 288.975 153.435 C 287.437 149.390 287.671 12.729 289.219 11.181 C 290.120 10.280 296.174 10.033 312.469 10.231 L 334.500 10.500 335.000 81.500 M 63.696 15.000 C 67.695 23.197 75.000 39.067 75.000 39.559 C 75.000 39.825 76.800 43.903 79.000 48.621 C 81.200 53.339 83.000 57.348 83.000 57.530 C 83.000 57.712 84.302 60.704 85.893 64.180 C 87.483 67.656 96.745 88.275 106.474 110.000 C 116.202 131.725 128.401 158.953 133.581 170.507 C 138.762 182.061 143.000 192.058 143.000 192.722 C 143.000 195.425 138.639 196.000 118.148 196.000 C 106.606 196.000 96.424 195.716 95.519 195.369 C 94.148 194.843 89.074 185.306 86.013 177.500 C 85.582 176.400 75.232 153.225 63.013 126.000 C 44.200 84.081 27.049 45.696 18.779 27.000 C 17.685 24.525 16.086 20.925 15.226 19.000 C 14.367 17.075 13.567 15.275 13.449 15.000 C 13.331 14.725 13.621 13.479 14.092 12.232 L 14.949 9.963 38.225 10.232 L 61.500 10.500 63.696 15.000 M 250.800 74.200 C 251.706 75.106 252.000 89.903 252.000 134.665 C 252.000 193.298 251.978 193.941 249.960 195.022 C 248.618 195.740 240.900 196.009 227.422 195.807 C 210.524 195.554 206.758 195.237 205.977 194.000 C 204.629 191.864 204.685 77.457 206.035 74.934 C 207.009 73.115 208.335 73.000 228.335 73.000 C 243.541 73.000 249.942 73.342 250.800 74.200 M 199.579 11.346 C 200.078 12.646 196.580 21.200 188.270 39.000 C 186.087 43.675 181.899 52.900 178.963 59.500 C 176.027 66.100 173.204 72.063 172.690 72.750 C 170.231 76.038 169.439 74.758 157.692 48.500 C 155.231 43.000 151.761 35.350 149.981 31.500 C 141.568 13.312 141.163 12.237 142.291 11.109 C 144.053 9.347 198.899 9.574 199.579 11.346 "/></g>
<g fill="#061F79FF" stroke="#061F79FF">
<path d="M 46.450 16.081 C 46.182 16.515 47.433 17.012 49.231 17.185 L 52.500 17.500 52.764 48.879 C 53.009 77.871 52.895 80.360 51.264 81.597 C 50.099 82.482 49.945 82.947 50.809 82.968 C 51.529 82.986 51.859 83.419 51.543 83.931 C 51.226 84.443 51.425 85.144 51.984 85.490 C 52.543 85.835 53.000 86.976 53.000 88.024 C 53.000 89.072 53.913 90.418 55.028 91.015 C 56.143 91.612 56.765 92.571 56.410 93.146 C 56.055 93.720 56.267 95.273 56.882 96.595 C 57.497 97.918 58.390 100.013 58.866 101.250 C 60.060 104.350 61.517 107.862 63.333 112.015 C 64.179 113.948 65.349 116.788 65.934 118.325 C 66.587 120.045 67.441 120.845 68.153 120.406 C 68.870 119.962 69.038 120.130 68.594 120.847 C 67.908 121.958 73.088 135.559 77.083 143.136 C 78.137 145.136 79.000 147.724 79.000 148.886 C 79.000 150.049 79.450 151.000 80.000 151.000 C 80.550 151.000 81.000 151.845 81.000 152.878 C 81.000 153.910 81.675 155.315 82.500 156.000 C 83.325 156.685 84.000 157.851 84.000 158.592 C 84.000 159.333 84.900 161.542 86.000 163.500 C 87.100 165.458 88.000 167.947 88.000 169.030 C 88.000 170.114 88.502 171.000 89.117 171.000 C 89.768 171.000 90.034 172.041 89.755 173.500 C 89.420 175.255 89.718 176.000 90.755 176.000 C 91.756 176.000 92.059 176.666 91.694 178.061 C 91.364 179.323 91.707 180.334 92.578 180.668 C 93.360 180.968 94.000 182.060 94.000 183.094 C 94.000 184.127 95.238 186.762 96.750 188.949 L 99.500 192.924 119.250 192.962 C 141.873 193.006 140.832 193.573 135.933 183.867 C 134.246 180.526 133.116 177.140 133.422 176.344 C 133.727 175.548 133.613 175.121 133.168 175.396 C 132.722 175.672 131.133 173.136 129.635 169.763 C 127.069 163.981 127.015 163.570 128.706 162.601 C 130.315 161.680 130.256 161.570 128.138 161.537 C 126.196 161.507 125.232 160.284 122.717 154.665 C 120.148 148.926 119.885 147.668 121.079 146.821 C 122.244 145.993 122.205 145.905 120.867 146.329 C 118.928 146.944 115.311 139.923 116.542 137.932 C 117.000 137.191 116.898 136.945 116.290 137.321 C 115.708 137.680 113.415 133.846 110.953 128.397 C 107.342 120.403 106.870 118.677 108.068 117.827 C 109.247 116.991 109.209 116.904 107.856 117.334 C 106.541 117.751 104.368 113.725 96.978 97.178 C 91.899 85.805 86.398 73.800 84.753 70.500 C 83.108 67.200 81.423 63.600 81.008 62.500 C 80.593 61.400 79.328 58.475 78.197 56.000 C 77.065 53.525 75.109 49.160 73.848 46.299 C 72.320 42.830 71.276 41.498 70.713 42.299 C 70.198 43.032 70.098 42.679 70.457 41.391 C 70.813 40.115 70.449 38.787 69.534 38.028 C 68.702 37.338 68.300 36.324 68.639 35.775 C 68.979 35.226 68.719 34.444 68.062 34.038 C 67.405 33.632 66.771 32.645 66.653 31.844 C 66.536 31.043 65.415 29.288 64.163 27.944 C 62.878 26.566 62.424 25.500 63.121 25.500 C 63.863 25.500 63.586 24.729 62.429 23.571 C 61.368 22.511 60.500 21.293 60.500 20.864 C 60.500 20.436 59.600 19.406 58.500 18.575 C 56.716 17.227 56.689 17.060 58.250 17.032 C 59.213 17.014 60.000 16.535 60.000 15.966 C 60.000 14.759 47.200 14.867 46.450 16.081 "/></g>
<g fill="#061F79FF" stroke="#061F79FF">
<path d="M 291.999 82.750 L 292.000 153.000 312.007 153.000 L 332.014 153.000 331.757 83.250 L 331.500 13.500 311.749 13.000 L 291.997 12.500 291.999 82.750 "/></g>
<g fill="#3E56A0FF" stroke="#3E56A0FF">
<path d="M 208.511 75.983 C 207.731 77.244 207.753 191.791 208.532 193.052 C 209.171 194.086 245.797 194.399 248.418 193.393 C 249.836 192.849 250.000 186.727 250.000 134.500 C 250.000 82.273 249.836 76.151 248.418 75.607 C 245.720 74.572 209.170 74.916 208.511 75.983 M 248.500 134.500 L 248.500 192.500 228.750 192.771 C 217.888 192.920 208.994 192.695 208.988 192.271 C 208.394 155.398 208.742 76.895 209.500 76.568 C 210.050 76.330 219.050 76.218 229.500 76.318 L 248.500 76.500 248.500 134.500 "/></g>
<g fill="#061F79FF" stroke="#061F79FF">
<path d="M 210.671 76.724 C 208.648 77.027 208.008 77.577 208.421 78.656 C 208.740 79.485 209.000 105.552 209.000 136.582 L 209.000 193.000 228.750 193.227 L 248.500 193.453 229.527 193.749 C 218.695 193.919 210.127 194.473 209.559 195.041 C 208.898 195.702 215.339 196.010 228.701 195.957 L 248.838 195.877 248.957 137.579 L 249.076 79.280 246.573 77.640 C 244.500 76.282 241.443 76.026 228.785 76.150 C 220.378 76.232 212.227 76.491 210.671 76.724 "/></g>
<g fill="#3E56A0FF" stroke="#3E56A0FF">
<path d="M 334.676 155.657 C 334.304 156.029 334.000 164.535 334.000 174.560 C 334.000 190.257 334.219 192.870 335.582 193.393 C 337.977 194.312 429.310 194.090 430.773 193.161 C 431.746 192.544 431.982 187.999 431.773 173.927 L 431.500 155.500 383.426 155.241 C 356.986 155.098 335.048 155.285 334.676 155.657 M 430.500 174.500 L 430.500 192.500 383.000 192.500 L 335.500 192.500 335.225 175.537 C 335.074 166.207 335.174 157.990 335.447 157.277 C 335.847 156.235 345.231 156.031 383.222 156.240 L 430.500 156.500 430.500 174.500 "/></g>
<g fill="#061F79FF" stroke="#061F79FF">
<path d="M 335.447 157.277 C 335.174 157.990 335.074 166.207 335.225 175.537 L 335.500 192.500 383.000 192.500 L 430.500 192.500 430.500 174.500 L 430.500 156.500 383.222 156.240 C 345.231 156.031 335.847 156.235 335.447 157.277 "/></g>
<g fill="#061F79FF" stroke="#061F79FF">
<path d="M 142.667 10.667 C 142.300 11.033 142.000 11.914 142.000 12.624 C 142.000 14.517 152.134 36.373 153.411 37.235 C 154.010 37.639 154.185 37.976 153.801 37.985 C 153.011 38.002 154.721 42.328 159.049 51.263 C 160.672 54.613 162.000 57.768 162.000 58.273 C 162.000 58.778 162.851 60.386 163.890 61.846 C 164.930 63.306 165.812 64.950 165.851 65.500 C 166.059 68.434 169.493 74.052 170.913 73.778 C 172.494 73.474 177.111 65.076 176.379 63.835 C 176.164 63.470 176.337 63.020 176.765 62.835 C 177.476 62.528 185.916 44.817 186.455 42.500 C 186.584 41.950 189.150 36.325 192.158 30.000 C 199.277 15.034 200.327 12.338 199.537 11.060 C 198.810 9.884 143.830 9.504 142.667 10.667 M 145.222 12.556 C 146.011 13.344 194.789 13.248 196.072 12.455 C 198.315 11.069 197.885 12.971 194.122 21.092 C 191.980 25.717 186.293 38.275 181.486 49.000 C 176.678 59.725 172.140 69.147 171.400 69.937 C 170.249 71.167 169.818 70.805 168.417 67.437 C 167.517 65.272 164.635 58.775 162.014 53.000 C 159.393 47.225 155.783 39.125 153.993 35.000 C 152.203 30.875 148.993 24.013 146.858 19.750 C 144.724 15.488 143.358 12.000 143.822 12.000 C 144.287 12.000 144.917 12.250 145.222 12.556 "/></g>
<g fill="#00369AFF" stroke="#00369AFF">
<path d="M 32.750 12.774 C 23.538 12.925 16.000 13.272 16.000 13.546 C 16.000 13.819 17.800 17.903 20.000 22.621 C 22.200 27.339 24.000 31.384 24.000 31.611 C 24.000 31.838 25.626 35.506 27.614 39.762 C 31.314 47.683 34.042 53.678 37.963 62.500 C 39.185 65.250 40.996 69.300 41.988 71.500 C 42.980 73.700 44.571 77.300 45.524 79.500 C 47.690 84.502 52.129 94.229 61.041 113.500 C 63.331 118.450 66.016 124.525 67.010 127.000 C 68.003 129.475 70.687 135.550 72.974 140.500 C 78.511 152.486 79.163 153.942 83.949 165.000 C 89.223 177.188 90.157 179.000 91.169 179.000 C 91.626 179.000 92.000 178.325 92.000 177.500 C 92.000 176.675 91.387 176.000 90.639 176.000 C 89.726 176.000 89.435 175.176 89.755 173.500 C 90.034 172.041 89.768 171.000 89.117 171.000 C 88.502 171.000 88.000 170.114 88.000 169.030 C 88.000 167.947 87.100 165.458 86.000 163.500 C 84.900 161.542 84.000 159.333 84.000 158.592 C 84.000 157.851 83.325 156.685 82.500 156.000 C 81.675 155.315 81.000 153.910 81.000 152.878 C 81.000 151.845 80.550 151.000 80.000 151.000 C 79.450 151.000 79.000 150.049 79.000 148.886 C 79.000 147.724 78.137 145.136 77.083 143.136 C 73.088 135.559 67.908 121.958 68.594 120.847 C 69.038 120.130 68.870 119.962 68.153 120.406 C 67.441 120.845 66.587 120.045 65.934 118.325 C 65.349 116.788 64.179 113.948 63.333 112.015 C 62.488 110.082 61.452 107.600 61.032 106.500 C 60.078 104.004 58.045 99.184 56.748 96.345 C 56.207 95.160 56.055 93.720 56.410 93.146 C 56.765 92.571 56.143 91.612 55.028 91.015 C 53.913 90.418 53.000 89.072 53.000 88.024 C 53.000 86.976 52.543 85.835 51.984 85.490 C 51.425 85.144 51.226 84.443 51.543 83.931 C 51.859 83.419 51.529 82.986 50.809 82.968 C 49.945 82.947 50.099 82.482 51.264 81.597 C 52.895 80.360 53.009 77.871 52.764 48.879 L 52.500 17.500 49.000 16.994 C 44.024 16.274 46.415 15.315 53.750 15.088 C 57.580 14.970 60.000 15.303 60.000 15.948 C 60.000 16.526 59.213 17.014 58.250 17.032 C 56.689 17.060 56.716 17.227 58.500 18.575 C 59.600 19.406 60.500 20.533 60.500 21.080 C 60.500 21.626 61.120 22.456 61.878 22.925 C 62.636 23.393 62.989 24.209 62.663 24.737 C 62.060 25.712 65.852 30.482 66.619 29.714 C 66.849 29.484 65.331 25.575 63.246 21.028 L 59.455 12.759 54.478 12.630 C 51.740 12.558 41.963 12.623 32.750 12.774 M 49.575 76.547 C 49.941 78.497 49.961 80.372 49.620 80.713 C 49.279 81.054 49.000 80.133 49.000 78.667 C 49.000 77.200 48.550 76.000 48.000 76.000 C 47.450 76.000 47.000 75.325 47.000 74.500 C 47.000 71.543 48.923 73.071 49.575 76.547 M 46.200 71.000 C 45.540 71.000 45.000 70.460 45.000 69.800 C 45.000 68.867 45.267 68.867 46.200 69.800 C 47.133 70.733 47.133 71.000 46.200 71.000 "/></g>
<g fill="#DE5765FF" stroke="#DE5765FF">
<path d="M 146.858 19.750 C 148.993 24.013 152.203 30.875 153.993 35.000 C 155.783 39.125 159.393 47.225 162.014 53.000 C 164.635 58.775 167.517 65.272 168.417 67.437 C 169.818 70.805 170.249 71.167 171.400 69.937 C 172.140 69.147 176.678 59.725 181.486 49.000 C 186.293 38.275 191.980 25.717 194.122 21.092 C 197.885 12.971 198.315 11.069 196.072 12.455 C 194.789 13.248 146.011 13.344 145.222 12.556 C 144.917 12.250 144.287 12.000 143.822 12.000 C 143.358 12.000 144.724 15.488 146.858 19.750 "/></g>
<g fill="#C3C9DFFF" stroke="#C3C9DFFF">
<path d="M 290.250 10.662 C 288.466 11.382 288.417 153.017 290.200 154.800 C 291.055 155.655 297.244 156.000 311.700 156.000 L 332.000 156.000 332.000 173.918 C 332.000 183.773 332.273 192.548 332.607 193.418 C 332.941 194.288 333.953 194.986 334.857 194.970 C 336.314 194.943 336.302 194.824 334.750 193.920 C 333.181 193.006 333.000 190.944 333.000 173.970 L 333.000 155.040 311.750 154.770 L 290.500 154.500 290.500 83.000 L 290.500 11.500 312.000 11.500 L 333.500 11.500 333.757 82.750 L 334.013 154.000 382.900 154.000 C 426.555 154.000 431.851 154.169 432.393 155.582 C 432.727 156.452 433.000 165.204 433.000 175.032 C 433.000 190.995 432.813 193.009 431.250 193.920 C 429.698 194.824 429.686 194.943 431.143 194.970 C 432.047 194.986 433.059 194.288 433.393 193.418 C 434.593 190.290 434.067 155.467 432.800 154.200 C 431.900 153.300 419.533 153.000 383.300 153.000 L 335.000 153.000 335.000 82.700 C 335.000 29.356 334.711 12.111 333.800 11.200 C 332.939 10.339 326.792 10.022 312.050 10.079 C 300.748 10.122 290.938 10.385 290.250 10.662 "/></g>
<g fill="#8795C2FF" stroke="#8795C2FF">
<path d="M 290.667 11.667 C 290.300 12.033 290.000 43.893 290.000 82.467 C 290.000 135.681 290.289 152.889 291.200 153.800 C 292.054 154.654 298.240 155.000 312.678 155.000 L 332.957 155.000 333.228 174.250 C 333.435 188.904 333.798 193.476 334.750 193.400 C 335.438 193.345 335.550 193.233 335.000 193.150 C 334.374 193.056 334.000 185.894 334.000 173.982 L 334.000 154.964 382.870 155.019 C 409.748 155.048 431.498 154.832 431.203 154.536 C 430.908 154.241 408.920 154.000 382.340 154.000 L 334.013 154.000 333.750 82.750 L 333.486 11.500 333.243 82.770 L 333.000 154.041 312.250 153.770 L 291.500 153.500 291.243 82.770 L 290.987 12.041 311.743 11.749 L 332.500 11.457 311.917 11.229 C 300.596 11.103 291.033 11.300 290.667 11.667 "/></g>
<g fill="#061F79FF" stroke="#061F79FF">
<path d="M 205.090 134.590 C 205.098 187.225 205.257 193.207 206.582 190.749 C 207.852 188.394 208.024 180.083 207.783 133.048 C 207.570 91.710 207.200 77.799 206.290 76.889 C 205.343 75.943 205.082 88.501 205.090 134.590 "/></g>
<g fill="#3E56A0FF" stroke="#3E56A0FF">
<path d="M 291.490 82.500 L 291.500 153.500 312.250 153.770 L 333.000 154.041 332.757 82.770 L 332.514 11.500 332.250 82.250 L 331.987 153.000 312.000 153.000 L 292.013 153.000 291.747 82.250 L 291.480 11.500 291.490 82.500 "/></g>
<g fill="#061F79FF" stroke="#061F79FF">
<path d="M 383.243 193.760 C 352.901 193.927 336.000 194.374 336.000 195.010 C 336.000 196.604 429.833 196.345 430.200 194.750 C 430.427 193.761 420.631 193.554 383.243 193.760 "/></g>
<g fill="#C3C9DFFF" stroke="#C3C9DFFF">
<path d="M 207.329 73.775 C 206.685 74.185 205.876 75.866 205.530 77.510 L 204.901 80.500 206.402 77.250 L 207.903 74.000 228.252 74.000 C 242.745 74.000 248.945 74.345 249.800 75.200 C 250.706 76.106 251.000 90.678 251.000 134.650 C 251.000 189.072 250.885 192.968 249.250 193.920 C 247.698 194.824 247.686 194.943 249.143 194.970 C 250.047 194.986 251.059 194.288 251.393 193.418 C 252.493 190.551 252.083 77.023 250.965 74.934 C 249.992 73.117 248.680 73.001 229.215 73.015 C 217.822 73.024 207.973 73.366 207.329 73.775 "/></g>
<g fill="#3E56A0FF" stroke="#3E56A0FF">
<path d="M 59.768 13.500 C 60.325 14.600 66.705 28.775 73.945 45.000 C 81.185 61.225 87.727 75.851 88.483 77.502 C 89.240 79.153 90.735 82.528 91.807 85.002 C 92.879 87.476 94.890 91.975 96.276 95.000 C 101.414 106.213 124.270 157.583 125.147 159.889 C 125.647 161.202 126.271 162.062 126.534 161.799 C 126.797 161.536 121.208 148.311 114.114 132.410 C 74.866 44.436 60.841 13.448 59.854 12.527 C 59.059 11.784 59.035 12.053 59.768 13.500 "/></g>
<g fill="#8795C2FF" stroke="#8795C2FF">
<path d="M 249.734 134.445 C 249.863 167.034 250.200 193.466 250.484 193.183 C 251.310 192.357 251.079 76.167 250.250 75.655 C 249.838 75.400 249.605 101.855 249.734 134.445 "/></g>
<g fill="#C3C9DFFF" stroke="#C3C9DFFF">
<path d="M 206.000 135.739 C 205.725 165.857 205.839 191.545 206.253 192.823 C 206.759 194.384 207.579 194.996 208.753 194.689 C 210.413 194.255 210.413 194.226 208.750 194.116 C 207.788 194.052 206.991 193.213 206.980 192.250 C 206.968 191.288 206.856 165.857 206.730 135.739 L 206.500 80.977 206.000 135.739 "/></g>
<g fill="#061F79FF" stroke="#061F79FF">
<path d="M 96.404 195.156 C 96.117 195.620 105.809 196.000 117.941 196.000 C 132.400 196.000 140.000 195.645 140.000 194.971 C 140.000 193.708 97.186 193.890 96.404 195.156 "/></g>
<g fill="#3E56A0FF" stroke="#3E56A0FF">
<path d="M 88.000 176.175 C 88.000 177.631 95.303 192.572 96.336 193.229 C 97.690 194.090 139.387 194.280 140.239 193.428 C 140.553 193.113 131.021 192.903 119.056 192.962 C 102.403 193.043 97.081 192.766 96.362 191.784 C 95.845 191.078 94.110 187.575 92.504 184.000 C 89.777 177.925 88.000 174.838 88.000 176.175 "/></g>
<g fill="#C3C9DFFF" stroke="#C3C9DFFF">
<path d="M 14.459 11.067 C 14.096 11.653 14.070 12.403 14.400 12.733 C 14.730 13.063 15.000 12.794 15.000 12.134 C 15.000 11.233 20.817 10.960 38.402 11.036 C 51.273 11.091 61.548 10.881 61.235 10.568 C 60.138 9.471 15.149 9.950 14.459 11.067 "/></g>
<g fill="#C3C9DFFF" stroke="#C3C9DFFF">
<path d="M 63.203 125.591 C 63.892 128.121 84.352 172.982 84.672 172.662 C 85.063 172.270 67.020 131.675 64.506 127.289 C 63.626 125.755 63.040 124.991 63.203 125.591 "/></g>
<g fill="#C3C9DFFF" stroke="#C3C9DFFF">
<path d="M 105.324 110.000 C 106.430 113.489 125.350 154.983 125.683 154.650 C 126.075 154.259 107.720 112.934 105.922 110.157 C 105.148 108.962 104.981 108.918 105.324 110.000 "/></g>
<g fill="#00369AFF" stroke="#00369AFF">
<path d="M 312.251 12.958 C 323.115 13.256 332.002 13.163 332.001 12.750 C 332.001 12.338 323.113 12.094 312.250 12.208 L 292.500 12.417 312.251 12.958 "/></g>
<g fill="#C3C9DFFF" stroke="#C3C9DFFF">
<path d="M 47.192 89.609 C 47.933 92.279 62.346 123.987 62.670 123.663 C 63.061 123.273 49.841 93.178 48.002 90.268 C 47.387 89.296 47.023 88.999 47.192 89.609 "/></g>
<g fill="#3E56A0FF" stroke="#3E56A0FF">
<path d="M 127.000 163.329 C 127.000 163.693 128.504 167.256 130.341 171.246 C 132.179 175.236 134.945 181.322 136.487 184.771 C 138.030 188.220 139.454 190.880 139.651 190.682 C 140.009 190.324 128.410 164.077 127.486 163.152 C 127.218 162.885 127.000 162.965 127.000 163.329 "/></g>
<g fill="#C3C9DFFF" stroke="#C3C9DFFF">
<path d="M 126.243 157.000 C 128.066 161.873 138.346 183.987 138.648 183.685 C 139.062 183.272 127.313 156.939 126.326 156.069 C 125.972 155.756 125.934 156.175 126.243 157.000 "/></g>
<g fill="#00369AFF" stroke="#00369AFF">
<path d="M 91.000 180.411 C 91.000 181.545 96.301 192.068 97.131 192.581 C 99.378 193.970 99.115 191.840 96.639 188.594 C 95.188 186.691 94.000 184.252 94.000 183.174 C 94.000 182.096 93.325 180.955 92.500 180.638 C 91.675 180.322 91.000 180.219 91.000 180.411 "/></g>
<g fill="#3E56A0FF" stroke="#3E56A0FF">
<path d="M 79.000 156.205 C 79.000 157.143 87.868 175.591 87.938 174.798 C 88.029 173.763 80.926 157.660 79.888 156.550 C 79.400 156.028 79.000 155.872 79.000 156.205 "/></g>
<g fill="#3E56A0FF" stroke="#3E56A0FF">
<path d="M 66.000 127.155 C 66.000 128.100 74.900 146.549 74.951 145.711 C 75.014 144.688 67.901 128.794 66.823 127.550 C 66.370 127.028 66.000 126.850 66.000 127.155 "/></g>
<g fill="#C3C9DFFF" stroke="#C3C9DFFF">
<path d="M 92.383 81.000 C 93.169 83.850 100.302 99.031 100.678 98.655 C 100.885 98.448 99.011 94.053 96.512 88.889 C 94.013 83.725 92.155 80.175 92.383 81.000 "/></g>
<g fill="#C3C9DFFF" stroke="#C3C9DFFF">
<path d="M 38.383 70.000 C 39.169 72.850 46.302 88.031 46.678 87.655 C 46.885 87.448 45.011 83.053 42.512 77.889 C 40.013 72.725 38.155 69.175 38.383 70.000 "/></g>
<g fill="#C3C9DFFF" stroke="#C3C9DFFF">
<path d="M 25.383 41.000 C 26.169 43.850 33.302 59.031 33.678 58.655 C 33.885 58.448 32.011 54.053 29.512 48.889 C 27.013 43.725 25.155 40.175 25.383 41.000 "/></g>
<g fill="#C3C9DFFF" stroke="#C3C9DFFF">
<path d="M 89.071 183.500 C 89.022 185.496 94.540 194.497 95.754 194.400 C 96.439 194.345 96.557 194.233 96.016 194.150 C 95.475 194.068 93.696 191.413 92.064 188.250 C 90.432 185.088 89.085 182.950 89.071 183.500 "/></g>
<g fill="#C3C9DFFF" stroke="#C3C9DFFF">
<path d="M 139.044 185.300 C 139.020 185.739 139.703 187.459 140.563 189.121 C 141.781 191.478 141.865 192.458 140.940 193.572 C 140.060 194.633 140.052 195.000 140.909 195.000 C 143.063 195.000 143.150 192.199 141.116 188.343 C 140.001 186.229 139.069 184.860 139.044 185.300 "/></g>
<g fill="#C3C9DFFF" stroke="#C3C9DFFF">
<path d="M 80.574 54.750 C 83.631 61.913 84.439 63.491 84.190 61.808 C 83.873 59.668 80.063 51.000 79.440 51.000 C 79.183 51.000 79.693 52.688 80.574 54.750 "/></g>
<g fill="#061F79FF" stroke="#061F79FF">
<path d="M 47.000 74.500 C 47.000 75.325 47.450 76.000 48.000 76.000 C 48.550 76.000 49.000 77.200 49.000 78.667 C 49.000 80.133 49.279 81.054 49.620 80.713 C 50.536 79.797 49.069 73.000 47.955 73.000 C 47.430 73.000 47.000 73.675 47.000 74.500 "/></g>
<g fill="#C3C9DFFF" stroke="#C3C9DFFF">
<path d="M 16.090 20.500 C 16.090 21.050 17.175 23.525 18.500 26.000 C 19.825 28.475 20.910 30.050 20.910 29.500 C 20.910 28.950 19.825 26.475 18.500 24.000 C 17.175 21.525 16.090 19.950 16.090 20.500 "/></g>
<g fill="#C3C9DFFF" stroke="#C3C9DFFF">
<path d="M 88.042 71.750 C 88.098 72.752 91.904 79.675 91.958 78.872 C 92.027 77.837 89.012 71.000 88.487 71.000 C 88.219 71.000 88.019 71.338 88.042 71.750 "/></g>
<g fill="#3E56A0FF" stroke="#3E56A0FF">
<path d="M 54.519 101.699 C 56.204 105.733 57.000 106.894 57.000 105.320 C 57.000 104.077 54.023 98.000 53.413 98.000 C 53.171 98.000 53.669 99.664 54.519 101.699 "/></g>
<g fill="#C3C9DFFF" stroke="#C3C9DFFF">
<path d="M 85.084 174.500 C 85.084 175.050 85.946 177.075 87.000 179.000 C 88.054 180.925 88.916 182.050 88.916 181.500 C 88.916 180.950 88.054 178.925 87.000 177.000 C 85.946 175.075 85.084 173.950 85.084 174.500 "/></g>
<g fill="#C3C9DFFF" stroke="#C3C9DFFF">
<path d="M 101.084 100.500 C 101.084 101.050 101.946 103.075 103.000 105.000 C 104.054 106.925 104.916 108.050 104.916 107.500 C 104.916 106.950 104.054 104.925 103.000 103.000 C 101.946 101.075 101.084 99.950 101.084 100.500 "/></g>
<g fill="#C3C9DFFF" stroke="#C3C9DFFF">
<path d="M 34.084 60.500 C 34.084 61.050 34.946 63.075 36.000 65.000 C 37.054 66.925 37.916 68.050 37.916 67.500 C 37.916 66.950 37.054 64.925 36.000 63.000 C 34.946 61.075 34.084 59.950 34.084 60.500 "/></g>
<g fill="#C3C9DFFF" stroke="#C3C9DFFF">
<path d="M 21.084 31.500 C 21.084 32.050 21.946 34.075 23.000 36.000 C 24.054 37.925 24.916 39.050 24.916 38.500 C 24.916 37.950 24.054 35.925 23.000 34.000 C 21.946 32.075 21.084 30.950 21.084 31.500 "/></g>
<g fill="#C3C9DFFF" stroke="#C3C9DFFF">
<path d="M 67.519 25.699 C 69.017 29.286 70.000 30.905 70.000 29.789 C 70.000 28.710 66.962 22.000 66.473 22.000 C 66.198 22.000 66.669 23.664 67.519 25.699 "/></g>
<g fill="#8795C2FF" stroke="#8795C2FF">
<path d="M 92.040 187.300 C 91.954 189.010 95.116 193.999 96.276 193.985 C 97.134 193.974 97.169 193.749 96.395 193.235 C 95.788 192.831 94.568 191.150 93.685 189.500 C 92.802 187.850 92.062 186.860 92.040 187.300 "/></g>
<g fill="#3E56A0FF" stroke="#3E56A0FF">
<path d="M 76.519 150.699 C 78.017 154.286 79.000 155.905 79.000 154.789 C 79.000 153.710 75.962 147.000 75.473 147.000 C 75.198 147.000 75.669 148.664 76.519 150.699 "/></g>
<g fill="#3E56A0FF" stroke="#3E56A0FF">
<path d="M 50.150 92.002 C 50.726 93.653 51.603 95.254 52.098 95.561 C 53.347 96.332 53.239 95.787 51.427 92.154 C 49.437 88.165 48.786 88.088 50.150 92.002 "/></g>
<g fill="#3E56A0FF" stroke="#3E56A0FF">
<path d="M 41.150 72.002 C 41.726 73.653 42.603 75.254 43.098 75.561 C 44.347 76.332 44.239 75.787 42.427 72.154 C 40.437 68.165 39.786 68.088 41.150 72.002 "/></g>
<g fill="#3E56A0FF" stroke="#3E56A0FF">
<path d="M 24.040 33.128 C 24.018 33.473 24.785 35.498 25.745 37.628 C 26.704 39.758 27.334 40.600 27.144 39.500 C 26.795 37.475 24.114 31.971 24.040 33.128 "/></g>
<g fill="#3E56A0FF" stroke="#3E56A0FF">
<path d="M 59.035 111.559 C 59.099 113.236 61.929 117.574 61.933 116.000 C 61.935 115.175 61.276 113.626 60.468 112.559 C 59.661 111.491 59.016 111.041 59.035 111.559 "/></g>
<g fill="#3E56A0FF" stroke="#3E56A0FF">
<path d="M 28.035 42.559 C 28.099 44.236 30.929 48.574 30.933 47.000 C 30.935 46.175 30.276 44.626 29.468 43.559 C 28.661 42.491 28.016 42.041 28.035 42.559 "/></g>
<g fill="#3E56A0FF" stroke="#3E56A0FF">
<path d="M 15.067 14.000 C 15.065 14.825 15.724 16.374 16.532 17.441 C 18.400 19.911 18.379 18.287 16.500 15.000 C 15.671 13.550 15.069 13.130 15.067 14.000 "/></g>
<g fill="#C3C9DFFF" stroke="#C3C9DFFF">
<path d="M 85.071 64.500 C 85.071 65.050 85.714 66.625 86.500 68.000 C 87.286 69.375 87.929 70.050 87.929 69.500 C 87.929 68.950 87.286 67.375 86.500 66.000 C 85.714 64.625 85.071 63.950 85.071 64.500 "/></g>
<g fill="#C3C9DFFF" stroke="#C3C9DFFF">
<path d="M 76.071 44.500 C 76.071 45.050 76.714 46.625 77.500 48.000 C 78.286 49.375 78.929 50.050 78.929 49.500 C 78.929 48.950 78.286 47.375 77.500 46.000 C 76.714 44.625 76.071 43.950 76.071 44.500 "/></g>
<g fill="#C3C9DFFF" stroke="#C3C9DFFF">
<path d="M 72.071 35.500 C 72.071 36.050 72.714 37.625 73.500 39.000 C 74.286 40.375 74.929 41.050 74.929 40.500 C 74.929 39.950 74.286 38.375 73.500 37.000 C 72.714 35.625 72.071 34.950 72.071 35.500 "/></g>
<g fill="#C3C9DFFF" stroke="#C3C9DFFF">
<path d="M 63.071 15.500 C 63.071 16.050 63.714 17.625 64.500 19.000 C 65.286 20.375 65.929 21.050 65.929 20.500 C 65.929 19.950 65.286 18.375 64.500 17.000 C 63.714 15.625 63.071 14.950 63.071 15.500 "/></g>
<g fill="#8795C2FF" stroke="#8795C2FF">
<path d="M 136.071 181.500 C 136.071 182.050 136.714 183.625 137.500 185.000 C 138.286 186.375 138.929 187.050 138.929 186.500 C 138.929 185.950 138.286 184.375 137.500 183.000 C 136.714 181.625 136.071 180.950 136.071 181.500 "/></g>
<g fill="#8795C2FF" stroke="#8795C2FF">
<path d="M 80.071 160.500 C 80.071 161.050 80.714 162.625 81.500 164.000 C 82.286 165.375 82.929 166.050 82.929 165.500 C 82.929 164.950 82.286 163.375 81.500 162.000 C 80.714 160.625 80.071 159.950 80.071 160.500 "/></g>
<g fill="#8795C2FF" stroke="#8795C2FF">
<path d="M 124.071 154.500 C 124.071 155.050 124.714 156.625 125.500 158.000 C 126.286 159.375 126.929 160.050 126.929 159.500 C 126.929 158.950 126.286 157.375 125.500 156.000 C 124.714 154.625 124.071 153.950 124.071 154.500 "/></g>
<g fill="#8795C2FF" stroke="#8795C2FF">
<path d="M 76.071 151.500 C 76.071 152.050 76.714 153.625 77.500 155.000 C 78.286 156.375 78.929 157.050 78.929 156.500 C 78.929 155.950 78.286 154.375 77.500 153.000 C 76.714 151.625 76.071 150.950 76.071 151.500 "/></g>
<g fill="#8795C2FF" stroke="#8795C2FF">
<path d="M 67.071 131.500 C 67.071 132.050 67.714 133.625 68.500 135.000 C 69.286 136.375 69.929 137.050 69.929 136.500 C 69.929 135.950 69.286 134.375 68.500 133.000 C 67.714 131.625 67.071 130.950 67.071 131.500 "/></g>
<g fill="#8795C2FF" stroke="#8795C2FF">
<path d="M 63.071 122.500 C 63.071 123.050 63.714 124.625 64.500 126.000 C 65.286 127.375 65.929 128.050 65.929 127.500 C 65.929 126.950 65.286 125.375 64.500 124.000 C 63.714 122.625 63.071 121.950 63.071 122.500 "/></g>
<g fill="#8795C2FF" stroke="#8795C2FF">
<path d="M 58.071 111.500 C 58.071 112.050 58.714 113.625 59.500 115.000 C 60.286 116.375 60.929 117.050 60.929 116.500 C 60.929 115.950 60.286 114.375 59.500 113.000 C 58.714 111.625 58.071 110.950 58.071 111.500 "/></g>
<g fill="#8795C2FF" stroke="#8795C2FF">
<path d="M 54.071 102.500 C 54.071 103.050 54.714 104.625 55.500 106.000 C 56.286 107.375 56.929 108.050 56.929 107.500 C 56.929 106.950 56.286 105.375 55.500 104.000 C 54.714 102.625 54.071 101.950 54.071 102.500 "/></g>
<g fill="#8795C2FF" stroke="#8795C2FF">
<path d="M 95.071 89.500 C 95.071 90.050 95.714 91.625 96.500 93.000 C 97.286 94.375 97.929 95.050 97.929 94.500 C 97.929 93.950 97.286 92.375 96.500 91.000 C 95.714 89.625 95.071 88.950 95.071 89.500 "/></g>
<g fill="#8795C2FF" stroke="#8795C2FF">
<path d="M 66.071 24.500 C 66.071 25.050 66.714 26.625 67.500 28.000 C 68.286 29.375 68.929 30.050 68.929 29.500 C 68.929 28.950 68.286 27.375 67.500 26.000 C 66.714 24.625 66.071 23.950 66.071 24.500 "/></g>
<g fill="#3E56A0FF" stroke="#3E56A0FF">
<path d="M 46.071 82.500 C 46.071 83.050 46.714 84.625 47.500 86.000 C 48.286 87.375 48.929 88.050 48.929 87.500 C 48.929 86.950 48.286 85.375 47.500 84.000 C 46.714 82.625 46.071 81.950 46.071 82.500 "/></g>
<g fill="#061F79FF" stroke="#061F79FF">
<path d="M 289.553 153.915 C 289.231 154.436 289.394 155.125 289.915 155.447 C 290.436 155.769 291.125 155.606 291.447 155.085 C 291.769 154.564 291.606 153.875 291.085 153.553 C 290.564 153.231 289.875 153.394 289.553 153.915 "/></g>
<g fill="#3E56A0FF" stroke="#3E56A0FF">
<path d="M 37.040 62.559 C 37.018 63.141 37.699 64.491 38.552 65.559 C 39.962 67.321 39.965 67.223 38.592 64.500 C 37.761 62.850 37.062 61.976 37.040 62.559 "/></g>
<g fill="#00369AFF" stroke="#00369AFF">
<path d="M 68.676 35.716 C 68.316 36.297 68.701 37.337 69.530 38.025 C 70.827 39.102 70.919 38.954 70.184 36.967 C 69.696 35.649 69.049 35.112 68.676 35.716 "/></g>
<g fill="#00369AFF" stroke="#00369AFF">
<path d="M 66.638 32.500 C 66.955 33.325 67.602 34.000 68.076 34.000 C 68.549 34.000 68.678 33.325 68.362 32.500 C 68.045 31.675 67.398 31.000 66.924 31.000 C 66.451 31.000 66.322 31.675 66.638 32.500 "/></g>
<g fill="#061F79FF" stroke="#061F79FF">
<path d="M 38.000 68.017 C 36.735 68.820 36.788 68.972 38.333 68.985 C 39.342 68.993 40.017 68.564 39.833 68.032 C 39.621 67.416 38.955 67.410 38.000 68.017 "/></g>
<g fill="#061F79FF" stroke="#061F79FF">
<path d="M 60.000 11.950 C 60.000 12.528 60.788 12.986 61.750 12.970 C 63.417 12.941 63.417 12.891 61.750 11.920 C 60.547 11.219 60.000 11.229 60.000 11.950 "/></g>
<g fill="#C3C9DFFF" stroke="#C3C9DFFF">
<path d="M 14.031 15.500 C 14.031 16.050 14.467 17.175 15.000 18.000 C 15.533 18.825 15.969 19.050 15.969 18.500 C 15.969 17.950 15.533 16.825 15.000 16.000 C 14.467 15.175 14.031 14.950 14.031 15.500 "/></g>
<g fill="#8795C2FF" stroke="#8795C2FF">
<path d="M 89.031 180.500 C 89.031 181.050 89.467 182.175 90.000 183.000 C 90.533 183.825 90.969 184.050 90.969 183.500 C 90.969 182.950 90.533 181.825 90.000 181.000 C 89.467 180.175 89.031 179.950 89.031 180.500 "/></g>
<g fill="#8795C2FF" stroke="#8795C2FF">
<path d="M 134.031 176.500 C 134.031 177.050 134.467 178.175 135.000 179.000 C 135.533 179.825 135.969 180.050 135.969 179.500 C 135.969 178.950 135.533 177.825 135.000 177.000 C 134.467 176.175 134.031 175.950 134.031 176.500 "/></g>
<g fill="#8795C2FF" stroke="#8795C2FF">
<path d="M 85.031 171.500 C 85.031 172.050 85.467 173.175 86.000 174.000 C 86.533 174.825 86.969 175.050 86.969 174.500 C 86.969 173.950 86.533 172.825 86.000 172.000 C 85.467 171.175 85.031 170.950 85.031 171.500 "/></g>
<g fill="#8795C2FF" stroke="#8795C2FF">
<path d="M 121.031 147.500 C 121.031 148.050 121.467 149.175 122.000 150.000 C 122.533 150.825 122.969 151.050 122.969 150.500 C 122.969 149.950 122.533 148.825 122.000 148.000 C 121.467 147.175 121.031 146.950 121.031 147.500 "/></g>
<g fill="#8795C2FF" stroke="#8795C2FF">
<path d="M 72.031 142.500 C 72.031 143.050 72.467 144.175 73.000 145.000 C 73.533 145.825 73.969 146.050 73.969 145.500 C 73.969 144.950 73.533 143.825 73.000 143.000 C 72.467 142.175 72.031 141.950 72.031 142.500 "/></g>
<g fill="#8795C2FF" stroke="#8795C2FF">
<path d="M 117.031 138.500 C 117.031 139.050 117.467 140.175 118.000 141.000 C 118.533 141.825 118.969 142.050 118.969 141.500 C 118.969 140.950 118.533 139.825 118.000 139.000 C 117.467 138.175 117.031 137.950 117.031 138.500 "/></g>
<g fill="#8795C2FF" stroke="#8795C2FF">
<path d="M 112.031 127.500 C 112.031 128.050 112.467 129.175 113.000 130.000 C 113.533 130.825 113.969 131.050 113.969 130.500 C 113.969 129.950 113.533 128.825 113.000 128.000 C 112.467 127.175 112.031 126.950 112.031 127.500 "/></g>
<g fill="#8795C2FF" stroke="#8795C2FF">
<path d="M 108.031 118.500 C 108.031 119.050 108.467 120.175 109.000 121.000 C 109.533 121.825 109.969 122.050 109.969 121.500 C 109.969 120.950 109.533 119.825 109.000 119.000 C 108.467 118.175 108.031 117.950 108.031 118.500 "/></g>
<g fill="#8795C2FF" stroke="#8795C2FF">
<path d="M 104.031 109.500 C 104.031 110.050 104.467 111.175 105.000 112.000 C 105.533 112.825 105.969 113.050 105.969 112.500 C 105.969 111.950 105.533 110.825 105.000 110.000 C 104.467 109.175 104.031 108.950 104.031 109.500 "/></g>
<g fill="#8795C2FF" stroke="#8795C2FF">
<path d="M 99.031 98.500 C 99.031 99.050 99.467 100.175 100.000 101.000 C 100.533 101.825 100.969 102.050 100.969 101.500 C 100.969 100.950 100.533 99.825 100.000 99.000 C 99.467 98.175 99.031 97.950 99.031 98.500 "/></g>
<g fill="#8795C2FF" stroke="#8795C2FF">
<path d="M 50.031 93.500 C 50.031 94.050 50.467 95.175 51.000 96.000 C 51.533 96.825 51.969 97.050 51.969 96.500 C 51.969 95.950 51.533 94.825 51.000 94.000 C 50.467 93.175 50.031 92.950 50.031 93.500 "/></g>
<g fill="#8795C2FF" stroke="#8795C2FF">
<path d="M 92.031 82.500 C 92.031 83.050 92.467 84.175 93.000 85.000 C 93.533 85.825 93.969 86.050 93.969 85.500 C 93.969 84.950 93.533 83.825 93.000 83.000 C 92.467 82.175 92.031 81.950 92.031 82.500 "/></g>
<g fill="#8795C2FF" stroke="#8795C2FF">
<path d="M 41.031 73.500 C 41.031 74.050 41.467 75.175 42.000 76.000 C 42.533 76.825 42.969 77.050 42.969 76.500 C 42.969 75.950 42.533 74.825 42.000 74.000 C 41.467 73.175 41.031 72.950 41.031 73.500 "/></g>
<g fill="#8795C2FF" stroke="#8795C2FF">
<path d="M 79.031 53.500 C 79.031 54.050 79.467 55.175 80.000 56.000 C 80.533 56.825 80.969 57.050 80.969 56.500 C 80.969 55.950 80.533 54.825 80.000 54.000 C 79.467 53.175 79.031 52.950 79.031 53.500 "/></g>
<g fill="#3E56A0FF" stroke="#3E56A0FF">
<path d="M 64.031 122.500 C 64.031 123.050 64.467 124.175 65.000 125.000 C 65.533 125.825 65.969 126.050 65.969 125.500 C 65.969 124.950 65.533 123.825 65.000 123.000 C 64.467 122.175 64.031 121.950 64.031 122.500 "/></g>
<g fill="#3E56A0FF" stroke="#3E56A0FF">
<path d="M 57.000 107.882 C 57.000 108.432 57.450 109.160 58.000 109.500 C 58.550 109.840 59.000 109.668 59.000 109.118 C 59.000 108.568 58.550 107.840 58.000 107.500 C 57.450 107.160 57.000 107.332 57.000 107.882 "/></g>
<g fill="#3E56A0FF" stroke="#3E56A0FF">
<path d="M 35.031 57.500 C 35.031 58.050 35.467 59.175 36.000 60.000 C 36.533 60.825 36.969 61.050 36.969 60.500 C 36.969 59.950 36.533 58.825 36.000 58.000 C 35.467 57.175 35.031 56.950 35.031 57.500 "/></g>
<g fill="#3E56A0FF" stroke="#3E56A0FF">
<path d="M 22.031 28.500 C 22.031 29.050 22.467 30.175 23.000 31.000 C 23.533 31.825 23.969 32.050 23.969 31.500 C 23.969 30.950 23.533 29.825 23.000 29.000 C 22.467 28.175 22.031 27.950 22.031 28.500 "/></g>
<g fill="#00369AFF" stroke="#00369AFF">
<path d="M 247.250 78.080 C 248.453 78.781 249.000 78.771 249.000 78.050 C 249.000 77.472 248.213 77.014 247.250 77.030 C 245.583 77.059 245.583 77.109 247.250 78.080 "/></g>
<g fill="#00369AFF" stroke="#00369AFF">
<path d="M 82.063 65.191 C 82.029 66.121 82.444 67.156 82.987 67.492 C 83.626 67.887 83.648 67.292 83.050 65.801 C 82.395 64.167 82.108 63.991 82.063 65.191 "/></g>
<g fill="#061F79FF" stroke="#061F79FF">
<path d="M 432.030 191.691 C 432.014 192.346 432.507 193.195 433.126 193.578 C 433.955 194.090 433.963 193.776 433.157 192.387 C 432.554 191.349 432.047 191.036 432.030 191.691 "/></g>
<g fill="#061F79FF" stroke="#061F79FF">
<path d="M 140.800 192.200 C 141.733 193.133 142.000 193.133 142.000 192.200 C 142.000 191.540 141.460 191.000 140.800 191.000 C 139.867 191.000 139.867 191.267 140.800 192.200 "/></g>
<g fill="#061F79FF" stroke="#061F79FF">
<path d="M 61.422 122.126 C 60.910 122.955 61.224 122.963 62.613 122.157 C 63.651 121.554 63.964 121.047 63.309 121.030 C 62.654 121.014 61.805 121.507 61.422 122.126 "/></g>
<g fill="#061F79FF" stroke="#061F79FF">
<path d="M 43.422 82.126 C 42.910 82.955 43.224 82.963 44.613 82.157 C 45.651 81.554 45.964 81.047 45.309 81.030 C 44.654 81.014 43.805 81.507 43.422 82.126 "/></g>
<g fill="#061F79FF" stroke="#061F79FF">
<path d="M 207.422 73.874 C 207.805 74.493 208.654 74.986 209.309 74.970 C 209.964 74.953 209.651 74.446 208.613 73.843 C 207.224 73.037 206.910 73.045 207.422 73.874 "/></g>
<g fill="#061F79FF" stroke="#061F79FF">
<path d="M 45.000 69.800 C 45.000 70.460 45.540 71.000 46.200 71.000 C 47.133 71.000 47.133 70.733 46.200 69.800 C 45.267 68.867 45.000 68.867 45.000 69.800 "/></g>
<g fill="#061F79FF" stroke="#061F79FF">
<path d="M 35.564 63.896 C 35.249 64.407 35.745 64.714 36.668 64.578 C 37.719 64.424 37.934 64.077 37.242 63.650 C 36.635 63.274 35.880 63.385 35.564 63.896 "/></g>
<g fill="#061F79FF" stroke="#061F79FF">
<path d="M 32.422 57.126 C 31.910 57.955 32.224 57.963 33.613 57.157 C 34.651 56.554 34.964 56.047 34.309 56.030 C 33.654 56.014 32.805 56.507 32.422 57.126 "/></g>
<g fill="#061F79FF" stroke="#061F79FF">
<path d="M 20.800 28.200 C 21.733 29.133 22.000 29.133 22.000 28.200 C 22.000 27.540 21.460 27.000 20.800 27.000 C 19.867 27.000 19.867 27.267 20.800 28.200 "/></g>
<g fill="#061F79FF" stroke="#061F79FF">
<path d="M 18.800 24.200 C 19.733 25.133 20.000 25.133 20.000 24.200 C 20.000 23.540 19.460 23.000 18.800 23.000 C 17.867 23.000 17.867 23.267 18.800 24.200 "/></g>
<g fill="#061F79FF" stroke="#061F79FF">
<path d="M 332.564 10.896 C 332.249 11.407 332.745 11.714 333.668 11.578 C 334.719 11.424 334.934 11.077 334.242 10.650 C 333.635 10.274 332.880 10.385 332.564 10.896 "/></g>
<g fill="#C3C9DFFF" stroke="#C3C9DFFF">
<path d="M 70.843 32.613 C 71.446 33.651 71.953 33.964 71.970 33.309 C 71.986 32.654 71.493 31.805 70.874 31.422 C 70.045 30.910 70.037 31.224 70.843 32.613 "/></g>
<g fill="#8795C2FF" stroke="#8795C2FF">
<path d="M 139.843 189.613 C 140.446 190.651 140.953 190.964 140.970 190.309 C 140.986 189.654 140.493 188.805 139.874 188.422 C 139.045 187.910 139.037 188.224 139.843 189.613 "/></g>
<g fill="#8795C2FF" stroke="#8795C2FF">
<path d="M 130.843 169.613 C 131.446 170.651 131.953 170.964 131.970 170.309 C 131.986 169.654 131.493 168.805 130.874 168.422 C 130.045 167.910 130.037 168.224 130.843 169.613 "/></g>
<g fill="#8795C2FF" stroke="#8795C2FF">
<path d="M 46.843 86.613 C 47.446 87.651 47.953 87.964 47.970 87.309 C 47.986 86.654 47.493 85.805 46.874 85.422 C 46.045 84.910 46.037 85.224 46.843 86.613 "/></g>
<g fill="#8795C2FF" stroke="#8795C2FF">
<path d="M 207.000 76.200 C 207.000 77.133 207.267 77.133 208.200 76.200 C 209.133 75.267 209.133 75.000 208.200 75.000 C 207.540 75.000 207.000 75.540 207.000 76.200 "/></g>
<g fill="#8795C2FF" stroke="#8795C2FF">
<path d="M 37.843 66.613 C 38.446 67.651 38.953 67.964 38.970 67.309 C 38.986 66.654 38.493 65.805 37.874 65.422 C 37.045 64.910 37.037 65.224 37.843 66.613 "/></g>
<g fill="#8795C2FF" stroke="#8795C2FF">
<path d="M 32.030 53.691 C 32.014 54.346 32.507 55.195 33.126 55.578 C 33.955 56.090 33.963 55.776 33.157 54.387 C 32.554 53.349 32.047 53.036 32.030 53.691 "/></g>
<g fill="#8795C2FF" stroke="#8795C2FF">
<path d="M 76.843 48.613 C 77.446 49.651 77.953 49.964 77.970 49.309 C 77.986 48.654 77.493 47.805 76.874 47.422 C 76.045 46.910 76.037 47.224 76.843 48.613 "/></g>
<g fill="#8795C2FF" stroke="#8795C2FF">
<path d="M 28.843 46.613 C 29.446 47.651 29.953 47.964 29.970 47.309 C 29.986 46.654 29.493 45.805 28.874 45.422 C 28.045 44.910 28.037 45.224 28.843 46.613 "/></g>
<g fill="#8795C2FF" stroke="#8795C2FF">
<path d="M 24.843 37.613 C 25.446 38.651 25.953 38.964 25.970 38.309 C 25.986 37.654 25.493 36.805 24.874 36.422 C 24.045 35.910 24.037 36.224 24.843 37.613 "/></g>
<g fill="#8795C2FF" stroke="#8795C2FF">
<path d="M 63.843 19.613 C 64.446 20.651 64.953 20.964 64.970 20.309 C 64.986 19.654 64.493 18.805 63.874 18.422 C 63.045 17.910 63.037 18.224 63.843 19.613 "/></g>
<g fill="#8795C2FF" stroke="#8795C2FF">
<path d="M 15.843 17.613 C 16.446 18.651 16.953 18.964 16.970 18.309 C 16.986 17.654 16.493 16.805 15.874 16.422 C 15.045 15.910 15.037 16.224 15.843 17.613 "/></g>
<g fill="#3E56A0FF" stroke="#3E56A0FF">
<path d="M 62.843 119.613 C 63.446 120.651 63.953 120.964 63.970 120.309 C 63.986 119.654 63.493 118.805 62.874 118.422 C 62.045 117.910 62.037 118.224 62.843 119.613 "/></g>
<g fill="#3E56A0FF" stroke="#3E56A0FF">
<path d="M 44.843 79.613 C 45.446 80.651 45.953 80.964 45.970 80.309 C 45.986 79.654 45.493 78.805 44.874 78.422 C 44.045 77.910 44.037 78.224 44.843 79.613 "/></g>
<g fill="#3E56A0FF" stroke="#3E56A0FF">
<path d="M 33.030 53.691 C 33.014 54.346 33.507 55.195 34.126 55.578 C 34.955 56.090 34.963 55.776 34.157 54.387 C 33.554 53.349 33.047 53.036 33.030 53.691 "/></g>
<g fill="#3E56A0FF" stroke="#3E56A0FF">
<path d="M 31.843 50.613 C 32.446 51.651 32.953 51.964 32.970 51.309 C 32.986 50.654 32.493 49.805 31.874 49.422 C 31.045 48.910 31.037 49.224 31.843 50.613 "/></g>
<g fill="#3E56A0FF" stroke="#3E56A0FF">
<path d="M 20.030 24.691 C 20.014 25.346 20.507 26.195 21.126 26.578 C 21.955 27.090 21.963 26.776 21.157 25.387 C 20.554 24.349 20.047 24.036 20.030 24.691 "/></g>
<g fill="#3E56A0FF" stroke="#3E56A0FF">
<path d="M 18.843 21.613 C 19.446 22.651 19.953 22.964 19.970 22.309 C 19.986 21.654 19.493 20.805 18.874 20.422 C 18.045 19.910 18.037 20.224 18.843 21.613 "/></g>
<g fill="#00369AFF" stroke="#00369AFF">
<path d="M 80.030 60.691 C 80.014 61.346 80.507 62.195 81.126 62.578 C 81.955 63.090 81.963 62.776 81.157 61.387 C 80.554 60.349 80.047 60.036 80.030 60.691 "/></g>
<g fill="#00369AFF" stroke="#00369AFF">
<path d="M 76.030 51.691 C 76.014 52.346 76.507 53.195 77.126 53.578 C 77.955 54.090 77.963 53.776 77.157 52.387 C 76.554 51.349 76.047 51.036 76.030 51.691 "/></g>
<g fill="#00369AFF" stroke="#00369AFF">
<path d="M 70.750 40.666 C 70.338 41.033 70.030 41.821 70.066 42.417 C 70.102 43.013 70.439 42.712 70.816 41.750 C 71.192 40.787 71.163 40.300 70.750 40.666 "/></g>
</svg>
